ISO-10303-21;
HEADER;
FILE_DESCRIPTION (( 'STEP AP203' ),
    '1' );
FILE_NAME ('20x20 3D Print Hinge.STEP',
    '2023-02-21T04:06:28',
    ( '' ),
    ( '' ),
    'SwSTEP 2.0',
    'SolidWorks 2022',
    '' );
FILE_SCHEMA (( 'CONFIG_CONTROL_DESIGN' ));
ENDSEC;

DATA;
#1 = CARTESIAN_POINT ( 'NONE',  ( 204.2332100219122424, -7.428722186132016070, 239.0937570693054965 ) ) ;
#2 = DIRECTION ( 'NONE',  ( 0.000000000000000000, -1.111559247063599730E-16, 1.000000000000000000 ) ) ;
#3 = EDGE_CURVE ( 'NONE', #437, #437, #811, .T. ) ;
#4 = DIRECTION ( 'NONE',  ( 0.000000000000000000, 0.000000000000000000, -1.000000000000000000 ) ) ;
#5 = CARTESIAN_POINT ( 'NONE',  ( 196.2332100219122708, -8.428722186132009853, 224.8937570693054795 ) ) ;
#6 = CIRCLE ( 'NONE', #45, 1.699999999999979305 ) ;
#7 = EDGE_LOOP ( 'NONE', ( #934 ) ) ;
#8 = AXIS2_PLACEMENT_3D ( 'NONE', #5, #24, #179 ) ;
#9 = AXIS2_PLACEMENT_3D ( 'NONE', #936, #854, #531 ) ;
#10 = FACE_OUTER_BOUND ( 'NONE', #882, .T. ) ;
#11 = AXIS2_PLACEMENT_3D ( 'NONE', #317, #650, #326 ) ;
#12 = LOCAL_TIME ( 13, 6, 28.00000000000000000, #459 ) ;
#13 = CARTESIAN_POINT ( 'NONE',  ( 196.2332100219122708, -6.428722186132010741, 224.8937570693054795 ) ) ;
#14 = CARTESIAN_POINT ( 'NONE',  ( 197.9832100219122708, -8.428722186132011629, 228.1937570693054909 ) ) ;
#15 = ORIENTED_EDGE ( 'NONE', *, *, #294, .T. ) ;
#16 = DIRECTION ( 'NONE',  ( -5.675212059250460620E-29, -1.000000000000000000, -1.111559247063599730E-16 ) ) ;
#17 = DIRECTION ( 'NONE',  ( -1.292146221230608574E-43, -2.168404344971007290E-15, -1.000000000000000000 ) ) ;
#18 = EDGE_CURVE ( 'NONE', #354, #627, #421, .T. ) ;
#19 = EDGE_CURVE ( 'NONE', #1008, #1008, #899, .T. ) ;
#20 = VERTEX_POINT ( 'NONE', #176 ) ;
#21 = ORIENTED_EDGE ( 'NONE', *, *, #1020, .T. ) ;
#22 = CARTESIAN_POINT ( 'NONE',  ( 204.2332100219122424, -6.428722186132016070, 230.6937570693054909 ) ) ;
#23 = CARTESIAN_POINT ( 'NONE',  ( 204.2332100219122424, -9.428722186132013405, 236.1849258938485434 ) ) ;
#24 = DIRECTION ( 'NONE',  ( 0.000000000000000000, -1.111559247063599730E-16, 1.000000000000000000 ) ) ;
#25 = ORIENTED_EDGE ( 'NONE', *, *, #716, .T. ) ;
#26 = CARTESIAN_POINT ( 'NONE',  ( 194.2332100219122708, -8.428722186132011629, 226.8937570693054795 ) ) ;
#27 = AXIS2_PLACEMENT_3D ( 'NONE', #467, #888, #461 ) ;
#28 = AXIS2_PLACEMENT_3D ( 'NONE', #1043, #230, #790 ) ;
#29 = CARTESIAN_POINT ( 'NONE',  ( 204.2332100219122424, -9.428722186132015182, 250.5506113187978485 ) ) ;
#30 = VECTOR ( 'NONE', #428, 1000.000000000000000 ) ;
#31 = LOCAL_TIME ( 13, 6, 28.00000000000000000, #546 ) ;
#32 = CALENDAR_DATE ( 2023, 21, 2 ) ;
#33 = ORIENTED_EDGE ( 'NONE', *, *, #892, .T. ) ;
#34 = CARTESIAN_POINT ( 'NONE',  ( 194.2332100219122708, -8.428722186132013405, 242.8937570693054795 ) ) ;
#35 = DIRECTION ( 'NONE',  ( 0.000000000000000000, -1.000000000000000000, 0.000000000000000000 ) ) ;
#36 = VERTEX_POINT ( 'NONE', #983 ) ;
#37 = CARTESIAN_POINT ( 'NONE',  ( 212.2332100219122424, -8.428722186132013405, 244.8937570693055079 ) ) ;
#38 = DIRECTION ( 'NONE',  ( 0.000000000000000000, 1.000000000000000000, 0.000000000000000000 ) ) ;
#39 = ADVANCED_FACE ( 'NONE', ( #999 ), #737, .T. ) ;
#40 = EDGE_LOOP ( 'NONE', ( #621 ) ) ;
#41 = PERSON_AND_ORGANIZATION ( #131, #920 ) ;
#42 = EDGE_LOOP ( 'NONE', ( #449, #157, #557, #305 ) ) ;
#43 = DIRECTION ( 'NONE',  ( -1.000000000000000000, 1.011070936131647069E-14, 0.000000000000000000 ) ) ;
#44 = CARTESIAN_POINT ( 'NONE',  ( 207.2332100219122424, -6.428722186132012517, 238.6937570693055193 ) ) ;
#45 = AXIS2_PLACEMENT_3D ( 'NONE', #764, #16, #355 ) ;
#46 = AXIS2_PLACEMENT_3D ( 'NONE', #163, #981, #818 ) ;
#47 = VECTOR ( 'NONE', #603, 1000.000000000000000 ) ;
#48 = ORIENTED_EDGE ( 'NONE', *, *, #330, .F. ) ;
#49 = APPROVAL_DATE_TIME ( #200, #159 ) ;
#50 = VERTEX_POINT ( 'NONE', #1065 ) ;
#51 = LINE ( 'NONE', #393, #202 ) ;
#52 = DIRECTION ( 'NONE',  ( 1.000000000000000000, -5.675212059250460620E-29, -6.153077243955277736E-45 ) ) ;
#53 = VERTEX_POINT ( 'NONE', #165 ) ;
#54 = COORDINATED_UNIVERSAL_TIME_OFFSET ( 9, 0, .AHEAD. ) ;
#55 = ORIENTED_EDGE ( 'NONE', *, *, #619, .T. ) ;
#56 = ADVANCED_FACE ( 'NONE', ( #425 ), #994, .F. ) ;
#57 = DIRECTION ( 'NONE',  ( -0.000000000000000000, -1.111559247063599730E-16, 1.000000000000000000 ) ) ;
#58 = DIRECTION ( 'NONE',  ( -1.000000000000000000, -2.602085213965208275E-15, 0.000000000000000000 ) ) ;
#59 = MANIFOLD_SOLID_BREP ( 'ÄÆ-µ¹Ãâ17', #402 ) ;
#60 = ORIENTED_EDGE ( 'NONE', *, *, #921, .F. ) ;
#61 = EDGE_LOOP ( 'NONE', ( #1068, #466, #580, #481 ) ) ;
#62 = DIRECTION ( 'NONE',  ( 0.000000000000000000, 1.000000000000000000, 0.000000000000000000 ) ) ;
#63 = DIRECTION ( 'NONE',  ( -5.675212059250460620E-29, -1.000000000000000000, -1.111559247063599730E-16 ) ) ;
#64 = ORIENTED_EDGE ( 'NONE', *, *, #602, .F. ) ;
#65 = VECTOR ( 'NONE', #373, 1000.000000000000000 ) ;
#66 = CIRCLE ( 'NONE', #672, 2.999999999999996447 ) ;
#67 = AXIS2_PLACEMENT_3D ( 'NONE', #889, #873, #540 ) ;
#68 = AXIS2_PLACEMENT_3D ( 'NONE', #474, #63, #732 ) ;
#69 = ORIENTED_EDGE ( 'NONE', *, *, #951, .F. ) ;
#70 = CARTESIAN_POINT ( 'NONE',  ( 210.4832100219122708, -8.428722186132013405, 239.8937570693054795 ) ) ;
#71 = EDGE_CURVE ( 'NONE', #567, #53, #903, .T. ) ;
#72 = LINE ( 'NONE', #507, #622 ) ;
#73 = ADVANCED_FACE ( 'NONE', ( #1077 ), #418, .F. ) ;
#74 = CARTESIAN_POINT ( 'NONE',  ( 207.2332100219122424, -8.428722186132011629, 230.4084756950669259 ) ) ;
#75 = ORIENTED_EDGE ( 'NONE', *, *, #504, .F. ) ;
#76 = DIRECTION ( 'NONE',  ( 1.000000000000000000, 0.000000000000000000, 0.000000000000000000 ) ) ;
#77 = DIRECTION ( 'NONE',  ( -5.675212059250460620E-29, -1.000000000000000000, -1.111559247063599730E-16 ) ) ;
#78 = DIRECTION ( 'NONE',  ( 1.000000000000000000, 0.000000000000000000, 0.000000000000000000 ) ) ;
#79 = EDGE_CURVE ( 'NONE', #594, #36, #256, .T. ) ;
#80 = DIRECTION ( 'NONE',  ( 0.000000000000000000, 0.000000000000000000, 1.000000000000000000 ) ) ;
#81 = FACE_OUTER_BOUND ( 'NONE', #615, .T. ) ;
#82 = DIRECTION ( 'NONE',  ( 5.675212059250460620E-29, 1.000000000000000000, 1.111559247063599730E-16 ) ) ;
#83 = AXIS2_PLACEMENT_3D ( 'NONE', #956, #310, #457 ) ;
#84 = CIRCLE ( 'NONE', #346, 1.699999999999979305 ) ;
#85 = DIRECTION ( 'NONE',  ( 0.000000000000000000, -1.111559247063599730E-16, 1.000000000000000000 ) ) ;
#86 = ORIENTED_EDGE ( 'NONE', *, *, #825, .F. ) ;
#87 = CARTESIAN_POINT ( 'NONE',  ( 207.0616371466584269, -8.428722186132009853, 231.0937570693054681 ) ) ;
#88 = EDGE_LOOP ( 'NONE', ( #212, #804, #559, #227 ) ) ;
#89 = VERTEX_POINT ( 'NONE', #443 ) ;
#90 = ADVANCED_FACE ( 'NONE', ( #824, #241 ), #252, .T. ) ;
#91 = CARTESIAN_POINT ( 'NONE',  ( 204.2332100219122424, -6.428722186132019623, 238.6937570693055193 ) ) ;
#92 = DIRECTION ( 'NONE',  ( 0.000000000000000000, 0.000000000000000000, -1.000000000000000000 ) ) ;
#93 = VERTEX_POINT ( 'NONE', #357 ) ;
#94 = ORIENTED_EDGE ( 'NONE', *, *, #319, .T. ) ;
#95 = CARTESIAN_POINT ( 'NONE',  ( 212.2332100219122424, -6.428722186132013405, 242.8937570693054795 ) ) ;
#96 = CARTESIAN_POINT ( 'NONE',  ( 201.2332100219122708, -6.428722186132013405, 239.0937570693054965 ) ) ;
#97 = LINE ( 'NONE', #595, #345 ) ;
#98 = ORIENTED_EDGE ( 'NONE', *, *, #985, .F. ) ;
#99 = CIRCLE ( 'NONE', #9, 1.999999999999996669 ) ;
#100 = CARTESIAN_POINT ( 'NONE',  ( 207.2332100219122424, -8.428722186132011629, 226.8937570693054795 ) ) ;
#101 = ADVANCED_FACE ( 'NONE', ( #413 ), #742, .F. ) ;
#102 = CYLINDRICAL_SURFACE ( 'NONE', #328, 1.999999999999996669 ) ;
#103 = EDGE_CURVE ( 'NONE', #842, #228, #247, .T. ) ;
#104 = VERTEX_POINT ( 'NONE', #422 ) ;
#105 = ORIENTED_EDGE ( 'NONE', *, *, #892, .F. ) ;
#106 = DIRECTION ( 'NONE',  ( -5.675212059250460620E-29, -1.000000000000000000, -1.111559247063599730E-16 ) ) ;
#107 = LINE ( 'NONE', #850, #1035 ) ;
#108 = LINE ( 'NONE', #361, #380 ) ;
#109 = EDGE_LOOP ( 'NONE', ( #958, #803, #1013, #547 ) ) ;
#110 = DIRECTION ( 'NONE',  ( -1.000000000000000000, -0.000000000000000000, -0.000000000000000000 ) ) ;
#111 = LINE ( 'NONE', #436, #745 ) ;
#112 = ADVANCED_FACE ( 'NONE', ( #746, #334 ), #583, .F. ) ;
#113 = MECHANICAL_CONTEXT ( 'NONE', #975, 'mechanical' ) ;
#114 = EDGE_LOOP ( 'NONE', ( #931 ) ) ;
#115 = CIRCLE ( 'NONE', #344, 3.000000000000002665 ) ;
#116 = DIRECTION ( 'NONE',  ( 0.000000000000000000, 1.000000000000000000, 1.111559247063599730E-16 ) ) ;
#117 = AXIS2_PLACEMENT_3D ( 'NONE', #132, #85, #900 ) ;
#118 = AXIS2_PLACEMENT_3D ( 'NONE', #327, #498, #991 ) ;
#119 = CARTESIAN_POINT ( 'NONE',  ( 196.2332100219122708, -8.428722186132011629, 226.8937570693054795 ) ) ;
#120 = APPLICATION_PROTOCOL_DEFINITION ( 'international standard', 'config_control_design', 1994, #713 ) ;
#121 = ORIENTED_EDGE ( 'NONE', *, *, #169, .F. ) ;
#122 = DIRECTION ( 'NONE',  ( 0.000000000000000000, 1.111559247063599730E-16, -1.000000000000000000 ) ) ;
#123 = EDGE_CURVE ( 'NONE', #627, #514, #683, .T. ) ;
#124 = LINE ( 'NONE', #127, #312 ) ;
#125 = ORIENTED_EDGE ( 'NONE', *, *, #123, .F. ) ;
#126 = PLANE ( 'NONE',  #117 ) ;
#127 = CARTESIAN_POINT ( 'NONE',  ( 204.2332100219122424, -6.428722186132011629, 226.8937570693054795 ) ) ;
#128 = VERTEX_POINT ( 'NONE', #522 ) ;
#129 = DATE_TIME_ROLE ( 'creation_date' ) ;
#130 = ORIENTED_EDGE ( 'NONE', *, *, #193, .F. ) ;
#131 = PERSON ( 'UNSPECIFIED', 'UNSPECIFIED', 'UNSPECIFIED', ('UNSPECIFIED'), ('UNSPECIFIED'), ('UNSPECIFIED') ) ;
#132 = CARTESIAN_POINT ( 'NONE',  ( 196.2332100219122708, -8.428722186132009853, 224.8937570693054795 ) ) ;
#133 = PLANE ( 'NONE',  #968 ) ;
#134 = EDGE_CURVE ( 'NONE', #721, #128, #225, .T. ) ;
#135 = VECTOR ( 'NONE', #267, 1000.000000000000000 ) ;
#136 = ORIENTED_EDGE ( 'NONE', *, *, #199, .T. ) ;
#137 = EDGE_CURVE ( 'NONE', #836, #537, #284, .T. ) ;
#138 = SECURITY_CLASSIFICATION ( '', '', #777 ) ;
#139 = ORIENTED_EDGE ( 'NONE', *, *, #332, .F. ) ;
#140 = CARTESIAN_POINT ( 'NONE',  ( 207.2332100219122424, -8.428722186132011629, 231.0937570693054681 ) ) ;
#141 = DIRECTION ( 'NONE',  ( 0.000000000000000000, -1.111559247063599730E-16, 1.000000000000000000 ) ) ;
#142 = VERTEX_POINT ( 'NONE', #197 ) ;
#143 = ORIENTED_EDGE ( 'NONE', *, *, #18, .F. ) ;
#144 = DIRECTION ( 'NONE',  ( 1.000000000000000000, 0.000000000000000000, 0.000000000000000000 ) ) ;
#145 = DIRECTION ( 'NONE',  ( -1.000000000000000000, -0.000000000000000000, -0.000000000000000000 ) ) ;
#146 = ORIENTED_EDGE ( 'NONE', *, *, #477, .T. ) ;
#147 = ORIENTED_EDGE ( 'NONE', *, *, #791, .F. ) ;
#148 = EDGE_CURVE ( 'NONE', #627, #142, #276, .T. ) ;
#149 = DIRECTION ( 'NONE',  ( 0.000000000000000000, 0.000000000000000000, -1.000000000000000000 ) ) ;
#150 = DIRECTION ( 'NONE',  ( 0.000000000000000000, 1.111559247063599730E-16, -1.000000000000000000 ) ) ;
#151 = LINE ( 'NONE', #462, #555 ) ;
#152 = VECTOR ( 'NONE', #623, 1000.000000000000000 ) ;
#153 = AXIS2_PLACEMENT_3D ( 'NONE', #925, #513, #524 ) ;
#154 = AXIS2_PLACEMENT_3D ( 'NONE', #343, #816, #92 ) ;
#155 = AXIS2_PLACEMENT_3D ( 'NONE', #823, #417, #978 ) ;
#156 = CC_DESIGN_SECURITY_CLASSIFICATION ( #138, ( #173 ) ) ;
#157 = ORIENTED_EDGE ( 'NONE', *, *, #263, .F. ) ;
#158 = PLANE ( 'NONE',  #759 ) ;
#159 = APPROVAL ( #213, 'UNSPECIFIED' ) ;
#160 = CYLINDRICAL_SURFACE ( 'NONE', #155, 2.000000000000001776 ) ;
#161 = CARTESIAN_POINT ( 'NONE',  ( 214.2332100219122708, -8.428722186132013405, 242.8937570693054795 ) ) ;
#162 = ORIENTED_EDGE ( 'NONE', *, *, #619, .F. ) ;
#163 = CARTESIAN_POINT ( 'NONE',  ( 212.2332100219122424, -8.428722186132013405, 242.8937570693054795 ) ) ;
#164 = FACE_BOUND ( 'NONE', #755, .T. ) ;
#165 = CARTESIAN_POINT ( 'NONE',  ( 201.4047828971660579, -8.428722186132009853, 224.8937570693054795 ) ) ;
#166 = FACE_OUTER_BOUND ( 'NONE', #926, .T. ) ;
#167 = CARTESIAN_POINT ( 'NONE',  ( 196.2332100219122708, -6.428722186132011629, 226.8937570693054795 ) ) ;
#168 = ORIENTED_EDGE ( 'NONE', *, *, #148, .F. ) ;
#169 = EDGE_CURVE ( 'NONE', #514, #966, #192, .T. ) ;
#170 = AXIS2_PLACEMENT_3D ( 'NONE', #308, #288, #222 ) ;
#171 = AXIS2_PLACEMENT_3D ( 'NONE', #858, #593, #359 ) ;
#172 = LINE ( 'NONE', #1023, #620 ) ;
#173 = PRODUCT_DEFINITION_FORMATION_WITH_SPECIFIED_SOURCE ( 'ANY', '', #649, .NOT_KNOWN. ) ;
#174 = FACE_BOUND ( 'NONE', #372, .T. ) ;
#175 = DIRECTION ( 'NONE',  ( -1.000000000000000000, 0.000000000000000000, 0.000000000000000000 ) ) ;
#176 = CARTESIAN_POINT ( 'NONE',  ( 210.4832100219122708, -6.428722186132012517, 238.1937570693055193 ) ) ;
#177 = DIRECTION ( 'NONE',  ( 0.000000000000000000, 1.000000000000000000, 0.000000000000000000 ) ) ;
#178 = DIRECTION ( 'NONE',  ( 5.675212059250460620E-29, 1.000000000000000000, 1.111559247063599730E-16 ) ) ;
#179 = DIRECTION ( 'NONE',  ( 0.000000000000000000, -1.000000000000000000, -1.111559247063599730E-16 ) ) ;
#180 = EDGE_CURVE ( 'NONE', #274, #368, #111, .T. ) ;
#181 = ORIENTED_EDGE ( 'NONE', *, *, #493, .F. ) ;
#182 = CARTESIAN_POINT ( 'NONE',  ( 197.9832100219122708, -6.428722186132012517, 239.8937570693054795 ) ) ;
#183 = EDGE_CURVE ( 'NONE', #50, #719, #107, .T. ) ;
#184 = CARTESIAN_POINT ( 'NONE',  ( 196.2332100219122708, -8.428722186132013405, 242.8937570693054795 ) ) ;
#185 = CARTESIAN_POINT ( 'NONE',  ( 210.4832100219122708, -8.428722186132013405, 238.1937570693055193 ) ) ;
#186 = ORIENTED_EDGE ( 'NONE', *, *, #533, .F. ) ;
#187 = CARTESIAN_POINT ( 'NONE',  ( 214.2332100219122708, -8.428722186132013405, 242.8937570693054795 ) ) ;
#188 = ADVANCED_FACE ( 'NONE', ( #1011, #598 ), #102, .F. ) ;
#189 = DIRECTION ( 'NONE',  ( 0.000000000000000000, 1.000000000000000000, 0.000000000000000000 ) ) ;
#190 = CARTESIAN_POINT ( 'NONE',  ( 210.4832100219122708, -6.428722186132011629, 228.1937570693054909 ) ) ;
#191 = ORIENTED_EDGE ( 'NONE', *, *, #791, .T. ) ;
#192 = LINE ( 'NONE', #96, #135 ) ;
#193 = EDGE_CURVE ( 'NONE', #836, #427, #845, .T. ) ;
#194 = CALENDAR_DATE ( 2023, 21, 2 ) ;
#195 = EDGE_LOOP ( 'NONE', ( #869 ) ) ;
#196 = CARTESIAN_POINT ( 'NONE',  ( 194.2332100219122708, -8.428722186132011629, 226.8937570693054795 ) ) ;
#197 = CARTESIAN_POINT ( 'NONE',  ( 201.2332100219122708, -8.428722186132013405, 230.6937570693054909 ) ) ;
#198 = VECTOR ( 'NONE', #348, 1000.000000000000000 ) ;
#199 = EDGE_CURVE ( 'NONE', #505, #505, #99, .T. ) ;
#200 = DATE_AND_TIME ( #942, #31 ) ;
#201 = ORIENTED_EDGE ( 'NONE', *, *, #646, .T. ) ;
#202 = VECTOR ( 'NONE', #959, 1000.000000000000000 ) ;
#203 = CARTESIAN_POINT ( 'NONE',  ( 204.2332100219122424, -9.428722186132013405, 244.8937570693055079 ) ) ;
#204 = VECTOR ( 'NONE', #433, 1000.000000000000000 ) ;
#205 = VECTOR ( 'NONE', #798, 1000.000000000000000 ) ;
#206 = DIRECTION ( 'NONE',  ( -1.000000000000000000, 5.694494538458664758E-29, -1.734723475976805517E-15 ) ) ;
#207 = VECTOR ( 'NONE', #815, 1000.000000000000000 ) ;
#208 = COORDINATED_UNIVERSAL_TIME_OFFSET ( 9, 0, .AHEAD. ) ;
#209 = ORIENTED_EDGE ( 'NONE', *, *, #281, .T. ) ;
#210 = LINE ( 'NONE', #722, #896 ) ;
#211 = CARTESIAN_POINT ( 'NONE',  ( 207.2332100219122424, -8.428722186132011629, 230.4084756950669259 ) ) ;
#212 = ORIENTED_EDGE ( 'NONE', *, *, #570, .T. ) ;
#213 = APPROVAL_STATUS ( 'not_yet_approved' ) ;
#214 = ORIENTED_EDGE ( 'NONE', *, *, #456, .F. ) ;
#215 = FACE_OUTER_BOUND ( 'NONE', #254, .T. ) ;
#216 = ADVANCED_FACE ( 'NONE', ( #370, #512, #696 ), #440, .F. ) ;
#217 = ADVANCED_FACE ( 'NONE', ( #446, #360 ), #929, .T. ) ;
#218 = CARTESIAN_POINT ( 'NONE',  ( 207.0616371466584269, -8.428722186132004524, 238.6937570693055193 ) ) ;
#219 = EDGE_LOOP ( 'NONE', ( #411 ) ) ;
#220 = DATE_AND_TIME ( #301, #12 ) ;
#221 = VERTEX_POINT ( 'NONE', #688 ) ;
#222 = DIRECTION ( 'NONE',  ( 0.000000000000000000, 0.000000000000000000, -1.000000000000000000 ) ) ;
#223 = DIRECTION ( 'NONE',  ( 0.000000000000000000, 0.000000000000000000, -1.000000000000000000 ) ) ;
#224 = VECTOR ( 'NONE', #110, 1000.000000000000000 ) ;
#225 = CIRCLE ( 'NONE', #381, 2.000000000000001776 ) ;
#226 = AXIS2_PLACEMENT_3D ( 'NONE', #1014, #923, #116 ) ;
#227 = ORIENTED_EDGE ( 'NONE', *, *, #838, .F. ) ;
#228 = VERTEX_POINT ( 'NONE', #758 ) ;
#229 = CARTESIAN_POINT ( 'NONE',  ( 210.4832100219122708, -8.428722186132011629, 229.8937570693054795 ) ) ;
#230 = DIRECTION ( 'NONE',  ( -0.000000000000000000, -0.000000000000000000, -1.000000000000000000 ) ) ;
#231 = EDGE_LOOP ( 'NONE', ( #763, #378, #278, #318 ) ) ;
#232 = EDGE_CURVE ( 'NONE', #50, #677, #765, .T. ) ;
#233 = ORIENTED_EDGE ( 'NONE', *, *, #183, .T. ) ;
#234 = CARTESIAN_POINT ( 'NONE',  ( 194.2332100219122708, -6.428722186132013405, 242.8937570693054795 ) ) ;
#235 = CARTESIAN_POINT ( 'NONE',  ( 201.4047828971660579, -8.428722186132013405, 230.6937570693054909 ) ) ;
#236 = EDGE_LOOP ( 'NONE', ( #575, #1018, #852, #237 ) ) ;
#237 = ORIENTED_EDGE ( 'NONE', *, *, #414, .T. ) ;
#238 = ADVANCED_FACE ( 'NONE', ( #351 ), #1021, .T. ) ;
#239 = PLANE ( 'NONE',  #572 ) ;
#240 = DIRECTION ( 'NONE',  ( 0.000000000000000000, -1.000000000000000000, 0.000000000000000000 ) ) ;
#241 = FACE_OUTER_BOUND ( 'NONE', #195, .T. ) ;
#242 =( GEOMETRIC_REPRESENTATION_CONTEXT ( 3 ) GLOBAL_UNCERTAINTY_ASSIGNED_CONTEXT ( ( #674 ) ) GLOBAL_UNIT_ASSIGNED_CONTEXT ( ( #426, #1049, #306 ) ) REPRESENTATION_CONTEXT ( 'NONE', 'WORKASPACE' ) );
#243 = VECTOR ( 'NONE', #508, 1000.000000000000000 ) ;
#244 = EDGE_LOOP ( 'NONE', ( #480 ) ) ;
#245 = DIRECTION ( 'NONE',  ( 0.000000000000000000, 0.000000000000000000, -1.000000000000000000 ) ) ;
#246 = CARTESIAN_POINT ( 'NONE',  ( 194.2332100219122708, -8.428722186132013405, 242.8937570693054795 ) ) ;
#247 = LINE ( 'NONE', #661, #1073 ) ;
#248 = FACE_OUTER_BOUND ( 'NONE', #724, .T. ) ;
#249 = ADVANCED_FACE ( 'NONE', ( #280 ), #612, .T. ) ;
#250 = DIRECTION ( 'NONE',  ( 0.000000000000000000, 1.111559247063599976E-16, -1.000000000000000000 ) ) ;
#251 = EDGE_CURVE ( 'NONE', #772, #962, #946, .T. ) ;
#252 = CYLINDRICAL_SURFACE ( 'NONE', #431, 1.599999999999990319 ) ;
#253 = CARTESIAN_POINT ( 'NONE',  ( 204.2332100219122424, -9.428722186132011629, 224.8937570693054795 ) ) ;
#254 = EDGE_LOOP ( 'NONE', ( #562, #191, #525, #1009 ) ) ;
#255 = CARTESIAN_POINT ( 'NONE',  ( 201.2332100219122708, -6.428722186132013405, 239.0937570693054965 ) ) ;
#256 = LINE ( 'NONE', #161, #949 ) ;
#257 = AXIS2_PLACEMENT_3D ( 'NONE', #275, #597, #435 ) ;
#258 = AXIS2_PLACEMENT_3D ( 'NONE', #316, #584, #822 ) ;
#259 = AXIS2_PLACEMENT_3D ( 'NONE', #469, #802, #223 ) ;
#260 = VERTEX_POINT ( 'NONE', #667 ) ;
#261 = DIRECTION ( 'NONE',  ( -5.675212059250460620E-29, -1.000000000000000000, -1.111559247063599730E-16 ) ) ;
#262 = ORIENTED_EDGE ( 'NONE', *, *, #570, .F. ) ;
#263 = EDGE_CURVE ( 'NONE', #495, #796, #151, .T. ) ;
#264 = DIRECTION ( 'NONE',  ( -1.734723475976805517E-15, -1.084202172485503448E-16, 1.000000000000000000 ) ) ;
#265 = ORIENTED_EDGE ( 'NONE', *, *, #251, .F. ) ;
#266 = CARTESIAN_POINT ( 'NONE',  ( 197.9832100219122708, -8.428722186132011629, 229.8937570693054795 ) ) ;
#267 = DIRECTION ( 'NONE',  ( 1.000000000000000000, -1.734723475976821886E-15, 0.000000000000000000 ) ) ;
#268 = VERTEX_POINT ( 'NONE', #1 ) ;
#269 = VERTEX_POINT ( 'NONE', #868 ) ;
#270 = EDGE_CURVE ( 'NONE', #837, #837, #84, .T. ) ;
#271 = FACE_OUTER_BOUND ( 'NONE', #434, .T. ) ;
#272 = DIRECTION ( 'NONE',  ( -0.000000000000000000, 1.111559247063599730E-16, -1.000000000000000000 ) ) ;
#273 = CARTESIAN_POINT ( 'NONE',  ( 204.2332100219122424, -7.828722186132022642, 231.0937570693054681 ) ) ;
#274 = VERTEX_POINT ( 'NONE', #400 ) ;
#275 = CARTESIAN_POINT ( 'NONE',  ( 212.2332100219122708, -6.428722186132011629, 226.8937570693054795 ) ) ;
#276 = LINE ( 'NONE', #781, #862 ) ;
#277 = CARTESIAN_POINT ( 'NONE',  ( 204.2332100219122424, -6.428722186132011629, 226.8937570693054795 ) ) ;
#278 = ORIENTED_EDGE ( 'NONE', *, *, #232, .T. ) ;
#279 = DIRECTION ( 'NONE',  ( 1.000000000000000000, 0.000000000000000000, 0.000000000000000000 ) ) ;
#280 = FACE_OUTER_BOUND ( 'NONE', #88, .T. ) ;
#281 = EDGE_CURVE ( 'NONE', #274, #495, #617, .T. ) ;
#282 = ORIENTED_EDGE ( 'NONE', *, *, #927, .F. ) ;
#283 = CARTESIAN_POINT ( 'NONE',  ( 212.2332100219122424, -8.428722186132011629, 224.8937570693054795 ) ) ;
#284 = LINE ( 'NONE', #453, #728 ) ;
#285 = CALENDAR_DATE ( 2023, 21, 2 ) ;
#286 = ORIENTED_EDGE ( 'NONE', *, *, #974, .T. ) ;
#287 = AXIS2_PLACEMENT_3D ( 'NONE', #955, #797, #1051 ) ;
#288 = DIRECTION ( 'NONE',  ( -5.675212059250460620E-29, -1.000000000000000000, -1.111559247063599730E-16 ) ) ;
#289 = CIRCLE ( 'NONE', #258, 1.699999999999979305 ) ;
#290 = AXIS2_PLACEMENT_3D ( 'NONE', #74, #408, #4 ) ;
#291 = DIRECTION ( 'NONE',  ( 0.000000000000000000, 1.000000000000000000, 0.000000000000000000 ) ) ;
#292 = CIRCLE ( 'NONE', #432, 1.599999999999990319 ) ;
#293 = ORIENTED_EDGE ( 'NONE', *, *, #780, .T. ) ;
#294 = EDGE_CURVE ( 'NONE', #476, #836, #691, .T. ) ;
#295 = PERSON_AND_ORGANIZATION_ROLE ( 'design_supplier' ) ;
#296 = EDGE_LOOP ( 'NONE', ( #848 ) ) ;
#297 = ADVANCED_FACE ( 'NONE', ( #965 ), #972, .F. ) ;
#298 = FACE_BOUND ( 'NONE', #1036, .T. ) ;
#299 = DIRECTION ( 'NONE',  ( 0.000000000000000000, 1.111559247063599730E-16, -1.000000000000000000 ) ) ;
#300 = ORIENTED_EDGE ( 'NONE', *, *, #701, .F. ) ;
#301 = CALENDAR_DATE ( 2023, 21, 2 ) ;
#302 = ORIENTED_EDGE ( 'NONE', *, *, #1020, .F. ) ;
#303 = LINE ( 'NONE', #283, #65 ) ;
#304 = DIRECTION ( 'NONE',  ( -1.734723475976805517E-15, 0.000000000000000000, 1.000000000000000000 ) ) ;
#305 = ORIENTED_EDGE ( 'NONE', *, *, #103, .T. ) ;
#306 =( NAMED_UNIT ( * ) SI_UNIT ( $, .STERADIAN. ) SOLID_ANGLE_UNIT ( ) );
#307 = EDGE_LOOP ( 'NONE', ( #136 ) ) ;
#308 = CARTESIAN_POINT ( 'NONE',  ( 196.2332100219122708, -8.428722186132013405, 242.8937570693054795 ) ) ;
#309 = ADVANCED_FACE ( 'NONE', ( #388 ), #133, .F. ) ;
#310 = DIRECTION ( 'NONE',  ( 0.000000000000000000, 1.111559247063599730E-16, -1.000000000000000000 ) ) ;
#311 = AXIS2_PLACEMENT_3D ( 'NONE', #229, #779, #548 ) ;
#312 = VECTOR ( 'NONE', #141, 1000.000000000000000 ) ;
#313 = VECTOR ( 'NONE', #2, 1000.000000000000000 ) ;
#314 = EDGE_LOOP ( 'NONE', ( #768 ) ) ;
#315 = ORIENTED_EDGE ( 'NONE', *, *, #193, .T. ) ;
#316 = CARTESIAN_POINT ( 'NONE',  ( 210.4832100219122708, -6.428722186132012517, 239.8937570693054795 ) ) ;
#317 = CARTESIAN_POINT ( 'NONE',  ( 204.2332100219122424, -9.428722186132013405, 239.0937570693054965 ) ) ;
#318 = ORIENTED_EDGE ( 'NONE', *, *, #814, .F. ) ;
#319 = EDGE_CURVE ( 'NONE', #89, #89, #828, .T. ) ;
#320 = ORIENTED_EDGE ( 'NONE', *, *, #441, .F. ) ;
#321 = DIRECTION ( 'NONE',  ( 1.000000000000000000, 0.000000000000000000, -0.000000000000000000 ) ) ;
#322 = DIRECTION ( 'NONE',  ( -1.000000000000000000, 1.445602896647351736E-15, 0.000000000000000000 ) ) ;
#323 = CARTESIAN_POINT ( 'NONE',  ( 196.2332100219122708, -8.428722186132013405, 244.8937570693055079 ) ) ;
#324 = ORIENTED_EDGE ( 'NONE', *, *, #695, .T. ) ;
#325 = DIRECTION ( 'NONE',  ( 5.675212059250460620E-29, 1.000000000000000000, 1.111559247063599730E-16 ) ) ;
#326 = DIRECTION ( 'NONE',  ( 0.000000000000000000, 1.000000000000000000, 0.000000000000000000 ) ) ;
#327 = CARTESIAN_POINT ( 'NONE',  ( 196.2332100219122708, -8.428722186132013405, 244.8937570693055079 ) ) ;
#328 = AXIS2_PLACEMENT_3D ( 'NONE', #29, #272, #516 ) ;
#329 = CC_DESIGN_APPROVAL ( #1052, ( #173 ) ) ;
#330 = EDGE_CURVE ( 'NONE', #771, #771, #638, .T. ) ;
#331 = LINE ( 'NONE', #234, #668 ) ;
#332 = EDGE_CURVE ( 'NONE', #966, #772, #124, .T. ) ;
#333 = CARTESIAN_POINT ( 'NONE',  ( 201.4047828971660579, -8.428722186132015182, 253.3790384435440330 ) ) ;
#334 = FACE_OUTER_BOUND ( 'NONE', #403, .T. ) ;
#335 = CARTESIAN_POINT ( 'NONE',  ( 204.2332100219122424, -9.428722186132015182, 250.5506113187978485 ) ) ;
#336 = ORIENTED_EDGE ( 'NONE', *, *, #695, .F. ) ;
#337 = DIRECTION ( 'NONE',  ( -5.675212059250460620E-29, -1.000000000000000000, -1.111559247063599730E-16 ) ) ;
#338 = CARTESIAN_POINT ( 'NONE',  ( 201.4047828971660579, -8.428722186132015182, 253.3790384435440330 ) ) ;
#339 = CARTESIAN_POINT ( 'NONE',  ( 205.8332100219122367, -9.428722186132011629, 244.8937570693055079 ) ) ;
#340 = DIRECTION ( 'NONE',  ( 0.000000000000000000, 0.000000000000000000, 1.000000000000000000 ) ) ;
#341 = AXIS2_PLACEMENT_3D ( 'NONE', #335, #499, #419 ) ;
#342 = ADVANCED_FACE ( 'NONE', ( #640 ), #718, .T. ) ;
#343 = CARTESIAN_POINT ( 'NONE',  ( 197.9832100219122708, -8.428722186132013405, 239.8937570693054795 ) ) ;
#344 = AXIS2_PLACEMENT_3D ( 'NONE', #639, #801, #144 ) ;
#345 = VECTOR ( 'NONE', #609, 1000.000000000000000 ) ;
#346 = AXIS2_PLACEMENT_3D ( 'NONE', #1034, #550, #374 ) ;
#347 = AXIS2_PLACEMENT_3D ( 'NONE', #586, #565, #150 ) ;
#348 = DIRECTION ( 'NONE',  ( 0.000000000000000000, 1.084202172485503448E-16, -1.000000000000000000 ) ) ;
#349 = ORIENTED_EDGE ( 'NONE', *, *, #927, .T. ) ;
#350 = CARTESIAN_POINT ( 'NONE',  ( 204.2332100219122424, -9.428722186132015182, 253.3790384435440330 ) ) ;
#351 = FACE_OUTER_BOUND ( 'NONE', #909, .T. ) ;
#352 = CC_DESIGN_DATE_AND_TIME_ASSIGNMENT ( #367, #1040, ( #138 ) ) ;
#353 = LINE ( 'NONE', #277, #204 ) ;
#354 = VERTEX_POINT ( 'NONE', #479 ) ;
#355 = DIRECTION ( 'NONE',  ( 0.000000000000000000, 0.000000000000000000, -1.000000000000000000 ) ) ;
#356 = DIRECTION ( 'NONE',  ( -0.000000000000000000, 1.111559247063599730E-16, -1.000000000000000000 ) ) ;
#357 = CARTESIAN_POINT ( 'NONE',  ( 204.2332100219122424, -7.828722186132020866, 224.8937570693054795 ) ) ;
#358 = ORIENTED_EDGE ( 'NONE', *, *, #766, .T. ) ;
#359 = DIRECTION ( 'NONE',  ( 0.000000000000000000, 0.000000000000000000, 1.000000000000000000 ) ) ;
#360 = FACE_OUTER_BOUND ( 'NONE', #1048, .T. ) ;
#361 = CARTESIAN_POINT ( 'NONE',  ( 207.0616371466584269, -8.428722186132004524, 238.6937570693055193 ) ) ;
#362 = ORIENTED_EDGE ( 'NONE', *, *, #137, .T. ) ;
#363 = VECTOR ( 'NONE', #322, 1000.000000000000000 ) ;
#364 = PLANE ( 'NONE',  #915 ) ;
#365 = EDGE_CURVE ( 'NONE', #800, #962, #712, .T. ) ;
#366 = DIRECTION ( 'NONE',  ( 0.000000000000000000, 0.000000000000000000, 1.000000000000000000 ) ) ;
#367 = DATE_AND_TIME ( #32, #452 ) ;
#368 = VERTEX_POINT ( 'NONE', #44 ) ;
#369 = CARTESIAN_POINT ( 'NONE',  ( 214.2332100219122708, -8.428722186132011629, 226.8937570693054795 ) ) ;
#370 = FACE_OUTER_BOUND ( 'NONE', #1062, .T. ) ;
#371 = PERSON_AND_ORGANIZATION ( #131, #920 ) ;
#372 = EDGE_LOOP ( 'NONE', ( #336 ) ) ;
#373 = DIRECTION ( 'NONE',  ( 5.675212059250460620E-29, 1.000000000000000000, 1.111559247063599730E-16 ) ) ;
#374 = DIRECTION ( 'NONE',  ( 0.000000000000000000, 0.000000000000000000, -1.000000000000000000 ) ) ;
#375 = VERTEX_POINT ( 'NONE', #878 ) ;
#376 = EDGE_CURVE ( 'NONE', #104, #104, #730, .T. ) ;
#377 = APPROVAL_DATE_TIME ( #220, #738 ) ;
#378 = ORIENTED_EDGE ( 'NONE', *, *, #183, .F. ) ;
#379 = PLANE ( 'NONE',  #1056 ) ;
#380 = VECTOR ( 'NONE', #692, 1000.000000000000000 ) ;
#381 = AXIS2_PLACEMENT_3D ( 'NONE', #119, #1015, #527 ) ;
#382 = PLANE ( 'NONE',  #1057 ) ;
#383 = ORIENTED_EDGE ( 'NONE', *, *, #826, .T. ) ;
#384 = ADVANCED_FACE ( 'NONE', ( #784, #624 ), #382, .T. ) ;
#385 = SHAPE_DEFINITION_REPRESENTATION ( #404, #549 ) ;
#386 = ORIENTED_EDGE ( 'NONE', *, *, #456, .T. ) ;
#387 = CARTESIAN_POINT ( 'NONE',  ( 196.2332100219122708, -8.428722186132009853, 224.8937570693054795 ) ) ;
#388 = FACE_OUTER_BOUND ( 'NONE', #1045, .T. ) ;
#389 = ORIENTED_EDGE ( 'NONE', *, *, #731, .F. ) ;
#390 = APPROVAL_DATE_TIME ( #708, #1052 ) ;
#391 = VERTEX_POINT ( 'NONE', #218 ) ;
#392 = EDGE_CURVE ( 'NONE', #962, #529, #901, .T. ) ;
#393 = CARTESIAN_POINT ( 'NONE',  ( 214.2332100219122708, -8.428722186132013405, 242.8937570693054795 ) ) ;
#394 = DIRECTION ( 'NONE',  ( 0.000000000000000000, 1.111559247063599976E-16, -1.000000000000000000 ) ) ;
#395 = ORIENTED_EDGE ( 'NONE', *, *, #376, .F. ) ;
#396 = ORIENTED_EDGE ( 'NONE', *, *, #1079, .F. ) ;
#397 = CARTESIAN_POINT ( 'NONE',  ( 204.2332100219122424, -9.428722186132015182, 239.0937570693054965 ) ) ;
#398 = AXIS2_PLACEMENT_3D ( 'NONE', #711, #122, #1042 ) ;
#399 = CC_DESIGN_PERSON_AND_ORGANIZATION_ASSIGNMENT ( #614, #447, ( #649 ) ) ;
#400 = CARTESIAN_POINT ( 'NONE',  ( 207.2332100219122424, -8.428722186132011629, 238.6937570693055193 ) ) ;
#401 = AXIS2_PLACEMENT_3D ( 'NONE', #743, #914, #245 ) ;
#402 = CLOSED_SHELL ( 'NONE', ( #633, #988, #249, #188, #309, #680, #613, #568, #238, #906, #960, #591, #760, #429, #1030, #665 ) ) ;
#403 = EDGE_LOOP ( 'NONE', ( #652 ) ) ;
#404 = PRODUCT_DEFINITION_SHAPE ( 'NONE', 'NONE',  #634 ) ;
#405 = ORIENTED_EDGE ( 'NONE', *, *, #757, .T. ) ;
#406 = LINE ( 'NONE', #478, #810 ) ;
#407 = CARTESIAN_POINT ( 'NONE',  ( 204.2332100219122424, -6.428722186132016070, 230.6937570693054909 ) ) ;
#408 = DIRECTION ( 'NONE',  ( 1.000000000000000000, -0.000000000000000000, 0.000000000000000000 ) ) ;
#409 = EDGE_LOOP ( 'NONE', ( #395 ) ) ;
#410 = DIRECTION ( 'NONE',  ( 0.000000000000000000, 0.000000000000000000, -1.000000000000000000 ) ) ;
#411 = ORIENTED_EDGE ( 'NONE', *, *, #602, .T. ) ;
#412 = DIRECTION ( 'NONE',  ( 5.675212059250460620E-29, 1.000000000000000000, 1.111559247063599730E-16 ) ) ;
#413 = FACE_OUTER_BOUND ( 'NONE', #42, .T. ) ;
#414 = EDGE_CURVE ( 'NONE', #368, #537, #635, .T. ) ;
#415 = ADVANCED_FACE ( 'NONE', ( #81, #164, #174 ), #894, .T. ) ;
#416 = DIRECTION ( 'NONE',  ( 1.000000000000000000, 0.000000000000000000, 0.000000000000000000 ) ) ;
#417 = DIRECTION ( 'NONE',  ( 5.675212059250460620E-29, 1.000000000000000000, 1.111559247063599730E-16 ) ) ;
#418 = PLANE ( 'NONE',  #468 ) ;
#419 = DIRECTION ( 'NONE',  ( 0.000000000000000000, 1.000000000000000000, 0.000000000000000000 ) ) ;
#420 = CYLINDRICAL_SURFACE ( 'NONE', #538, 2.000000000000001776 ) ;
#421 = LINE ( 'NONE', #750, #589 ) ;
#422 = CARTESIAN_POINT ( 'NONE',  ( 197.9832100219122708, -6.428722186132011629, 228.1937570693054909 ) ) ;
#423 = EDGE_CURVE ( 'NONE', #427, #50, #72, .T. ) ;
#424 = CARTESIAN_POINT ( 'NONE',  ( 196.2332100219122708, -6.428722186132010741, 224.8937570693054795 ) ) ;
#425 = FACE_OUTER_BOUND ( 'NONE', #1027, .T. ) ;
#426 =( LENGTH_UNIT ( ) NAMED_UNIT ( * ) SI_UNIT ( .MILLI., .METRE. ) );
#427 = VERTEX_POINT ( 'NONE', #741 ) ;
#428 = DIRECTION ( 'NONE',  ( 5.675212059250460620E-29, 1.000000000000000000, 1.111559247063599730E-16 ) ) ;
#429 = ADVANCED_FACE ( 'NONE', ( #582 ), #990, .F. ) ;
#430 = DIRECTION ( 'NONE',  ( 0.000000000000000000, 1.000000000000000000, 0.000000000000000000 ) ) ;
#431 = AXIS2_PLACEMENT_3D ( 'NONE', #494, #820, #78 ) ;
#432 = AXIS2_PLACEMENT_3D ( 'NONE', #749, #932, #279 ) ;
#433 = DIRECTION ( 'NONE',  ( 0.000000000000000000, -1.111559247063599730E-16, 1.000000000000000000 ) ) ;
#434 = EDGE_LOOP ( 'NONE', ( #64 ) ) ;
#435 = DIRECTION ( 'NONE',  ( 0.000000000000000000, 0.000000000000000000, -1.000000000000000000 ) ) ;
#436 = CARTESIAN_POINT ( 'NONE',  ( 207.2332100219122424, -8.428722186132011629, 238.6937570693055193 ) ) ;
#437 = VERTEX_POINT ( 'NONE', #1000 ) ;
#438 = EDGE_LOOP ( 'NONE', ( #25, #125, #471, #75 ) ) ;
#439 = FACE_OUTER_BOUND ( 'NONE', #40, .T. ) ;
#440 = PLANE ( 'NONE',  #1003 ) ;
#441 = EDGE_CURVE ( 'NONE', #809, #529, #1080, .T. ) ;
#442 = CC_DESIGN_DATE_AND_TIME_ASSIGNMENT ( #786, #129, ( #634 ) ) ;
#443 = CARTESIAN_POINT ( 'NONE',  ( 205.8332100219122367, -9.428722186132011629, 238.6937570693055193 ) ) ;
#444 = ORIENTED_EDGE ( 'NONE', *, *, #169, .T. ) ;
#445 = CARTESIAN_POINT ( 'NONE',  ( 207.2332100219122424, -8.428722186132011629, 224.8937570693054795 ) ) ;
#446 = FACE_OUTER_BOUND ( 'NONE', #987, .T. ) ;
#447 = PERSON_AND_ORGANIZATION_ROLE ( 'design_owner' ) ;
#448 = AXIS2_PLACEMENT_3D ( 'NONE', #753, #919, #489 ) ;
#449 = ORIENTED_EDGE ( 'NONE', *, *, #701, .T. ) ;
#450 = AXIS2_PLACEMENT_3D ( 'NONE', #350, #773, #177 ) ;
#451 = CYLINDRICAL_SURFACE ( 'NONE', #450, 2.999999999999993783 ) ;
#452 = LOCAL_TIME ( 13, 6, 28.00000000000000000, #697 ) ;
#453 = CARTESIAN_POINT ( 'NONE',  ( 204.2332100219122424, -6.428722186132011629, 226.8937570693054795 ) ) ;
#454 = EDGE_LOOP ( 'NONE', ( #33 ) ) ;
#455 = DIRECTION ( 'NONE',  ( 0.000000000000000000, 1.000000000000000000, 0.000000000000000000 ) ) ;
#456 = EDGE_CURVE ( 'NONE', #221, #800, #1070, .T. ) ;
#457 = DIRECTION ( 'NONE',  ( 0.000000000000000000, 1.000000000000000000, 0.000000000000000000 ) ) ;
#458 = ORIENTED_EDGE ( 'NONE', *, *, #1072, .F. ) ;
#459 = COORDINATED_UNIVERSAL_TIME_OFFSET ( 9, 0, .AHEAD. ) ;
#460 = VERTEX_POINT ( 'NONE', #424 ) ;
#461 = DIRECTION ( 'NONE',  ( 1.000000000000000000, 0.000000000000000000, 0.000000000000000000 ) ) ;
#462 = CARTESIAN_POINT ( 'NONE',  ( 207.2332100219122424, -8.428722186132011629, 244.8937570693055079 ) ) ;
#463 = EDGE_CURVE ( 'NONE', #710, #269, #752, .T. ) ;
#464 = ORIENTED_EDGE ( 'NONE', *, *, #414, .F. ) ;
#465 = APPLICATION_PROTOCOL_DEFINITION ( 'international standard', 'config_control_design', 1994, #975 ) ;
#466 = ORIENTED_EDGE ( 'NONE', *, *, #79, .F. ) ;
#467 = CARTESIAN_POINT ( 'NONE',  ( 204.2332100219122424, -9.428722186132013405, 238.6937570693055193 ) ) ;
#468 = AXIS2_PLACEMENT_3D ( 'NONE', #323, #651, #666 ) ;
#469 = CARTESIAN_POINT ( 'NONE',  ( 196.2332100219122708, -6.428722186132013405, 242.8937570693054795 ) ) ;
#470 = APPROVAL_PERSON_ORGANIZATION ( #371, #738, #702 ) ;
#471 = ORIENTED_EDGE ( 'NONE', *, *, #148, .T. ) ;
#472 = PERSON_AND_ORGANIZATION_ROLE ( 'creator' ) ;
#473 = ORIENTED_EDGE ( 'NONE', *, *, #263, .T. ) ;
#474 = CARTESIAN_POINT ( 'NONE',  ( 197.9832100219122708, -6.428722186132011629, 229.8937570693054795 ) ) ;
#475 = ORIENTED_EDGE ( 'NONE', *, *, #793, .F. ) ;
#476 = VERTEX_POINT ( 'NONE', #87 ) ;
#477 = EDGE_CURVE ( 'NONE', #375, #460, #863, .T. ) ;
#478 = CARTESIAN_POINT ( 'NONE',  ( 214.2332100219122708, -8.428722186132011629, 226.8937570693054795 ) ) ;
#479 = CARTESIAN_POINT ( 'NONE',  ( 201.4047828971660579, -8.428722186131997418, 239.0937570693054965 ) ) ;
#480 = ORIENTED_EDGE ( 'NONE', *, *, #793, .T. ) ;
#481 = ORIENTED_EDGE ( 'NONE', *, *, #954, .T. ) ;
#482 = AXIS2_PLACEMENT_3D ( 'NONE', #70, #581, #149 ) ;
#483 = PLANE ( 'NONE',  #486 ) ;
#484 = CIRCLE ( 'NONE', #967, 2.000000000000001776 ) ;
#485 = CARTESIAN_POINT ( 'NONE',  ( 196.2332100219122708, -8.428722186132013405, 244.8937570693055079 ) ) ;
#486 = AXIS2_PLACEMENT_3D ( 'NONE', #812, #577, #1059 ) ;
#487 = AXIS2_PLACEMENT_3D ( 'NONE', #1081, #671, #588 ) ;
#488 = CIRCLE ( 'NONE', #11, 1.999999999999996669 ) ;
#489 = DIRECTION ( 'NONE',  ( 1.000000000000000000, 0.000000000000000000, 0.000000000000000000 ) ) ;
#490 = ORIENTED_EDGE ( 'NONE', *, *, #504, .T. ) ;
#491 = FACE_BOUND ( 'NONE', #631, .T. ) ;
#492 = LINE ( 'NONE', #819, #813 ) ;
#493 = EDGE_CURVE ( 'NONE', #268, #268, #488, .T. ) ;
#494 = CARTESIAN_POINT ( 'NONE',  ( 204.2332100219122424, -9.428722186132011629, 233.6025882447624440 ) ) ;
#495 = VERTEX_POINT ( 'NONE', #1064 ) ;
#496 = CARTESIAN_POINT ( 'NONE',  ( 196.2332100219122708, -8.428722186132011629, 226.8937570693054795 ) ) ;
#497 = DIRECTION ( 'NONE',  ( 0.000000000000000000, -1.000000000000000000, 0.000000000000000000 ) ) ;
#498 = DIRECTION ( 'NONE',  ( 0.000000000000000000, 1.111559247063599730E-16, -1.000000000000000000 ) ) ;
#499 = DIRECTION ( 'NONE',  ( -0.000000000000000000, 1.111559247063599730E-16, -1.000000000000000000 ) ) ;
#500 = ORIENTED_EDGE ( 'NONE', *, *, #392, .T. ) ;
#501 = DIRECTION ( 'NONE',  ( -0.000000000000000000, 1.111559247063599730E-16, -1.000000000000000000 ) ) ;
#502 = ORIENTED_EDGE ( 'NONE', *, *, #521, .T. ) ;
#503 = AXIS2_PLACEMENT_3D ( 'NONE', #182, #106, #607 ) ;
#504 = EDGE_CURVE ( 'NONE', #269, #142, #655, .T. ) ;
#505 = VERTEX_POINT ( 'NONE', #684 ) ;
#506 = ORIENTED_EDGE ( 'NONE', *, *, #103, .F. ) ;
#507 = CARTESIAN_POINT ( 'NONE',  ( 207.2332100219122424, -6.428722186132012517, 239.3790384435440615 ) ) ;
#508 = DIRECTION ( 'NONE',  ( 0.000000000000000000, 1.111559247063599976E-16, -1.000000000000000000 ) ) ;
#509 = PLANE ( 'NONE',  #153 ) ;
#510 = CC_DESIGN_PERSON_AND_ORGANIZATION_ASSIGNMENT ( #41, #856, ( #138 ) ) ;
#511 = CYLINDRICAL_SURFACE ( 'NONE', #775, 1.699999999999979305 ) ;
#512 = FACE_BOUND ( 'NONE', #454, .T. ) ;
#513 = DIRECTION ( 'NONE',  ( 0.000000000000000000, 1.111559247063599730E-16, -1.000000000000000000 ) ) ;
#514 = VERTEX_POINT ( 'NONE', #255 ) ;
#515 = FACE_BOUND ( 'NONE', #114, .T. ) ;
#516 = DIRECTION ( 'NONE',  ( 0.000000000000000000, 1.000000000000000000, 0.000000000000000000 ) ) ;
#517 = AXIS2_PLACEMENT_3D ( 'NONE', #881, #534, #864 ) ;
#518 = FACE_OUTER_BOUND ( 'NONE', #551, .T. ) ;
#519 = EDGE_LOOP ( 'NONE', ( #94 ) ) ;
#520 = LINE ( 'NONE', #935, #224 ) ;
#521 = EDGE_CURVE ( 'NONE', #792, #799, #1037, .T. ) ;
#522 = CARTESIAN_POINT ( 'NONE',  ( 196.2332100219122708, -8.428722186132009853, 224.8937570693054795 ) ) ;
#523 = EDGE_CURVE ( 'NONE', #842, #495, #492, .T. ) ;
#524 = DIRECTION ( 'NONE',  ( 0.000000000000000000, 1.000000000000000000, 1.111559247063599730E-16 ) ) ;
#525 = ORIENTED_EDGE ( 'NONE', *, *, #1066, .F. ) ;
#526 = CARTESIAN_POINT ( 'NONE',  ( 201.2332100219122708, -6.428722186132012517, 230.8937570693054795 ) ) ;
#527 = DIRECTION ( 'NONE',  ( 0.000000000000000000, 0.000000000000000000, -1.000000000000000000 ) ) ;
#528 = PERSON_AND_ORGANIZATION ( #131, #920 ) ;
#529 = VERTEX_POINT ( 'NONE', #982 ) ;
#530 = PLANE ( 'NONE',  #226 ) ;
#531 = DIRECTION ( 'NONE',  ( 0.000000000000000000, 1.000000000000000000, 0.000000000000000000 ) ) ;
#532 = CIRCLE ( 'NONE', #170, 2.000000000000001776 ) ;
#533 = EDGE_CURVE ( 'NONE', #427, #831, #664, .T. ) ;
#534 = DIRECTION ( 'NONE',  ( 0.000000000000000000, 0.000000000000000000, 1.000000000000000000 ) ) ;
#535 = AXIS2_PLACEMENT_3D ( 'NONE', #253, #805, #62 ) ;
#536 = AXIS2_PLACEMENT_3D ( 'NONE', #941, #1060, #723 ) ;
#537 = VERTEX_POINT ( 'NONE', #91 ) ;
#538 = AXIS2_PLACEMENT_3D ( 'NONE', #902, #412, #571 ) ;
#539 = LINE ( 'NONE', #971, #725 ) ;
#540 = DIRECTION ( 'NONE',  ( 0.000000000000000000, 1.000000000000000000, 0.000000000000000000 ) ) ;
#541 = ORIENTED_EDGE ( 'NONE', *, *, #686, .F. ) ;
#542 = DIRECTION ( 'NONE',  ( 0.000000000000000000, -1.111559247063599730E-16, 1.000000000000000000 ) ) ;
#543 = CC_DESIGN_PERSON_AND_ORGANIZATION_ASSIGNMENT ( #528, #720, ( #173 ) ) ;
#544 = CARTESIAN_POINT ( 'NONE',  ( 214.2332100219122708, -8.428722186132013405, 242.8937570693054795 ) ) ;
#545 = ORIENTED_EDGE ( 'NONE', *, *, #18, .T. ) ;
#546 = COORDINATED_UNIVERSAL_TIME_OFFSET ( 9, 0, .AHEAD. ) ;
#547 = ORIENTED_EDGE ( 'NONE', *, *, #814, .T. ) ;
#548 = DIRECTION ( 'NONE',  ( 0.000000000000000000, 0.000000000000000000, 1.000000000000000000 ) ) ;
#549 = ADVANCED_BREP_SHAPE_REPRESENTATION ( '20x20 3D Print Hinge', ( #788, #59, #517 ), #242 ) ;
#550 = DIRECTION ( 'NONE',  ( -5.675212059250460620E-29, -1.000000000000000000, -1.111559247063599730E-16 ) ) ;
#551 = EDGE_LOOP ( 'NONE', ( #957, #545, #1024, #444 ) ) ;
#552 = PERSON_AND_ORGANIZATION ( #131, #920 ) ;
#553 = EDGE_LOOP ( 'NONE', ( #181 ) ) ;
#554 = FACE_OUTER_BOUND ( 'NONE', #630, .T. ) ;
#555 = VECTOR ( 'NONE', #38, 1000.000000000000000 ) ;
#556 = CARTESIAN_POINT ( 'NONE',  ( 207.2332100219122424, -6.428722186132012517, 238.6937570693055193 ) ) ;
#557 = ORIENTED_EDGE ( 'NONE', *, *, #523, .F. ) ;
#558 = ADVANCED_FACE ( 'NONE', ( #993 ), #160, .T. ) ;
#559 = ORIENTED_EDGE ( 'NONE', *, *, #332, .T. ) ;
#560 = DIRECTION ( 'NONE',  ( 1.000000000000000000, 0.000000000000000000, 0.000000000000000000 ) ) ;
#561 = DIRECTION ( 'NONE',  ( 5.675212059250460620E-29, 1.000000000000000000, 0.000000000000000000 ) ) ;
#562 = ORIENTED_EDGE ( 'NONE', *, *, #951, .T. ) ;
#563 = EDGE_LOOP ( 'NONE', ( #637 ) ) ;
#564 = DIRECTION ( 'NONE',  ( 0.000000000000000000, 1.000000000000000000, 0.000000000000000000 ) ) ;
#565 = DIRECTION ( 'NONE',  ( -5.675212059250460620E-29, -1.000000000000000000, -1.111559247063599730E-16 ) ) ;
#566 = EDGE_LOOP ( 'NONE', ( #15, #315, #874, #645 ) ) ;
#567 = VERTEX_POINT ( 'NONE', #235 ) ;
#568 = ADVANCED_FACE ( 'NONE', ( #1076 ), #420, .T. ) ;
#569 = DIRECTION ( 'NONE',  ( 0.000000000000000000, 1.111559247063599730E-16, -1.000000000000000000 ) ) ;
#570 = EDGE_CURVE ( 'NONE', #221, #354, #829, .T. ) ;
#571 = DIRECTION ( 'NONE',  ( 0.000000000000000000, 0.000000000000000000, 1.000000000000000000 ) ) ;
#572 = AXIS2_PLACEMENT_3D ( 'NONE', #496, #747, #569 ) ;
#573 = VECTOR ( 'NONE', #1029, 1000.000000000000000 ) ;
#574 = VECTOR ( 'NONE', #58, 1000.000000000000000 ) ;
#575 = ORIENTED_EDGE ( 'NONE', *, *, #731, .T. ) ;
#576 = EDGE_LOOP ( 'NONE', ( #647 ) ) ;
#577 = DIRECTION ( 'NONE',  ( -5.675212059250460620E-29, -1.000000000000000000, -1.111559247063599730E-16 ) ) ;
#578 = EDGE_CURVE ( 'NONE', #751, #751, #292, .T. ) ;
#579 = DIRECTION ( 'NONE',  ( 0.000000000000000000, 0.000000000000000000, -1.000000000000000000 ) ) ;
#580 = ORIENTED_EDGE ( 'NONE', *, *, #826, .F. ) ;
#581 = DIRECTION ( 'NONE',  ( -5.675212059250460620E-29, -1.000000000000000000, -1.111559247063599730E-16 ) ) ;
#582 = FACE_OUTER_BOUND ( 'NONE', #438, .T. ) ;
#583 = CYLINDRICAL_SURFACE ( 'NONE', #604, 1.699999999999979305 ) ;
#584 = DIRECTION ( 'NONE',  ( -5.675212059250460620E-29, -1.000000000000000000, -1.111559247063599730E-16 ) ) ;
#585 = ORIENTED_EDGE ( 'NONE', *, *, #79, .T. ) ;
#586 = CARTESIAN_POINT ( 'NONE',  ( 196.2332100219122708, -8.428722186132011629, 226.8937570693054795 ) ) ;
#587 = CIRCLE ( 'NONE', #27, 3.000000000000002665 ) ;
#588 = DIRECTION ( 'NONE',  ( 0.000000000000000000, 0.000000000000000000, 1.000000000000000000 ) ) ;
#589 = VECTOR ( 'NONE', #175, 1000.000000000000000 ) ;
#590 = AXIS2_PLACEMENT_3D ( 'NONE', #167, #77, #736 ) ;
#591 = ADVANCED_FACE ( 'NONE', ( #515, #839 ), #530, .F. ) ;
#592 = FACE_OUTER_BOUND ( 'NONE', #231, .T. ) ;
#593 = DIRECTION ( 'NONE',  ( 5.675212059250460620E-29, 1.000000000000000000, 1.111559247063599730E-16 ) ) ;
#594 = VERTEX_POINT ( 'NONE', #187 ) ;
#595 = CARTESIAN_POINT ( 'NONE',  ( 207.2332100219122424, -6.428722186132011629, 230.4084756950669259 ) ) ;
#596 = ORIENTED_EDGE ( 'NONE', *, *, #365, .T. ) ;
#597 = DIRECTION ( 'NONE',  ( -5.675212059250460620E-29, -1.000000000000000000, -1.111559247063599730E-16 ) ) ;
#598 = FACE_OUTER_BOUND ( 'NONE', #553, .T. ) ;
#599 = VERTEX_POINT ( 'NONE', #767 ) ;
#600 = ORIENTED_EDGE ( 'NONE', *, *, #998, .F. ) ;
#601 = DIRECTION ( 'NONE',  ( 0.000000000000000000, 0.000000000000000000, 1.000000000000000000 ) ) ;
#602 = EDGE_CURVE ( 'NONE', #260, #260, #830, .T. ) ;
#603 = DIRECTION ( 'NONE',  ( 1.000000000000000000, 0.000000000000000000, 0.000000000000000000 ) ) ;
#604 = AXIS2_PLACEMENT_3D ( 'NONE', #859, #178, #933 ) ;
#605 = LOCAL_TIME ( 13, 6, 28.00000000000000000, #208 ) ;
#606 = EDGE_LOOP ( 'NONE', ( #642, #739, #1054, #69, #897, #98, #1061, #265, #139, #121 ) ) ;
#607 = DIRECTION ( 'NONE',  ( 0.000000000000000000, 0.000000000000000000, -1.000000000000000000 ) ) ;
#608 = CARTESIAN_POINT ( 'NONE',  ( 201.2332100219122708, -8.428722186131997418, 239.0937570693054965 ) ) ;
#609 = DIRECTION ( 'NONE',  ( -0.000000000000000000, -0.000000000000000000, 1.000000000000000000 ) ) ;
#610 = EDGE_LOOP ( 'NONE', ( #146, #976, #876, #55 ) ) ;
#611 = CYLINDRICAL_SURFACE ( 'NONE', #171, 1.699999999999979305 ) ;
#612 = CYLINDRICAL_SURFACE ( 'NONE', #536, 2.999999999999993783 ) ;
#613 = ADVANCED_FACE ( 'NONE', ( #439, #271 ), #611, .F. ) ;
#614 = PERSON_AND_ORGANIZATION ( #131, #920 ) ;
#615 = EDGE_LOOP ( 'NONE', ( #86, #641, #293, #502, #383, #715, #979, #698, #458, #682 ) ) ;
#616 = CARTESIAN_POINT ( 'NONE',  ( 207.2332100219122424, -8.428722186132011629, 231.0937570693054681 ) ) ;
#617 = LINE ( 'NONE', #211, #205 ) ;
#618 = VECTOR ( 'NONE', #704, 1000.000000000000000 ) ;
#619 = EDGE_CURVE ( 'NONE', #721, #375, #940, .T. ) ;
#620 = VECTOR ( 'NONE', #841, 1000.000000000000000 ) ;
#621 = ORIENTED_EDGE ( 'NONE', *, *, #19, .T. ) ;
#622 = VECTOR ( 'NONE', #501, 1000.000000000000000 ) ;
#623 = DIRECTION ( 'NONE',  ( 1.000000000000000000, 0.000000000000000000, 0.000000000000000000 ) ) ;
#624 = FACE_BOUND ( 'NONE', #244, .T. ) ;
#625 = ORIENTED_EDGE ( 'NONE', *, *, #463, .T. ) ;
#626 = PERSON_AND_ORGANIZATION ( #131, #920 ) ;
#627 = VERTEX_POINT ( 'NONE', #687 ) ;
#628 = FACE_OUTER_BOUND ( 'NONE', #787, .T. ) ;
#629 = CARTESIAN_POINT ( 'NONE',  ( 196.2332100219122708, -6.428722186132013405, 244.8937570693055079 ) ) ;
#630 = EDGE_LOOP ( 'NONE', ( #105 ) ) ;
#631 = EDGE_LOOP ( 'NONE', ( #857 ) ) ;
#632 = CARTESIAN_POINT ( 'NONE',  ( 196.2332100219122708, -8.428722186132009853, 224.8937570693054795 ) ) ;
#633 = ADVANCED_FACE ( 'NONE', ( #928 ), #451, .T. ) ;
#634 = PRODUCT_DEFINITION ( 'UNKNOWN', '', #173, #1055 ) ;
#635 = LINE ( 'NONE', #556, #574 ) ;
#636 = ORIENTED_EDGE ( 'NONE', *, *, #1067, .F. ) ;
#637 = ORIENTED_EDGE ( 'NONE', *, *, #19, .F. ) ;
#638 = CIRCLE ( 'NONE', #67, 1.999999999999996669 ) ;
#639 = CARTESIAN_POINT ( 'NONE',  ( 204.2332100219122424, -9.428722186132013405, 230.6937570693054909 ) ) ;
#640 = FACE_OUTER_BOUND ( 'NONE', #714, .T. ) ;
#641 = ORIENTED_EDGE ( 'NONE', *, *, #646, .F. ) ;
#642 = ORIENTED_EDGE ( 'NONE', *, *, #716, .F. ) ;
#643 = DIRECTION ( 'NONE',  ( 0.000000000000000000, 1.111559247063599730E-16, -1.000000000000000000 ) ) ;
#644 = DIRECTION ( 'NONE',  ( -1.000000000000000000, 5.675212059250460620E-29, 6.153077243955277736E-45 ) ) ;
#645 = ORIENTED_EDGE ( 'NONE', *, *, #825, .T. ) ;
#646 = EDGE_CURVE ( 'NONE', #719, #831, #678, .T. ) ;
#647 = ORIENTED_EDGE ( 'NONE', *, *, #578, .T. ) ;
#648 = CARTESIAN_POINT ( 'NONE',  ( 207.2332100219122424, -6.428722186132012517, 239.3790384435440615 ) ) ;
#649 = PRODUCT ( '20x20 3D Print Hinge', '20x20 3D Print Hinge', '', ( #113 ) ) ;
#650 = DIRECTION ( 'NONE',  ( -0.000000000000000000, -1.111559247063599730E-16, 1.000000000000000000 ) ) ;
#651 = DIRECTION ( 'NONE',  ( 0.000000000000000000, 1.111559247063599730E-16, -1.000000000000000000 ) ) ;
#652 = ORIENTED_EDGE ( 'NONE', *, *, #974, .F. ) ;
#653 = EDGE_CURVE ( 'NONE', #36, #228, #484, .T. ) ;
#654 = FACE_BOUND ( 'NONE', #314, .T. ) ;
#655 = LINE ( 'NONE', #917, #918 ) ;
#656 = AXIS2_PLACEMENT_3D ( 'NONE', #23, #356, #430 ) ;
#657 = ORIENTED_EDGE ( 'NONE', *, *, #71, .F. ) ;
#658 = LOCAL_TIME ( 13, 6, 28.00000000000000000, #54 ) ;
#659 = FACE_OUTER_BOUND ( 'NONE', #296, .T. ) ;
#660 = DIRECTION ( 'NONE',  ( 5.675212059250460620E-29, 1.000000000000000000, 1.111559247063599730E-16 ) ) ;
#661 = CARTESIAN_POINT ( 'NONE',  ( 212.2332100219122424, -8.428722186132013405, 244.8937570693055079 ) ) ;
#662 = LINE ( 'NONE', #1078, #727 ) ;
#663 = ORIENTED_EDGE ( 'NONE', *, *, #270, .T. ) ;
#664 = LINE ( 'NONE', #907, #950 ) ;
#665 = ADVANCED_FACE ( 'NONE', ( #10, #1019 ), #364, .T. ) ;
#666 = DIRECTION ( 'NONE',  ( 0.000000000000000000, 1.000000000000000000, 1.111559247063599730E-16 ) ) ;
#667 = CARTESIAN_POINT ( 'NONE',  ( 197.9832100219122708, -6.428722186132012517, 238.1937570693055193 ) ) ;
#668 = VECTOR ( 'NONE', #893, 1000.000000000000000 ) ;
#669 = FACE_OUTER_BOUND ( 'NONE', #834, .T. ) ;
#670 = VECTOR ( 'NONE', #43, 1000.000000000000000 ) ;
#671 = DIRECTION ( 'NONE',  ( 5.675212059250460620E-29, 1.000000000000000000, 1.111559247063599730E-16 ) ) ;
#672 = AXIS2_PLACEMENT_3D ( 'NONE', #397, #643, #564 ) ;
#673 = AXIS2_PLACEMENT_3D ( 'NONE', #705, #394, #291 ) ;
#674 = UNCERTAINTY_MEASURE_WITH_UNIT (LENGTH_MEASURE( 1.000000000000000082E-05 ), #426, 'distance_accuracy_value', 'NONE');
#675 = AXIS2_PLACEMENT_3D ( 'NONE', #997, #644, #744 ) ;
#676 = FACE_BOUND ( 'NONE', #778, .T. ) ;
#677 = VERTEX_POINT ( 'NONE', #694 ) ;
#678 = LINE ( 'NONE', #100, #313 ) ;
#679 = DIRECTION ( 'NONE',  ( 0.000000000000000000, 1.000000000000000000, 0.000000000000000000 ) ) ;
#680 = ADVANCED_FACE ( 'NONE', ( #669, #843 ), #511, .F. ) ;
#681 = CARTESIAN_POINT ( 'NONE',  ( 204.2332100219122424, -7.428722186132015182, 224.8937570693054795 ) ) ;
#682 = ORIENTED_EDGE ( 'NONE', *, *, #872, .F. ) ;
#683 = LINE ( 'NONE', #608, #846 ) ;
#684 = CARTESIAN_POINT ( 'NONE',  ( 204.2332100219122424, -7.428722186132017846, 244.8937570693055079 ) ) ;
#685 = ORIENTED_EDGE ( 'NONE', *, *, #3, .F. ) ;
#686 = EDGE_CURVE ( 'NONE', #677, #890, #689, .T. ) ;
#687 = CARTESIAN_POINT ( 'NONE',  ( 201.2332100219122708, -8.428722186131997418, 239.0937570693054965 ) ) ;
#688 = CARTESIAN_POINT ( 'NONE',  ( 201.4047828971660579, -8.428722186132009853, 244.8937570693055079 ) ) ;
#689 = CIRCLE ( 'NONE', #257, 2.000000000000001776 ) ;
#690 = AXIS2_PLACEMENT_3D ( 'NONE', #544, #206, #304 ) ;
#691 = CIRCLE ( 'NONE', #83, 2.999999999999992450 ) ;
#692 = DIRECTION ( 'NONE',  ( 1.000000000000000000, -4.044283744526588274E-14, 0.000000000000000000 ) ) ;
#693 = ORIENTED_EDGE ( 'NONE', *, *, #985, .T. ) ;
#694 = CARTESIAN_POINT ( 'NONE',  ( 212.2332100219122424, -6.428722186132011629, 224.8937570693054795 ) ) ;
#695 = EDGE_CURVE ( 'NONE', #599, #599, #6, .T. ) ;
#696 = FACE_BOUND ( 'NONE', #996, .T. ) ;
#697 = COORDINATED_UNIVERSAL_TIME_OFFSET ( 9, 0, .AHEAD. ) ;
#698 = ORIENTED_EDGE ( 'NONE', *, *, #281, .F. ) ;
#699 = CARTESIAN_POINT ( 'NONE',  ( 196.2332100219122708, -8.428722186132013405, 244.8937570693055079 ) ) ;
#700 = DIRECTION ( 'NONE',  ( -5.675212059250460620E-29, -1.000000000000000000, -1.111559247063599730E-16 ) ) ;
#701 = EDGE_CURVE ( 'NONE', #228, #796, #520, .T. ) ;
#702 = APPROVAL_ROLE ( '' ) ;
#703 = ORIENTED_EDGE ( 'NONE', *, *, #1067, .T. ) ;
#704 = DIRECTION ( 'NONE',  ( 5.675212059250460620E-29, 1.000000000000000000, 1.111559247063599730E-16 ) ) ;
#705 = CARTESIAN_POINT ( 'NONE',  ( 204.2332100219122424, -9.428722186132015182, 253.3790384435440330 ) ) ;
#706 = ORIENTED_EDGE ( 'NONE', *, *, #871, .T. ) ;
#707 = VECTOR ( 'NONE', #853, 1000.000000000000000 ) ;
#708 = DATE_AND_TIME ( #194, #605 ) ;
#709 = CIRCLE ( 'NONE', #401, 1.699999999999979305 ) ;
#710 = VERTEX_POINT ( 'NONE', #22 ) ;
#711 = CARTESIAN_POINT ( 'NONE',  ( 204.2332100219122424, -9.428722186132011629, 224.8937570693054795 ) ) ;
#712 = LINE ( 'NONE', #806, #916 ) ;
#713 = APPLICATION_CONTEXT ( 'configuration controlled 3d designs of mechanical parts and assemblies' ) ;
#714 = EDGE_LOOP ( 'NONE', ( #733, #1041, #865, #389 ) ) ;
#715 = ORIENTED_EDGE ( 'NONE', *, *, #921, .T. ) ;
#716 = EDGE_CURVE ( 'NONE', #269, #514, #849, .T. ) ;
#717 = CARTESIAN_POINT ( 'NONE',  ( 207.2332100219122424, -6.428722186132011629, 244.8937570693055079 ) ) ;
#718 = CYLINDRICAL_SURFACE ( 'NONE', #673, 2.999999999999993783 ) ;
#719 = VERTEX_POINT ( 'NONE', #445 ) ;
#720 = PERSON_AND_ORGANIZATION_ROLE ( 'creator' ) ;
#721 = VERTEX_POINT ( 'NONE', #26 ) ;
#722 = CARTESIAN_POINT ( 'NONE',  ( 207.0616371466584269, -8.428722186132015182, 253.3790384435440330 ) ) ;
#723 = DIRECTION ( 'NONE',  ( 0.000000000000000000, 1.000000000000000000, 0.000000000000000000 ) ) ;
#724 = EDGE_LOOP ( 'NONE', ( #201, #186, #1050, #233 ) ) ;
#725 = VECTOR ( 'NONE', #560, 1000.000000000000000 ) ;
#726 = EDGE_LOOP ( 'NONE', ( #821 ) ) ;
#727 = VECTOR ( 'NONE', #76, 1000.000000000000000 ) ;
#728 = VECTOR ( 'NONE', #924, 1000.000000000000000 ) ;
#729 = CARTESIAN_POINT ( 'NONE',  ( 204.2332100219122424, -6.428722186132010741, 224.8937570693054795 ) ) ;
#730 = CIRCLE ( 'NONE', #68, 1.699999999999979305 ) ;
#731 = EDGE_CURVE ( 'NONE', #537, #391, #587, .T. ) ;
#732 = DIRECTION ( 'NONE',  ( 0.000000000000000000, 0.000000000000000000, -1.000000000000000000 ) ) ;
#733 = ORIENTED_EDGE ( 'NONE', *, *, #137, .F. ) ;
#734 = ORIENTED_EDGE ( 'NONE', *, *, #871, .F. ) ;
#735 = FACE_OUTER_BOUND ( 'NONE', #606, .T. ) ;
#736 = DIRECTION ( 'NONE',  ( 0.000000000000000000, 0.000000000000000000, -1.000000000000000000 ) ) ;
#737 = CYLINDRICAL_SURFACE ( 'NONE', #487, 2.000000000000001776 ) ;
#738 = APPROVAL ( #938, 'UNSPECIFIED' ) ;
#739 = ORIENTED_EDGE ( 'NONE', *, *, #463, .F. ) ;
#740 = FACE_BOUND ( 'NONE', #219, .T. ) ;
#741 = CARTESIAN_POINT ( 'NONE',  ( 207.2332100219122424, -6.428722186132011629, 231.0937570693054681 ) ) ;
#742 = PLANE ( 'NONE',  #118 ) ;
#743 = CARTESIAN_POINT ( 'NONE',  ( 210.4832100219122708, -6.428722186132011629, 229.8937570693054795 ) ) ;
#744 = DIRECTION ( 'NONE',  ( -5.675212059250460620E-29, -1.000000000000000000, 0.000000000000000000 ) ) ;
#745 = VECTOR ( 'NONE', #679, 1000.000000000000000 ) ;
#746 = FACE_OUTER_BOUND ( 'NONE', #1058, .T. ) ;
#747 = DIRECTION ( 'NONE',  ( -5.675212059250460620E-29, -1.000000000000000000, -1.111559247063599730E-16 ) ) ;
#748 = ADVANCED_FACE ( 'NONE', ( #628, #554 ), #783, .F. ) ;
#749 = CARTESIAN_POINT ( 'NONE',  ( 204.2332100219122424, -9.428722186132011629, 244.8937570693055079 ) ) ;
#750 = CARTESIAN_POINT ( 'NONE',  ( 201.4047828971660579, -8.428722186131997418, 239.0937570693054965 ) ) ;
#751 = VERTEX_POINT ( 'NONE', #339 ) ;
#752 = LINE ( 'NONE', #407, #363 ) ;
#753 = CARTESIAN_POINT ( 'NONE',  ( 204.2332100219122424, -9.428722186132013405, 230.6937570693054909 ) ) ;
#754 = PLANE ( 'NONE',  #8 ) ;
#755 = EDGE_LOOP ( 'NONE', ( #282 ) ) ;
#756 = DIRECTION ( 'NONE',  ( 0.000000000000000000, 0.000000000000000000, 1.000000000000000000 ) ) ;
#757 = EDGE_CURVE ( 'NONE', #800, #809, #532, .T. ) ;
#758 = CARTESIAN_POINT ( 'NONE',  ( 212.2332100219122424, -6.428722186132013405, 244.8937570693055079 ) ) ;
#759 = AXIS2_PLACEMENT_3D ( 'NONE', #1074, #80, #321 ) ;
#760 = ADVANCED_FACE ( 'NONE', ( #298, #215 ), #379, .F. ) ;
#761 = VECTOR ( 'NONE', #250, 1000.000000000000000 ) ;
#762 = LINE ( 'NONE', #851, #198 ) ;
#763 = ORIENTED_EDGE ( 'NONE', *, *, #780, .F. ) ;
#764 = CARTESIAN_POINT ( 'NONE',  ( 210.4832100219122708, -8.428722186132011629, 229.8937570693054795 ) ) ;
#765 = LINE ( 'NONE', #13, #47 ) ;
#766 = EDGE_CURVE ( 'NONE', #567, #710, #115, .T. ) ;
#767 = CARTESIAN_POINT ( 'NONE',  ( 210.4832100219122708, -8.428722186132011629, 228.1937570693054909 ) ) ;
#768 = ORIENTED_EDGE ( 'NONE', *, *, #270, .F. ) ;
#769 = DIRECTION ( 'NONE',  ( 1.000000000000000000, 0.000000000000000000, -0.000000000000000000 ) ) ;
#770 = CARTESIAN_POINT ( 'NONE',  ( 204.2332100219122424, -6.428722186132018734, 231.0937570693054681 ) ) ;
#771 = VERTEX_POINT ( 'NONE', #681 ) ;
#772 = VERTEX_POINT ( 'NONE', #789 ) ;
#773 = DIRECTION ( 'NONE',  ( 0.000000000000000000, 1.111559247063599976E-16, -1.000000000000000000 ) ) ;
#774 = DIRECTION ( 'NONE',  ( 5.675212059250460620E-29, 1.000000000000000000, 1.111559247063599730E-16 ) ) ;
#775 = AXIS2_PLACEMENT_3D ( 'NONE', #266, #1004, #756 ) ;
#776 = CLOSED_SHELL ( 'NONE', ( #342, #748, #112, #101, #39, #297, #558, #1039, #216, #415, #886, #56, #908, #384, #217, #879, #90, #73 ) ) ;
#777 = SECURITY_CLASSIFICATION_LEVEL ( 'unclassified' ) ;
#778 = EDGE_LOOP ( 'NONE', ( #970 ) ) ;
#779 = DIRECTION ( 'NONE',  ( 5.675212059250460620E-29, 1.000000000000000000, 1.111559247063599730E-16 ) ) ;
#780 = EDGE_CURVE ( 'NONE', #719, #792, #539, .T. ) ;
#781 = CARTESIAN_POINT ( 'NONE',  ( 201.2332100219122708, -8.428722186131997418, 238.8937570693054795 ) ) ;
#782 = ORIENTED_EDGE ( 'NONE', *, *, #441, .T. ) ;
#783 = CYLINDRICAL_SURFACE ( 'NONE', #311, 1.699999999999979305 ) ;
#784 = FACE_OUTER_BOUND ( 'NONE', #566, .T. ) ;
#785 = ORIENTED_EDGE ( 'NONE', *, *, #1017, .T. ) ;
#786 = DATE_AND_TIME ( #285, #658 ) ;
#787 = EDGE_LOOP ( 'NONE', ( #324 ) ) ;
#788 = MANIFOLD_SOLID_BREP ( 'ÄÆ-µ¹Ãâ14', #776 ) ;
#789 = CARTESIAN_POINT ( 'NONE',  ( 204.2332100219122424, -6.428722186132021399, 244.8937570693055079 ) ) ;
#790 = DIRECTION ( 'NONE',  ( 1.000000000000000000, 0.000000000000000000, 0.000000000000000000 ) ) ;
#791 = EDGE_CURVE ( 'NONE', #891, #53, #860, .T. ) ;
#792 = VERTEX_POINT ( 'NONE', #1028 ) ;
#793 = EDGE_CURVE ( 'NONE', #1016, #1016, #1001, .T. ) ;
#794 = PERSON_AND_ORGANIZATION ( #131, #920 ) ;
#795 = AXIS2_PLACEMENT_3D ( 'NONE', #184, #774, #366 ) ;
#796 = VERTEX_POINT ( 'NONE', #717 ) ;
#797 = DIRECTION ( 'NONE',  ( -0.000000000000000000, -1.111559247063599730E-16, 1.000000000000000000 ) ) ;
#798 = DIRECTION ( 'NONE',  ( -0.000000000000000000, -0.000000000000000000, 1.000000000000000000 ) ) ;
#799 = VERTEX_POINT ( 'NONE', #369 ) ;
#800 = VERTEX_POINT ( 'NONE', #699 ) ;
#801 = DIRECTION ( 'NONE',  ( 0.000000000000000000, 0.000000000000000000, 1.000000000000000000 ) ) ;
#802 = DIRECTION ( 'NONE',  ( -5.675212059250460620E-29, -1.000000000000000000, -1.111559247063599730E-16 ) ) ;
#803 = ORIENTED_EDGE ( 'NONE', *, *, #954, .F. ) ;
#804 = ORIENTED_EDGE ( 'NONE', *, *, #1007, .F. ) ;
#805 = DIRECTION ( 'NONE',  ( 0.000000000000000000, 1.111559247063599730E-16, -1.000000000000000000 ) ) ;
#806 = CARTESIAN_POINT ( 'NONE',  ( 196.2332100219122708, -8.428722186132013405, 244.8937570693055079 ) ) ;
#807 = ORIENTED_EDGE ( 'NONE', *, *, #365, .F. ) ;
#808 = CIRCLE ( 'NONE', #947, 2.999999999999993783 ) ;
#809 = VERTEX_POINT ( 'NONE', #34 ) ;
#810 = VECTOR ( 'NONE', #325, 1000.000000000000000 ) ;
#811 = CIRCLE ( 'NONE', #448, 2.000000000000001776 ) ;
#812 = CARTESIAN_POINT ( 'NONE',  ( 196.2332100219122708, -6.428722186132011629, 226.8937570693054795 ) ) ;
#813 = VECTOR ( 'NONE', #912, 1000.000000000000000 ) ;
#814 = EDGE_CURVE ( 'NONE', #792, #677, #303, .T. ) ;
#815 = DIRECTION ( 'NONE',  ( -1.000000000000000000, -0.000000000000000000, -0.000000000000000000 ) ) ;
#816 = DIRECTION ( 'NONE',  ( -5.675212059250460620E-29, -1.000000000000000000, -1.111559247063599730E-16 ) ) ;
#817 = EDGE_LOOP ( 'NONE', ( #785, #980, #1006, #147 ) ) ;
#818 = DIRECTION ( 'NONE',  ( 0.000000000000000000, 0.000000000000000000, 1.000000000000000000 ) ) ;
#819 = CARTESIAN_POINT ( 'NONE',  ( 196.2332100219122708, -8.428722186132013405, 244.8937570693055079 ) ) ;
#820 = DIRECTION ( 'NONE',  ( -0.000000000000000000, -0.000000000000000000, 1.000000000000000000 ) ) ;
#821 = ORIENTED_EDGE ( 'NONE', *, *, #319, .F. ) ;
#822 = DIRECTION ( 'NONE',  ( 0.000000000000000000, 0.000000000000000000, -1.000000000000000000 ) ) ;
#823 = CARTESIAN_POINT ( 'NONE',  ( 212.2332100219122708, -8.428722186132011629, 226.8937570693054795 ) ) ;
#824 = FACE_OUTER_BOUND ( 'NONE', #726, .T. ) ;
#825 = EDGE_CURVE ( 'NONE', #831, #476, #883, .T. ) ;
#826 = EDGE_CURVE ( 'NONE', #799, #594, #51, .T. ) ;
#827 = PLANE ( 'NONE',  #948 ) ;
#828 = CIRCLE ( 'NONE', #28, 1.599999999999990319 ) ;
#829 = LINE ( 'NONE', #333, #761 ) ;
#830 = CIRCLE ( 'NONE', #503, 1.699999999999979305 ) ;
#831 = VERTEX_POINT ( 'NONE', #616 ) ;
#832 = APPROVAL_PERSON_ORGANIZATION ( #626, #159, #1026 ) ;
#833 = LINE ( 'NONE', #847, #898 ) ;
#834 = EDGE_LOOP ( 'NONE', ( #663 ) ) ;
#835 = CARTESIAN_POINT ( 'NONE',  ( 212.2332100219122708, -8.428722186132011629, 226.8937570693054795 ) ) ;
#836 = VERTEX_POINT ( 'NONE', #945 ) ;
#837 = VERTEX_POINT ( 'NONE', #14 ) ;
#838 = EDGE_CURVE ( 'NONE', #221, #772, #808, .T. ) ;
#839 = FACE_OUTER_BOUND ( 'NONE', #1032, .T. ) ;
#840 = DIRECTION ( 'NONE',  ( 0.000000000000000000, 1.111559247063599730E-16, -1.000000000000000000 ) ) ;
#841 = DIRECTION ( 'NONE',  ( 1.000000000000000000, 0.000000000000000000, 0.000000000000000000 ) ) ;
#842 = VERTEX_POINT ( 'NONE', #37 ) ;
#843 = FACE_OUTER_BOUND ( 'NONE', #409, .T. ) ;
#844 = EDGE_CURVE ( 'NONE', #128, #460, #877, .T. ) ;
#845 = LINE ( 'NONE', #770, #573 ) ;
#846 = VECTOR ( 'NONE', #189, 1000.000000000000000 ) ;
#847 = CARTESIAN_POINT ( 'NONE',  ( 214.2332100219122708, -6.428722186132013405, 242.8937570693054795 ) ) ;
#848 = ORIENTED_EDGE ( 'NONE', *, *, #330, .T. ) ;
#849 = LINE ( 'NONE', #526, #707 ) ;
#850 = CARTESIAN_POINT ( 'NONE',  ( 207.2332100219122424, -6.428722186132010741, 224.8937570693054795 ) ) ;
#851 = CARTESIAN_POINT ( 'NONE',  ( 194.2332100219122708, -8.428722186132013405, 242.8937570693054795 ) ) ;
#852 = ORIENTED_EDGE ( 'NONE', *, *, #180, .T. ) ;
#853 = DIRECTION ( 'NONE',  ( 0.000000000000000000, -1.084202172485503571E-16, 1.000000000000000000 ) ) ;
#854 = DIRECTION ( 'NONE',  ( -0.000000000000000000, -1.111559247063599730E-16, 1.000000000000000000 ) ) ;
#855 = CC_DESIGN_PERSON_AND_ORGANIZATION_ASSIGNMENT ( #794, #295, ( #173 ) ) ;
#856 = PERSON_AND_ORGANIZATION_ROLE ( 'classification_officer' ) ;
#857 = ORIENTED_EDGE ( 'NONE', *, *, #376, .T. ) ;
#858 = CARTESIAN_POINT ( 'NONE',  ( 197.9832100219122708, -8.428722186132013405, 239.8937570693054795 ) ) ;
#859 = CARTESIAN_POINT ( 'NONE',  ( 210.4832100219122708, -8.428722186132013405, 239.8937570693054795 ) ) ;
#860 = CIRCLE ( 'NONE', #398, 2.999999999999993783 ) ;
#861 = CIRCLE ( 'NONE', #535, 1.599999999999990319 ) ;
#862 = VECTOR ( 'NONE', #17, 1000.000000000000000 ) ;
#863 = CIRCLE ( 'NONE', #590, 2.000000000000001776 ) ;
#864 = DIRECTION ( 'NONE',  ( 1.000000000000000000, 0.000000000000000000, 0.000000000000000000 ) ) ;
#865 = ORIENTED_EDGE ( 'NONE', *, *, #872, .T. ) ;
#866 = PRODUCT_RELATED_PRODUCT_CATEGORY ( 'detail', '', ( #649 ) ) ;
#867 = DIRECTION ( 'NONE',  ( 0.000000000000000000, -1.000000000000000000, -1.111559247063599730E-16 ) ) ;
#868 = CARTESIAN_POINT ( 'NONE',  ( 201.2332100219122708, -6.428722186132012517, 230.6937570693054909 ) ) ;
#869 = ORIENTED_EDGE ( 'NONE', *, *, #578, .F. ) ;
#870 = FACE_OUTER_BOUND ( 'NONE', #7, .T. ) ;
#871 = EDGE_CURVE ( 'NONE', #142, #567, #1046, .T. ) ;
#872 = EDGE_CURVE ( 'NONE', #476, #391, #210, .T. ) ;
#873 = DIRECTION ( 'NONE',  ( 0.000000000000000000, 1.111559247063599730E-16, -1.000000000000000000 ) ) ;
#874 = ORIENTED_EDGE ( 'NONE', *, *, #533, .T. ) ;
#875 = PERSON_AND_ORGANIZATION ( #131, #920 ) ;
#876 = ORIENTED_EDGE ( 'NONE', *, *, #134, .F. ) ;
#877 = LINE ( 'NONE', #387, #618 ) ;
#878 = CARTESIAN_POINT ( 'NONE',  ( 194.2332100219122708, -6.428722186132011629, 226.8937570693054795 ) ) ;
#879 = ADVANCED_FACE ( 'NONE', ( #870 ), #126, .F. ) ;
#880 = ORIENTED_EDGE ( 'NONE', *, *, #653, .F. ) ;
#881 = CARTESIAN_POINT ( 'NONE',  ( 0.000000000000000000, 0.000000000000000000, 0.000000000000000000 ) ) ;
#882 = EDGE_LOOP ( 'NONE', ( #358, #625, #490, #706 ) ) ;
#883 = LINE ( 'NONE', #140, #670 ) ;
#884 = DIRECTION ( 'NONE',  ( 5.675212059250460620E-29, 1.000000000000000000, 1.111559247063599730E-16 ) ) ;
#885 = ORIENTED_EDGE ( 'NONE', *, *, #1066, .T. ) ;
#886 = ADVANCED_FACE ( 'NONE', ( #248 ), #827, .F. ) ;
#887 = EDGE_LOOP ( 'NONE', ( #953 ) ) ;
#888 = DIRECTION ( 'NONE',  ( 0.000000000000000000, 0.000000000000000000, 1.000000000000000000 ) ) ;
#889 = CARTESIAN_POINT ( 'NONE',  ( 204.2332100219122424, -9.428722186132011629, 224.8937570693054795 ) ) ;
#890 = VERTEX_POINT ( 'NONE', #995 ) ;
#891 = VERTEX_POINT ( 'NONE', #729 ) ;
#892 = EDGE_CURVE ( 'NONE', #930, #930, #709, .T. ) ;
#893 = DIRECTION ( 'NONE',  ( 0.000000000000000000, 1.084202172485503448E-16, -1.000000000000000000 ) ) ;
#894 = PLANE ( 'NONE',  #347 ) ;
#895 = ORIENTED_EDGE ( 'NONE', *, *, #757, .F. ) ;
#896 = VECTOR ( 'NONE', #964, 1000.000000000000000 ) ;
#897 = ORIENTED_EDGE ( 'NONE', *, *, #477, .F. ) ;
#898 = VECTOR ( 'NONE', #264, 1000.000000000000000 ) ;
#899 = CIRCLE ( 'NONE', #154, 1.699999999999979305 ) ;
#900 = DIRECTION ( 'NONE',  ( 0.000000000000000000, -1.000000000000000000, -1.111559247063599730E-16 ) ) ;
#901 = CIRCLE ( 'NONE', #259, 2.000000000000001776 ) ;
#902 = CARTESIAN_POINT ( 'NONE',  ( 196.2332100219122708, -8.428722186132011629, 226.8937570693054795 ) ) ;
#903 = LINE ( 'NONE', #338, #243 ) ;
#904 = EDGE_LOOP ( 'NONE', ( #939, #506, #60, #585 ) ) ;
#905 = CARTESIAN_POINT ( 'NONE',  ( 204.2332100219122424, -6.428722186132017846, 239.0937570693054965 ) ) ;
#906 = ADVANCED_FACE ( 'NONE', ( #740, #491, #735 ), #483, .F. ) ;
#907 = CARTESIAN_POINT ( 'NONE',  ( 207.2332100219122424, -6.428722186132011629, 231.0937570693054681 ) ) ;
#908 = ADVANCED_FACE ( 'NONE', ( #992, #1063 ), #158, .T. ) ;
#909 = EDGE_LOOP ( 'NONE', ( #500, #320, #895, #596 ) ) ;
#910 = CYLINDRICAL_SURFACE ( 'NONE', #341, 1.999999999999996669 ) ;
#911 = ORIENTED_EDGE ( 'NONE', *, *, #423, .F. ) ;
#912 = DIRECTION ( 'NONE',  ( -1.000000000000000000, -0.000000000000000000, -0.000000000000000000 ) ) ;
#913 = ORIENTED_EDGE ( 'NONE', *, *, #251, .T. ) ;
#914 = DIRECTION ( 'NONE',  ( -5.675212059250460620E-29, -1.000000000000000000, -1.111559247063599730E-16 ) ) ;
#915 = AXIS2_PLACEMENT_3D ( 'NONE', #1010, #340, #769 ) ;
#916 = VECTOR ( 'NONE', #884, 1000.000000000000000 ) ;
#917 = CARTESIAN_POINT ( 'NONE',  ( 201.2332100219122708, -6.428722186132012517, 230.6937570693054909 ) ) ;
#918 = VECTOR ( 'NONE', #497, 1000.000000000000000 ) ;
#919 = DIRECTION ( 'NONE',  ( -0.000000000000000000, -0.000000000000000000, -1.000000000000000000 ) ) ;
#920 = ORGANIZATION ( 'UNSPECIFIED', 'UNSPECIFIED', '' ) ;
#921 = EDGE_CURVE ( 'NONE', #594, #842, #944, .T. ) ;
#922 = VERTEX_POINT ( 'NONE', #185 ) ;
#923 = DIRECTION ( 'NONE',  ( 0.000000000000000000, 1.111559247063599730E-16, -1.000000000000000000 ) ) ;
#924 = DIRECTION ( 'NONE',  ( 0.000000000000000000, -1.111559247063599730E-16, 1.000000000000000000 ) ) ;
#925 = CARTESIAN_POINT ( 'NONE',  ( 204.2332100219122424, -9.428722186132015182, 239.0937570693054965 ) ) ;
#926 = EDGE_LOOP ( 'NONE', ( #734, #168, #143, #262, #386, #405, #703, #943, #885, #657 ) ) ;
#927 = EDGE_CURVE ( 'NONE', #922, #922, #1002, .T. ) ;
#928 = FACE_OUTER_BOUND ( 'NONE', #817, .T. ) ;
#929 = CYLINDRICAL_SURFACE ( 'NONE', #656, 1.599999999999990319 ) ;
#930 = VERTEX_POINT ( 'NONE', #190 ) ;
#931 = ORIENTED_EDGE ( 'NONE', *, *, #199, .F. ) ;
#932 = DIRECTION ( 'NONE',  ( 0.000000000000000000, 0.000000000000000000, 1.000000000000000000 ) ) ;
#933 = DIRECTION ( 'NONE',  ( 0.000000000000000000, 0.000000000000000000, 1.000000000000000000 ) ) ;
#934 = ORIENTED_EDGE ( 'NONE', *, *, #998, .T. ) ;
#935 = CARTESIAN_POINT ( 'NONE',  ( 196.2332100219122708, -6.428722186132013405, 244.8937570693055079 ) ) ;
#936 = CARTESIAN_POINT ( 'NONE',  ( 204.2332100219122424, -9.428722186132015182, 244.8937570693055079 ) ) ;
#937 = CC_DESIGN_PERSON_AND_ORGANIZATION_ASSIGNMENT ( #552, #472, ( #634 ) ) ;
#938 = APPROVAL_STATUS ( 'not_yet_approved' ) ;
#939 = ORIENTED_EDGE ( 'NONE', *, *, #653, .T. ) ;
#940 = LINE ( 'NONE', #196, #30 ) ;
#941 = CARTESIAN_POINT ( 'NONE',  ( 204.2332100219122424, -9.428722186132015182, 253.3790384435440330 ) ) ;
#942 = CALENDAR_DATE ( 2023, 21, 2 ) ;
#943 = ORIENTED_EDGE ( 'NONE', *, *, #134, .T. ) ;
#944 = CIRCLE ( 'NONE', #46, 2.000000000000001776 ) ;
#945 = CARTESIAN_POINT ( 'NONE',  ( 204.2332100219122424, -6.428722186132018734, 231.0937570693054681 ) ) ;
#946 = LINE ( 'NONE', #629, #1022 ) ;
#947 = AXIS2_PLACEMENT_3D ( 'NONE', #203, #57, #455 ) ;
#948 = AXIS2_PLACEMENT_3D ( 'NONE', #648, #416, #410 ) ;
#949 = VECTOR ( 'NONE', #1071, 1000.000000000000000 ) ;
#950 = VECTOR ( 'NONE', #240, 1000.000000000000000 ) ;
#951 = EDGE_CURVE ( 'NONE', #460, #891, #662, .T. ) ;
#952 = APPROVAL_ROLE ( '' ) ;
#953 = ORIENTED_EDGE ( 'NONE', *, *, #3, .T. ) ;
#954 = EDGE_CURVE ( 'NONE', #799, #890, #406, .T. ) ;
#955 = CARTESIAN_POINT ( 'NONE',  ( 204.2332100219122424, -9.428722186132013405, 231.0937570693054681 ) ) ;
#956 = CARTESIAN_POINT ( 'NONE',  ( 204.2332100219122424, -9.428722186132013405, 231.0937570693054681 ) ) ;
#957 = ORIENTED_EDGE ( 'NONE', *, *, #1007, .T. ) ;
#958 = ORIENTED_EDGE ( 'NONE', *, *, #686, .T. ) ;
#959 = DIRECTION ( 'NONE',  ( -1.734723475976805517E-15, -1.084202172485503448E-16, 1.000000000000000000 ) ) ;
#960 = ADVANCED_FACE ( 'NONE', ( #166, #1069, #654 ), #239, .T. ) ;
#961 = DIRECTION ( 'NONE',  ( 0.000000000000000000, 1.000000000000000000, 1.111559247063599730E-16 ) ) ;
#962 = VERTEX_POINT ( 'NONE', #986 ) ;
#963 = ORIENTED_EDGE ( 'NONE', *, *, #838, .T. ) ;
#964 = DIRECTION ( 'NONE',  ( -0.000000000000000000, -1.111559247063599976E-16, 1.000000000000000000 ) ) ;
#965 = FACE_OUTER_BOUND ( 'NONE', #61, .T. ) ;
#966 = VERTEX_POINT ( 'NONE', #905 ) ;
#967 = AXIS2_PLACEMENT_3D ( 'NONE', #95, #261, #601 ) ;
#968 = AXIS2_PLACEMENT_3D ( 'NONE', #1053, #52, #561 ) ;
#969 = VECTOR ( 'NONE', #660, 1000.000000000000000 ) ;
#970 = ORIENTED_EDGE ( 'NONE', *, *, #493, .T. ) ;
#971 = CARTESIAN_POINT ( 'NONE',  ( 196.2332100219122708, -8.428722186132009853, 224.8937570693054795 ) ) ;
#972 = PLANE ( 'NONE',  #690 ) ;
#973 = ORIENTED_EDGE ( 'NONE', *, *, #232, .F. ) ;
#974 = EDGE_CURVE ( 'NONE', #20, #20, #289, .T. ) ;
#975 = APPLICATION_CONTEXT ( 'configuration controlled 3d designs of mechanical parts and assemblies' ) ;
#976 = ORIENTED_EDGE ( 'NONE', *, *, #844, .F. ) ;
#977 = FACE_OUTER_BOUND ( 'NONE', #984, .T. ) ;
#978 = DIRECTION ( 'NONE',  ( 0.000000000000000000, 0.000000000000000000, 1.000000000000000000 ) ) ;
#979 = ORIENTED_EDGE ( 'NONE', *, *, #523, .T. ) ;
#980 = ORIENTED_EDGE ( 'NONE', *, *, #766, .F. ) ;
#981 = DIRECTION ( 'NONE',  ( -5.675212059250460620E-29, -1.000000000000000000, -1.111559247063599730E-16 ) ) ;
#982 = CARTESIAN_POINT ( 'NONE',  ( 194.2332100219122708, -6.428722186132013405, 242.8937570693054795 ) ) ;
#983 = CARTESIAN_POINT ( 'NONE',  ( 214.2332100219122708, -6.428722186132013405, 242.8937570693054795 ) ) ;
#984 = EDGE_LOOP ( 'NONE', ( #685 ) ) ;
#985 = EDGE_CURVE ( 'NONE', #529, #375, #331, .T. ) ;
#986 = CARTESIAN_POINT ( 'NONE',  ( 196.2332100219122708, -6.428722186132013405, 244.8937570693055079 ) ) ;
#987 = EDGE_LOOP ( 'NONE', ( #475 ) ) ;
#988 = ADVANCED_FACE ( 'NONE', ( #659, #977 ), #910, .F. ) ;
#989 = CC_DESIGN_APPROVAL ( #738, ( #634 ) ) ;
#990 = PLANE ( 'NONE',  #675 ) ;
#991 = DIRECTION ( 'NONE',  ( 0.000000000000000000, 1.000000000000000000, 1.111559247063599730E-16 ) ) ;
#992 = FACE_OUTER_BOUND ( 'NONE', #236, .T. ) ;
#993 = FACE_OUTER_BOUND ( 'NONE', #109, .T. ) ;
#994 = PLANE ( 'NONE',  #290 ) ;
#995 = CARTESIAN_POINT ( 'NONE',  ( 214.2332100219122708, -6.428722186132011629, 226.8937570693054795 ) ) ;
#996 = EDGE_LOOP ( 'NONE', ( #286 ) ) ;
#997 = CARTESIAN_POINT ( 'NONE',  ( 201.2332100219122708, -1.142041140238037212E-26, -1.238203485313901565E-42 ) ) ;
#998 = EDGE_CURVE ( 'NONE', #93, #93, #861, .T. ) ;
#999 = FACE_OUTER_BOUND ( 'NONE', #904, .T. ) ;
#1000 = CARTESIAN_POINT ( 'NONE',  ( 206.2332100219122424, -9.428722186132013405, 230.6937570693054909 ) ) ;
#1001 = CIRCLE ( 'NONE', #287, 1.599999999999990319 ) ;
#1002 = CIRCLE ( 'NONE', #482, 1.699999999999979305 ) ;
#1003 = AXIS2_PLACEMENT_3D ( 'NONE', #1025, #700, #840 ) ;
#1004 = DIRECTION ( 'NONE',  ( 5.675212059250460620E-29, 1.000000000000000000, 1.111559247063599730E-16 ) ) ;
#1005 = AXIS2_PLACEMENT_3D ( 'NONE', #835, #337, #579 ) ;
#1006 = ORIENTED_EDGE ( 'NONE', *, *, #71, .T. ) ;
#1007 = EDGE_CURVE ( 'NONE', #966, #354, #66, .T. ) ;
#1008 = VERTEX_POINT ( 'NONE', #1012 ) ;
#1009 = ORIENTED_EDGE ( 'NONE', *, *, #844, .T. ) ;
#1010 = CARTESIAN_POINT ( 'NONE',  ( 204.2332100219122424, -9.428722186132013405, 230.6937570693054909 ) ) ;
#1011 = FACE_OUTER_BOUND ( 'NONE', #307, .T. ) ;
#1012 = CARTESIAN_POINT ( 'NONE',  ( 197.9832100219122708, -8.428722186132013405, 238.1937570693055193 ) ) ;
#1013 = ORIENTED_EDGE ( 'NONE', *, *, #521, .F. ) ;
#1014 = CARTESIAN_POINT ( 'NONE',  ( 196.2332100219122708, -8.428722186132013405, 244.8937570693055079 ) ) ;
#1015 = DIRECTION ( 'NONE',  ( -5.675212059250460620E-29, -1.000000000000000000, -1.111559247063599730E-16 ) ) ;
#1016 = VERTEX_POINT ( 'NONE', #273 ) ;
#1017 = EDGE_CURVE ( 'NONE', #891, #710, #353, .T. ) ;
#1018 = ORIENTED_EDGE ( 'NONE', *, *, #1072, .T. ) ;
#1019 = FACE_BOUND ( 'NONE', #887, .T. ) ;
#1020 = EDGE_CURVE ( 'NONE', #368, #796, #97, .T. ) ;
#1021 = CYLINDRICAL_SURFACE ( 'NONE', #795, 2.000000000000001776 ) ;
#1022 = VECTOR ( 'NONE', #145, 1000.000000000000000 ) ;
#1023 = CARTESIAN_POINT ( 'NONE',  ( 196.2332100219122708, -8.428722186132009853, 224.8937570693054795 ) ) ;
#1024 = ORIENTED_EDGE ( 'NONE', *, *, #123, .T. ) ;
#1025 = CARTESIAN_POINT ( 'NONE',  ( 196.2332100219122708, -6.428722186132011629, 226.8937570693054795 ) ) ;
#1026 = APPROVAL_ROLE ( '' ) ;
#1027 = EDGE_LOOP ( 'NONE', ( #209, #473, #302, #1044 ) ) ;
#1028 = CARTESIAN_POINT ( 'NONE',  ( 212.2332100219122424, -8.428722186132011629, 224.8937570693054795 ) ) ;
#1029 = DIRECTION ( 'NONE',  ( 1.000000000000000000, 2.602085213965208275E-15, 0.000000000000000000 ) ) ;
#1030 = ADVANCED_FACE ( 'NONE', ( #518, #676 ), #509, .T. ) ;
#1031 = APPROVAL_STATUS ( 'not_yet_approved' ) ;
#1032 = EDGE_LOOP ( 'NONE', ( #214, #963, #913, #807 ) ) ;
#1033 = CARTESIAN_POINT ( 'NONE',  ( 201.2332100219122708, -8.428722186132013405, 230.6937570693054909 ) ) ;
#1034 = CARTESIAN_POINT ( 'NONE',  ( 197.9832100219122708, -8.428722186132011629, 229.8937570693054795 ) ) ;
#1035 = VECTOR ( 'NONE', #35, 1000.000000000000000 ) ;
#1036 = EDGE_LOOP ( 'NONE', ( #48 ) ) ;
#1037 = CIRCLE ( 'NONE', #1005, 2.000000000000001776 ) ;
#1038 = CC_DESIGN_APPROVAL ( #159, ( #138 ) ) ;
#1039 = ADVANCED_FACE ( 'NONE', ( #592 ), #754, .F. ) ;
#1040 = DATE_TIME_ROLE ( 'classification_date' ) ;
#1041 = ORIENTED_EDGE ( 'NONE', *, *, #294, .F. ) ;
#1042 = DIRECTION ( 'NONE',  ( 0.000000000000000000, 1.000000000000000000, 0.000000000000000000 ) ) ;
#1043 = CARTESIAN_POINT ( 'NONE',  ( 204.2332100219122424, -9.428722186132011629, 238.6937570693055193 ) ) ;
#1044 = ORIENTED_EDGE ( 'NONE', *, *, #180, .F. ) ;
#1045 = EDGE_LOOP ( 'NONE', ( #693, #162, #636, #782 ) ) ;
#1046 = LINE ( 'NONE', #1033, #152 ) ;
#1047 = CARTESIAN_POINT ( 'NONE',  ( 204.2332100219122424, -9.428722186132013405, 231.0937570693054681 ) ) ;
#1048 = EDGE_LOOP ( 'NONE', ( #600 ) ) ;
#1049 =( NAMED_UNIT ( * ) PLANE_ANGLE_UNIT ( ) SI_UNIT ( $, .RADIAN. ) );
#1050 = ORIENTED_EDGE ( 'NONE', *, *, #423, .T. ) ;
#1051 = DIRECTION ( 'NONE',  ( 0.000000000000000000, 1.000000000000000000, 0.000000000000000000 ) ) ;
#1052 = APPROVAL ( #1031, 'UNSPECIFIED' ) ;
#1053 = CARTESIAN_POINT ( 'NONE',  ( 194.2332100219122708, -8.428722186132013405, 242.8937570693054795 ) ) ;
#1054 = ORIENTED_EDGE ( 'NONE', *, *, #1017, .F. ) ;
#1055 = DESIGN_CONTEXT ( 'detailed design', #713, 'design' ) ;
#1056 = AXIS2_PLACEMENT_3D ( 'NONE', #632, #542, #867 ) ;
#1057 = AXIS2_PLACEMENT_3D ( 'NONE', #1047, #299, #961 ) ;
#1058 = EDGE_LOOP ( 'NONE', ( #349 ) ) ;
#1059 = DIRECTION ( 'NONE',  ( 0.000000000000000000, 1.111559247063599730E-16, -1.000000000000000000 ) ) ;
#1060 = DIRECTION ( 'NONE',  ( 0.000000000000000000, 1.111559247063599976E-16, -1.000000000000000000 ) ) ;
#1061 = ORIENTED_EDGE ( 'NONE', *, *, #392, .F. ) ;
#1062 = EDGE_LOOP ( 'NONE', ( #911, #130, #362, #464, #21, #300, #880, #396, #541, #973 ) ) ;
#1063 = FACE_BOUND ( 'NONE', #519, .T. ) ;
#1064 = CARTESIAN_POINT ( 'NONE',  ( 207.2332100219122424, -8.428722186132013405, 244.8937570693055079 ) ) ;
#1065 = CARTESIAN_POINT ( 'NONE',  ( 207.2332100219122424, -6.428722186132010741, 224.8937570693054795 ) ) ;
#1066 = EDGE_CURVE ( 'NONE', #128, #53, #172, .T. ) ;
#1067 = EDGE_CURVE ( 'NONE', #809, #721, #762, .T. ) ;
#1068 = ORIENTED_EDGE ( 'NONE', *, *, #1079, .T. ) ;
#1069 = FACE_BOUND ( 'NONE', #563, .T. ) ;
#1070 = LINE ( 'NONE', #485, #207 ) ;
#1071 = DIRECTION ( 'NONE',  ( 5.675212059250460620E-29, 1.000000000000000000, 1.111559247063599730E-16 ) ) ;
#1072 = EDGE_CURVE ( 'NONE', #391, #274, #108, .T. ) ;
#1073 = VECTOR ( 'NONE', #82, 1000.000000000000000 ) ;
#1074 = CARTESIAN_POINT ( 'NONE',  ( 204.2332100219122424, -9.428722186132013405, 238.6937570693055193 ) ) ;
#1075 = APPROVAL_PERSON_ORGANIZATION ( #875, #1052, #952 ) ;
#1076 = FACE_OUTER_BOUND ( 'NONE', #610, .T. ) ;
#1077 = FACE_OUTER_BOUND ( 'NONE', #576, .T. ) ;
#1078 = CARTESIAN_POINT ( 'NONE',  ( 196.2332100219122708, -6.428722186132010741, 224.8937570693054795 ) ) ;
#1079 = EDGE_CURVE ( 'NONE', #890, #36, #833, .T. ) ;
#1080 = LINE ( 'NONE', #246, #969 ) ;
#1081 = CARTESIAN_POINT ( 'NONE',  ( 212.2332100219122424, -8.428722186132013405, 242.8937570693054795 ) ) ;
ENDSEC;
END-ISO-10303-21;
