ISO-10303-21;
HEADER;
FILE_DESCRIPTION (( 'STEP AP214' ),
    '1' );
FILE_NAME ('box cap.STEP',
    '2026-05-17T10:56:14',
    ( '' ),
    ( '' ),
    'SwSTEP 2.0',
    'SolidWorks 2026',
    '' );
FILE_SCHEMA (( 'AUTOMOTIVE_DESIGN' ));
ENDSEC;

DATA;
#1 = CARTESIAN_POINT ( 'NONE',  ( 0.000000000000000000, 85.00000000000000000, 7.000000000000000000 ) ) ;
#2 = EDGE_CURVE ( 'NONE', #52, #487, #590, .T. ) ;
#3 = DIRECTION ( 'NONE',  ( -0.000000000000000000, -0.000000000000000000, -1.000000000000000000 ) ) ;
#4 = ORIENTED_EDGE ( 'NONE', *, *, #187, .T. ) ;
#5 = ORIENTED_EDGE ( 'NONE', *, *, #304, .T. ) ;
#6 = CARTESIAN_POINT ( 'NONE',  ( -0.1411927928234234519, 53.01320770823510031, 13.27414044047261399 ) ) ;
#7 = VECTOR ( 'NONE', #450, 1000.000000000000000 ) ;
#8 = CARTESIAN_POINT ( 'NONE',  ( 2.000000000000000000, 53.01320770823508610, 12.00000000000000000 ) ) ;
#9 = FACE_OUTER_BOUND ( 'NONE', #720, .T. ) ;
#10 = EDGE_CURVE ( 'NONE', #806, #693, #535, .T. ) ;
#11 = ORIENTED_EDGE ( 'NONE', *, *, #536, .F. ) ;
#12 = ORIENTED_EDGE ( 'NONE', *, *, #516, .T. ) ;
#13 = VERTEX_POINT ( 'NONE', #496 ) ;
#14 = FACE_OUTER_BOUND ( 'NONE', #47, .T. ) ;
#15 = EDGE_CURVE ( 'NONE', #637, #685, #109, .T. ) ;
#16 = AXIS2_PLACEMENT_3D ( 'NONE', #723, #523, #192 ) ;
#17 = ORIENTED_EDGE ( 'NONE', *, *, #484, .T. ) ;
#18 = ORIENTED_EDGE ( 'NONE', *, *, #320, .T. ) ;
#19 = ORIENTED_EDGE ( 'NONE', *, *, #266, .F. ) ;
#20 = CARTESIAN_POINT ( 'NONE',  ( 2.000000000000000000, 83.00000000000000000, 7.000000000000000000 ) ) ;
#21 = ORIENTED_EDGE ( 'NONE', *, *, #110, .F. ) ;
#22 = DIRECTION ( 'NONE',  ( 1.000000000000000000, -0.000000000000000000, 0.000000000000000000 ) ) ;
#23 = ORIENTED_EDGE ( 'NONE', *, *, #10, .T. ) ;
#24 = CARTESIAN_POINT ( 'NONE',  ( 0.000000000000000000, 53.01320770823508610, 12.00000000000000000 ) ) ;
#25 = DIRECTION ( 'NONE',  ( -1.000000000000000000, -0.000000000000000000, -0.000000000000000000 ) ) ;
#26 = DIRECTION ( 'NONE',  ( 0.000000000000000000, -1.000000000000000000, 0.000000000000000000 ) ) ;
#27 = ORIENTED_EDGE ( 'NONE', *, *, #69, .T. ) ;
#28 = ORIENTED_EDGE ( 'NONE', *, *, #59, .T. ) ;
#29 = ORIENTED_EDGE ( 'NONE', *, *, #559, .T. ) ;
#30 = ADVANCED_FACE ( 'NONE', ( #684 ), #668, .T. ) ;
#31 = DIRECTION ( 'NONE',  ( 0.000000000000000000, -1.000000000000000000, 0.000000000000000000 ) ) ;
#32 = DIRECTION ( 'NONE',  ( -0.000000000000000000, -1.000000000000000000, -0.000000000000000000 ) ) ;
#33 = LINE ( 'NONE', #612, #105 ) ;
#34 = CARTESIAN_POINT ( 'NONE',  ( 0.000000000000000000, 85.00000000000000000, 0.000000000000000000 ) ) ;
#35 = LINE ( 'NONE', #558, #407 ) ;
#36 = CARTESIAN_POINT ( 'NONE',  ( -0.1411927928234234519, 33.01320770823509321, 13.27414044047261399 ) ) ;
#37 = EDGE_LOOP ( 'NONE', ( #645, #199, #788, #371 ) ) ;
#38 = CARTESIAN_POINT ( 'NONE',  ( 128.0000000000000000, 2.000000000000000000, 7.000000000000000000 ) ) ;
#39 = AXIS2_PLACEMENT_3D ( 'NONE', #223, #483, #738 ) ;
#40 = AXIS2_PLACEMENT_3D ( 'NONE', #361, #346, #218 ) ;
#41 = CARTESIAN_POINT ( 'NONE',  ( 2.000000000000000000, 0.000000000000000000, 2.000000000000000000 ) ) ;
#42 = CARTESIAN_POINT ( 'NONE',  ( 0.4999999999999987232, 37.50000000000001421, 9.000000000000001776 ) ) ;
#43 = CARTESIAN_POINT ( 'NONE',  ( 2.000000000000000000, 0.000000000000000000, 9.000000000000001776 ) ) ;
#44 = ORIENTED_EDGE ( 'NONE', *, *, #572, .T. ) ;
#45 = PRODUCT_DEFINITION_CONTEXT ( 'detailed design', #335, 'design' ) ;
#46 = ADVANCED_FACE ( 'NONE', ( #297 ), #357, .T. ) ;
#47 = EDGE_LOOP ( 'NONE', ( #387, #657, #789, #67 ) ) ;
#48 = CARTESIAN_POINT ( 'NONE',  ( 2.749999999999999112, 47.50000000000001421, 9.000000000000001776 ) ) ;
#49 = VECTOR ( 'NONE', #443, 1000.000000000000000 ) ;
#50 = EDGE_CURVE ( 'NONE', #136, #614, #822, .T. ) ;
#51 = CARTESIAN_POINT ( 'NONE',  ( 2.000000000000000000, 31.01320770823508965, 9.000000000000001776 ) ) ;
#52 = VERTEX_POINT ( 'NONE', #167 ) ;
#53 = DIRECTION ( 'NONE',  ( -0.000000000000000000, 1.000000000000000000, -0.000000000000000000 ) ) ;
#54 = DIRECTION ( 'NONE',  ( 0.000000000000000000, 0.000000000000000000, 1.000000000000000000 ) ) ;
#55 = EDGE_LOOP ( 'NONE', ( #19, #578, #18, #790 ) ) ;
#56 = FACE_OUTER_BOUND ( 'NONE', #821, .T. ) ;
#57 = ORIENTED_EDGE ( 'NONE', *, *, #476, .F. ) ;
#58 = UNCERTAINTY_MEASURE_WITH_UNIT (LENGTH_MEASURE( 1.000000000000000082E-05 ), #658, 'distance_accuracy_value', 'NONE');
#59 = EDGE_CURVE ( 'NONE', #730, #733, #253, .T. ) ;
#60 = LINE ( 'NONE', #626, #349 ) ;
#61 = ORIENTED_EDGE ( 'NONE', *, *, #714, .T. ) ;
#62 = VECTOR ( 'NONE', #679, 1000.000000000000000 ) ;
#63 = ORIENTED_EDGE ( 'NONE', *, *, #397, .T. ) ;
#64 = DIRECTION ( 'NONE',  ( -0.7508514187010255636, -0.000000000000000000, -0.6604711553388666889 ) ) ;
#65 = CARTESIAN_POINT ( 'NONE',  ( 2.000000000000000000, 48.25000000000001421, 7.000000000000000000 ) ) ;
#66 = DIRECTION ( 'NONE',  ( -0.000000000000000000, -0.000000000000000000, -1.000000000000000000 ) ) ;
#67 = ORIENTED_EDGE ( 'NONE', *, *, #347, .T. ) ;
#68 = CARTESIAN_POINT ( 'NONE',  ( 0.000000000000000000, 31.01320770823508965, 9.000000000000001776 ) ) ;
#69 = EDGE_CURVE ( 'NONE', #13, #799, #489, .T. ) ;
#70 = ORIENTED_EDGE ( 'NONE', *, *, #500, .F. ) ;
#71 = VERTEX_POINT ( 'NONE', #91 ) ;
#72 = ORIENTED_EDGE ( 'NONE', *, *, #320, .F. ) ;
#73 = FACE_OUTER_BOUND ( 'NONE', #348, .T. ) ;
#74 = CARTESIAN_POINT ( 'NONE',  ( 0.000000000000000000, 85.00000000000000000, 7.000000000000000000 ) ) ;
#75 = AXIS2_PLACEMENT_3D ( 'NONE', #440, #119, #374 ) ;
#76 = ORIENTED_EDGE ( 'NONE', *, *, #110, .T. ) ;
#77 = DIRECTION ( 'NONE',  ( 1.000000000000000000, 0.000000000000000000, 0.000000000000000000 ) ) ;
#78 = B_SPLINE_CURVE_WITH_KNOTS ( 'NONE', 3,
 ( #568, #632, #310, #190 ),
 .UNSPECIFIED., .F., .F.,
 ( 4, 4 ),
 ( 0.000000000000000000, 1.000000000000000000 ),
 .UNSPECIFIED. ) ;
#79 = ORIENTED_EDGE ( 'NONE', *, *, #251, .F. ) ;
#80 = DIRECTION ( 'NONE',  ( 0.000000000000000000, 0.000000000000000000, -1.000000000000000000 ) ) ;
#81 = EDGE_CURVE ( 'NONE', #693, #121, #35, .T. ) ;
#82 = VERTEX_POINT ( 'NONE', #155 ) ;
#83 = FACE_OUTER_BOUND ( 'NONE', #85, .T. ) ;
#84 = ORIENTED_EDGE ( 'NONE', *, *, #633, .F. ) ;
#85 = EDGE_LOOP ( 'NONE', ( #666, #660, #23, #369 ) ) ;
#86 =( NAMED_UNIT ( * ) PLANE_ANGLE_UNIT ( ) SI_UNIT ( $, .RADIAN. ) );
#87 = EDGE_LOOP ( 'NONE', ( #216, #358, #57, #303, #21, #5 ) ) ;
#88 = DIRECTION ( 'NONE',  ( -1.000000000000000000, 0.000000000000000000, 0.000000000000000000 ) ) ;
#89 = ADVANCED_FACE ( 'NONE', ( #745 ), #415, .T. ) ;
#90 = DIRECTION ( 'NONE',  ( 0.000000000000000000, -1.000000000000000000, 0.000000000000000000 ) ) ;
#91 = CARTESIAN_POINT ( 'NONE',  ( 3.499999999999998668, 37.50000000000001421, 7.000000000000000000 ) ) ;
#92 = DIRECTION ( 'NONE',  ( 0.000000000000000000, -1.000000000000000000, 0.000000000000000000 ) ) ;
#93 = CARTESIAN_POINT ( 'NONE',  ( 2.000000000000000000, 53.01320770823508610, 12.00000000000000000 ) ) ;
#94 = VECTOR ( 'NONE', #438, 1000.000000000000000 ) ;
#95 = DIRECTION ( 'NONE',  ( -1.000000000000000000, 0.000000000000000000, 0.000000000000000000 ) ) ;
#96 = FACE_OUTER_BOUND ( 'NONE', #343, .T. ) ;
#97 = ADVANCED_FACE ( 'NONE', ( #96 ), #286, .F. ) ;
#98 = ADVANCED_FACE ( 'NONE', ( #164 ), #425, .T. ) ;
#99 = CARTESIAN_POINT ( 'NONE',  ( 2.000000000000000000, 33.01320770823509321, 9.000000000000001776 ) ) ;
#100 = FACE_OUTER_BOUND ( 'NONE', #329, .T. ) ;
#101 = CARTESIAN_POINT ( 'NONE',  ( 0.3148066317760492283, 33.01320770823509321, 14.90414148690795137 ) ) ;
#102 = CARTESIAN_POINT ( 'NONE',  ( 0.000000000000000000, 0.000000000000000000, 0.000000000000000000 ) ) ;
#103 = DIRECTION ( 'NONE',  ( -0.000000000000000000, -0.000000000000000000, 1.000000000000000000 ) ) ;
#104 = CARTESIAN_POINT ( 'NONE',  ( 130.0000000000000000, 0.000000000000000000, 7.000000000000000000 ) ) ;
#105 = VECTOR ( 'NONE', #26, 1000.000000000000000 ) ;
#106 = ORIENTED_EDGE ( 'NONE', *, *, #416, .T. ) ;
#107 = CARTESIAN_POINT ( 'NONE',  ( 130.0000000000000000, 85.00000000000000000, 0.000000000000000000 ) ) ;
#108 = VERTEX_POINT ( 'NONE', #570 ) ;
#109 = LINE ( 'NONE', #420, #280 ) ;
#110 = EDGE_CURVE ( 'NONE', #241, #71, #629, .T. ) ;
#111 = ORIENTED_EDGE ( 'NONE', *, *, #563, .T. ) ;
#112 = CARTESIAN_POINT ( 'NONE',  ( -1.996604378834679672, 53.01320770823510031, 15.07105976814244386 ) ) ;
#113 = EDGE_CURVE ( 'NONE', #472, #316, #514, .T. ) ;
#114 = DIRECTION ( 'NONE',  ( -1.000000000000000000, 0.000000000000000000, 0.000000000000000000 ) ) ;
#115 = ORIENTED_EDGE ( 'NONE', *, *, #243, .F. ) ;
#116 = PLANE ( 'NONE',  #696 ) ;
#117 = PLANE ( 'NONE',  #405 ) ;
#118 = STYLED_ITEM ( 'NONE', ( #408 ), #284 ) ;
#119 = DIRECTION ( 'NONE',  ( -1.000000000000000000, -0.000000000000000000, -0.000000000000000000 ) ) ;
#120 = CIRCLE ( 'NONE', #301, 0.7499999999999997780 ) ;
#121 = VERTEX_POINT ( 'NONE', #233 ) ;
#122 = DIRECTION ( 'NONE',  ( 0.000000000000000000, -0.000000000000000000, 1.000000000000000000 ) ) ;
#123 = LINE ( 'NONE', #577, #608 ) ;
#124 = DIRECTION ( 'NONE',  ( -1.000000000000000000, 0.000000000000000000, -0.000000000000000000 ) ) ;
#125 = DIRECTION ( 'NONE',  ( 0.000000000000000000, 0.000000000000000000, 1.000000000000000000 ) ) ;
#126 = EDGE_CURVE ( 'NONE', #781, #393, #763, .T. ) ;
#127 = ORIENTED_EDGE ( 'NONE', *, *, #81, .F. ) ;
#128 = CARTESIAN_POINT ( 'NONE',  ( 0.000000000000000000, 85.00000000000000000, 7.000000000000000000 ) ) ;
#129 = CARTESIAN_POINT ( 'NONE',  ( 130.0000000000000000, 0.000000000000000000, 0.000000000000000000 ) ) ;
#130 = DIRECTION ( 'NONE',  ( 0.000000000000000000, 0.000000000000000000, -1.000000000000000000 ) ) ;
#131 = PRODUCT_DEFINITION_SHAPE ( 'NONE', 'NONE',  #324 ) ;
#132 = EDGE_LOOP ( 'NONE', ( #482, #152, #11, #795 ) ) ;
#133 = LINE ( 'NONE', #791, #235 ) ;
#134 = CARTESIAN_POINT ( 'NONE',  ( 128.0000000000000000, 83.00000000000000000, 7.000000000000000000 ) ) ;
#135 = ADVANCED_FACE ( 'NONE', ( #519 ), #117, .F. ) ;
#136 = VERTEX_POINT ( 'NONE', #242 ) ;
#137 = DIRECTION ( 'NONE',  ( 0.000000000000000000, 1.000000000000000000, 0.000000000000000000 ) ) ;
#138 = ORIENTED_EDGE ( 'NONE', *, *, #226, .T. ) ;
#139 = EDGE_CURVE ( 'NONE', #267, #623, #317, .T. ) ;
#140 = ORIENTED_EDGE ( 'NONE', *, *, #633, .T. ) ;
#141 = SURFACE_STYLE_FILL_AREA ( #646 ) ;
#142 = ORIENTED_EDGE ( 'NONE', *, *, #516, .F. ) ;
#143 = AXIS2_PLACEMENT_3D ( 'NONE', #611, #156, #88 ) ;
#144 = CARTESIAN_POINT ( 'NONE',  ( 2.000000000000000000, 55.01320770823509321, 7.000000000000000000 ) ) ;
#145 = VECTOR ( 'NONE', #824, 1000.000000000000000 ) ;
#146 = ORIENTED_EDGE ( 'NONE', *, *, #113, .T. ) ;
#147 = ORIENTED_EDGE ( 'NONE', *, *, #607, .T. ) ;
#148 = ORIENTED_EDGE ( 'NONE', *, *, #428, .F. ) ;
#149 = SURFACE_SIDE_STYLE ('',( #141 ) ) ;
#150 = EDGE_LOOP ( 'NONE', ( #327, #525, #704, #203, #398, #765, #521, #378, #255, #716 ) ) ;
#151 =( NAMED_UNIT ( * ) PLANE_ANGLE_UNIT ( ) SI_UNIT ( $, .RADIAN. ) );
#152 = ORIENTED_EDGE ( 'NONE', *, *, #410, .F. ) ;
#153 = ORIENTED_EDGE ( 'NONE', *, *, #782, .T. ) ;
#154 = FACE_OUTER_BOUND ( 'NONE', #132, .T. ) ;
#155 = CARTESIAN_POINT ( 'NONE',  ( 3.499999999999998668, 47.50000000000001421, 7.000000000000000000 ) ) ;
#156 = DIRECTION ( 'NONE',  ( 0.000000000000000000, 0.000000000000000000, -1.000000000000000000 ) ) ;
#157 = ORIENTED_EDGE ( 'NONE', *, *, #367, .T. ) ;
#158 = AXIS2_PLACEMENT_3D ( 'NONE', #589, #783, #229 ) ;
#159 = CARTESIAN_POINT ( 'NONE',  ( -1.996604378834679672, 33.01320770823509321, 15.07105976814244386 ) ) ;
#160 = VECTOR ( 'NONE', #198, 1000.000000000000000 ) ;
#161 = EDGE_CURVE ( 'NONE', #685, #316, #512, .T. ) ;
#162 = DIRECTION ( 'NONE',  ( -0.000000000000000000, -0.000000000000000000, -1.000000000000000000 ) ) ;
#163 = FACE_OUTER_BOUND ( 'NONE', #311, .T. ) ;
#164 = FACE_OUTER_BOUND ( 'NONE', #400, .T. ) ;
#165 = CARTESIAN_POINT ( 'NONE',  ( -1.996604378834679672, 33.01320770823509321, 15.07105976814244386 ) ) ;
#166 = CARTESIAN_POINT ( 'NONE',  ( 1.512422913767542676, 33.01320770823509321, 13.63560506839216480 ) ) ;
#167 = CARTESIAN_POINT ( 'NONE',  ( -0.8726226608988807421, 33.01320770823509321, 16.05974739040078703 ) ) ;
#168 = VERTEX_POINT ( 'NONE', #779 ) ;
#169 = LINE ( 'NONE', #603, #249 ) ;
#170 = CARTESIAN_POINT ( 'NONE',  ( 2.000000000000000000, 53.01320770823510031, 12.00000000000000000 ) ) ;
#171 = FACE_OUTER_BOUND ( 'NONE', #261, .T. ) ;
#172 = AXIS2_PLACEMENT_3D ( 'NONE', #370, #237, #504 ) ;
#173 = EDGE_LOOP ( 'NONE', ( #345, #246, #591, #12 ) ) ;
#174 = CARTESIAN_POINT ( 'NONE',  ( 0.000000000000000000, 83.00000000000000000, 2.000000000000000000 ) ) ;
#175 = LINE ( 'NONE', #437, #701 ) ;
#176 = VERTEX_POINT ( 'NONE', #188 ) ;
#177 = CARTESIAN_POINT ( 'NONE',  ( 128.0000000000000000, 2.000000000000000000, 2.000000000000000000 ) ) ;
#178 = DIRECTION ( 'NONE',  ( 0.000000000000000000, -0.000000000000000000, -1.000000000000000000 ) ) ;
#179 = PRODUCT_RELATED_PRODUCT_CATEGORY ( 'part', '', ( #254 ) ) ;
#180 = LINE ( 'NONE', #240, #196 ) ;
#181 = PRODUCT_CONTEXT ( 'NONE', #230, 'mechanical' ) ;
#182 = VECTOR ( 'NONE', #513, 1000.000000000000000 ) ;
#183 = EDGE_CURVE ( 'NONE', #596, #466, #123, .T. ) ;
#184 = VECTOR ( 'NONE', #162, 1000.000000000000000 ) ;
#185 = AXIS2_PLACEMENT_3D ( 'NONE', #794, #323, #341 ) ;
#186 = LINE ( 'NONE', #236, #567 ) ;
#187 = EDGE_CURVE ( 'NONE', #121, #699, #759, .T. ) ;
#188 = CARTESIAN_POINT ( 'NONE',  ( 2.000000000000000000, 31.01320770823508965, 7.000000000000000000 ) ) ;
#189 = FACE_OUTER_BOUND ( 'NONE', #55, .T. ) ;
#190 = CARTESIAN_POINT ( 'NONE',  ( -0.8726226608988807421, 53.01320770823510031, 16.05974739040078703 ) ) ;
#191 = ORIENTED_EDGE ( 'NONE', *, *, #10, .F. ) ;
#192 = DIRECTION ( 'NONE',  ( 0.000000000000000000, -0.000000000000000000, 1.000000000000000000 ) ) ;
#193 = DIRECTION ( 'NONE',  ( 0.000000000000000000, 0.000000000000000000, -1.000000000000000000 ) ) ;
#194 =( GEOMETRIC_REPRESENTATION_CONTEXT ( 3 ) GLOBAL_UNCERTAINTY_ASSIGNED_CONTEXT ( ( #58 ) ) GLOBAL_UNIT_ASSIGNED_CONTEXT ( ( #658, #86, #717 ) ) REPRESENTATION_CONTEXT ( 'NONE', 'WORKASPACE' ) );
#195 = ORIENTED_EDGE ( 'NONE', *, *, #427, .T. ) ;
#196 = VECTOR ( 'NONE', #508, 1000.000000000000000 ) ;
#197 = ORIENTED_EDGE ( 'NONE', *, *, #518, .F. ) ;
#198 = DIRECTION ( 'NONE',  ( -0.000000000000000000, -1.000000000000000000, -0.000000000000000000 ) ) ;
#199 = ORIENTED_EDGE ( 'NONE', *, *, #375, .F. ) ;
#200 = AXIS2_PLACEMENT_3D ( 'NONE', #293, #32, #430 ) ;
#201 = CARTESIAN_POINT ( 'NONE',  ( 130.0000000000000000, 85.00000000000000000, 7.000000000000000000 ) ) ;
#202 = ORIENTED_EDGE ( 'NONE', *, *, #397, .F. ) ;
#203 = ORIENTED_EDGE ( 'NONE', *, *, #139, .F. ) ;
#204 = ORIENTED_EDGE ( 'NONE', *, *, #375, .T. ) ;
#205 = DIRECTION ( 'NONE',  ( -1.000000000000000000, 0.000000000000000000, 0.000000000000000000 ) ) ;
#206 = VERTEX_POINT ( 'NONE', #321 ) ;
#207 = DIRECTION ( 'NONE',  ( 0.000000000000000000, 1.000000000000000000, 0.000000000000000000 ) ) ;
#208 = VERTEX_POINT ( 'NONE', #522 ) ;
#209 = LINE ( 'NONE', #461, #564 ) ;
#210 = CARTESIAN_POINT ( 'NONE',  ( 2.749999999999999112, 47.50000000000001421, 8.250000000000000000 ) ) ;
#211 = ORIENTED_EDGE ( 'NONE', *, *, #439, .F. ) ;
#212 = FACE_OUTER_BOUND ( 'NONE', #532, .T. ) ;
#213 = CARTESIAN_POINT ( 'NONE',  ( 128.0000000000000000, 0.000000000000000000, 2.000000000000000000 ) ) ;
#214 = ORIENTED_EDGE ( 'NONE', *, *, #428, .T. ) ;
#215 = AXIS2_PLACEMENT_3D ( 'NONE', #551, #814, #224 ) ;
#216 = ORIENTED_EDGE ( 'NONE', *, *, #183, .F. ) ;
#217 = DIRECTION ( 'NONE',  ( 0.000000000000000000, 0.000000000000000000, 1.000000000000000000 ) ) ;
#218 = DIRECTION ( 'NONE',  ( 0.000000000000000000, -0.000000000000000000, 1.000000000000000000 ) ) ;
#219 = ORIENTED_EDGE ( 'NONE', *, *, #381, .F. ) ;
#220 = CARTESIAN_POINT ( 'NONE',  ( 3.499999999999998668, 47.50000000000001421, 9.000000000000001776 ) ) ;
#221 = B_SPLINE_CURVE_WITH_KNOTS ( 'NONE', 3,
 ( #562, #573, #6, #774 ),
 .UNSPECIFIED., .F., .F.,
 ( 4, 4 ),
 ( 0.000000000000000000, 1.000000000000000000 ),
 .UNSPECIFIED. ) ;
#222 = DIRECTION ( 'NONE',  ( 0.000000000000000000, 0.000000000000000000, -1.000000000000000000 ) ) ;
#223 = CARTESIAN_POINT ( 'NONE',  ( 2.750000000000000000, 48.25000000000001421, 7.000000000000000000 ) ) ;
#224 = DIRECTION ( 'NONE',  ( -1.000000000000000000, 0.000000000000000000, -0.000000000000000000 ) ) ;
#225 = AXIS2_PLACEMENT_3D ( 'NONE', #368, #828, #54 ) ;
#226 = EDGE_CURVE ( 'NONE', #108, #699, #586, .T. ) ;
#227 = CARTESIAN_POINT ( 'NONE',  ( -0.8726226608988807421, 53.01320770823510031, 16.05974739040078703 ) ) ;
#228 = CARTESIAN_POINT ( 'NONE',  ( -0.1411927928234234519, 33.01320770823509321, 13.27414044047261399 ) ) ;
#229 = DIRECTION ( 'NONE',  ( -1.000000000000000000, 0.000000000000000000, -0.000000000000000000 ) ) ;
#230 = APPLICATION_CONTEXT ( 'automotive_design' ) ;
#231 = CARTESIAN_POINT ( 'NONE',  ( 2.000000000000000000, 55.01320770823509321, 7.000000000000000000 ) ) ;
#232 = ORIENTED_EDGE ( 'NONE', *, *, #381, .T. ) ;
#233 = CARTESIAN_POINT ( 'NONE',  ( 128.0000000000000000, 83.00000000000000000, 2.000000000000000000 ) ) ;
#234 = VECTOR ( 'NONE', #295, 1000.000000000000000 ) ;
#235 = VECTOR ( 'NONE', #66, 1000.000000000000000 ) ;
#236 = CARTESIAN_POINT ( 'NONE',  ( 0.000000000000000000, 53.01320770823508610, 12.00000000000000000 ) ) ;
#237 = DIRECTION ( 'NONE',  ( -1.000000000000000000, 0.000000000000000000, 0.000000000000000000 ) ) ;
#238 = CARTESIAN_POINT ( 'NONE',  ( -1.996604378834679672, 53.01320770823510031, 15.07105976814244386 ) ) ;
#239 = VECTOR ( 'NONE', #749, 1000.000000000000000 ) ;
#240 = CARTESIAN_POINT ( 'NONE',  ( 0.000000000000000000, 53.01320770823508610, 12.00000000000000000 ) ) ;
#241 = VERTEX_POINT ( 'NONE', #338 ) ;
#242 = CARTESIAN_POINT ( 'NONE',  ( 2.000000000000000000, 2.000000000000000000, 7.000000000000000000 ) ) ;
#243 = EDGE_CURVE ( 'NONE', #442, #641, #712, .T. ) ;
#244 = CARTESIAN_POINT ( 'NONE',  ( 0.000000000000000000, 85.00000000000000000, 7.000000000000000000 ) ) ;
#245 = DIRECTION ( 'NONE',  ( -1.000000000000000000, 0.000000000000000000, 0.000000000000000000 ) ) ;
#246 = ORIENTED_EDGE ( 'NONE', *, *, #385, .F. ) ;
#247 = DIRECTION ( 'NONE',  ( 1.000000000000000000, 0.000000000000000000, 0.000000000000000000 ) ) ;
#248 = PRODUCT_DEFINITION_FORMATION_WITH_SPECIFIED_SOURCE ( 'ANY', '', #254, .NOT_KNOWN. ) ;
#249 = VECTOR ( 'NONE', #609, 1000.000000000000000 ) ;
#250 = CARTESIAN_POINT ( 'NONE',  ( 0.000000000000000000, 0.000000000000000000, 0.000000000000000000 ) ) ;
#251 = EDGE_CURVE ( 'NONE', #730, #71, #133, .T. ) ;
#252 = VECTOR ( 'NONE', #53, 1000.000000000000000 ) ;
#253 = CIRCLE ( 'NONE', #200, 0.7500000000000006661 ) ;
#254 = PRODUCT ( 'box cap', 'box cap', '', ( #181 ) ) ;
#255 = ORIENTED_EDGE ( 'NONE', *, *, #416, .F. ) ;
#256 = EDGE_CURVE ( 'NONE', #637, #472, #592, .T. ) ;
#257 = DIRECTION ( 'NONE',  ( -0.000000000000000000, -0.000000000000000000, -1.000000000000000000 ) ) ;
#258 = EDGE_LOOP ( 'NONE', ( #803, #17, #510, #710 ) ) ;
#259 = FACE_OUTER_BOUND ( 'NONE', #265, .T. ) ;
#260 = VECTOR ( 'NONE', #744, 1000.000000000000000 ) ;
#261 = EDGE_LOOP ( 'NONE', ( #540, #340, #140, #742 ) ) ;
#262 = DIRECTION ( 'NONE',  ( 1.000000000000000000, 0.000000000000000000, 0.000000000000000000 ) ) ;
#263 = CARTESIAN_POINT ( 'NONE',  ( 0.000000000000000000, 55.01320770823509321, 9.000000000000001776 ) ) ;
#264 = EDGE_CURVE ( 'NONE', #296, #208, #209, .T. ) ;
#265 = EDGE_LOOP ( 'NONE', ( #718, #211, #115, #638 ) ) ;
#266 = EDGE_CURVE ( 'NONE', #614, #460, #652, .T. ) ;
#267 = VERTEX_POINT ( 'NONE', #268 ) ;
#268 = CARTESIAN_POINT ( 'NONE',  ( 2.000000000000000000, 33.01320770823509321, 12.00000000000000000 ) ) ;
#269 = ORIENTED_EDGE ( 'NONE', *, *, #161, .T. ) ;
#270 = PLANE ( 'NONE',  #515 ) ;
#271 = VECTOR ( 'NONE', #217, 1000.000000000000000 ) ;
#272 = ORIENTED_EDGE ( 'NONE', *, *, #139, .T. ) ;
#273 = CIRCLE ( 'NONE', #698, 0.7499999999999997780 ) ;
#274 = LINE ( 'NONE', #761, #7 ) ;
#275 = VERTEX_POINT ( 'NONE', #144 ) ;
#276 = EDGE_CURVE ( 'NONE', #664, #641, #394, .T. ) ;
#277 = VERTEX_POINT ( 'NONE', #477 ) ;
#278 = VERTEX_POINT ( 'NONE', #731 ) ;
#279 = DIRECTION ( 'NONE',  ( 0.000000000000000000, 0.000000000000000000, -1.000000000000000000 ) ) ;
#280 = VECTOR ( 'NONE', #290, 1000.000000000000000 ) ;
#281 = CARTESIAN_POINT ( 'NONE',  ( -1.013779451389951181, 53.01320770823510031, 14.32571986627628213 ) ) ;
#282 = CARTESIAN_POINT ( 'NONE',  ( 2.000000000000000000, 0.000000000000000000, 7.000000000000000000 ) ) ;
#283 = LINE ( 'NONE', #38, #530 ) ;
#284 = MANIFOLD_SOLID_BREP ( 'Boss-Extrude7', #649 ) ;
#285 = LINE ( 'NONE', #362, #363 ) ;
#286 = PLANE ( 'NONE',  #215 ) ;
#287 = ORIENTED_EDGE ( 'NONE', *, *, #304, .F. ) ;
#288 = CARTESIAN_POINT ( 'NONE',  ( 2.000000000000000000, 48.25000000000001421, 7.000000000000000000 ) ) ;
#289 = DIRECTION ( 'NONE',  ( 0.000000000000000000, 0.000000000000000000, -1.000000000000000000 ) ) ;
#290 = DIRECTION ( 'NONE',  ( 0.000000000000000000, 1.000000000000000000, 0.000000000000000000 ) ) ;
#291 = DIRECTION ( 'NONE',  ( 0.000000000000000000, 0.000000000000000000, 1.000000000000000000 ) ) ;
#292 = AXIS2_PLACEMENT_3D ( 'NONE', #404, #481, #531 ) ;
#293 = CARTESIAN_POINT ( 'NONE',  ( 2.749999999999999112, 37.50000000000001421, 8.250000000000000000 ) ) ;
#294 = ADVANCED_FACE ( 'NONE', ( #73 ), #333, .T. ) ;
#295 = DIRECTION ( 'NONE',  ( -1.000000000000000000, -0.000000000000000000, -0.000000000000000000 ) ) ;
#296 = VERTEX_POINT ( 'NONE', #756 ) ;
#297 = FACE_OUTER_BOUND ( 'NONE', #805, .T. ) ;
#298 = AXIS2_PLACEMENT_3D ( 'NONE', #24, #92, #677 ) ;
#299 = DIRECTION ( 'NONE',  ( 1.000000000000000000, -0.000000000000000000, -0.000000000000000000 ) ) ;
#300 = UNCERTAINTY_MEASURE_WITH_UNIT (LENGTH_MEASURE( 1.000000000000000082E-05 ), #734, 'distance_accuracy_value', 'NONE');
#301 = AXIS2_PLACEMENT_3D ( 'NONE', #452, #709, #114 ) ;
#302 = CYLINDRICAL_SURFACE ( 'NONE', #330, 0.7500000000000006661 ) ;
#303 = ORIENTED_EDGE ( 'NONE', *, *, #674, .F. ) ;
#304 = EDGE_CURVE ( 'NONE', #241, #466, #273, .T. ) ;
#305 = LINE ( 'NONE', #622, #234 ) ;
#306 = APPLICATION_PROTOCOL_DEFINITION ( 'draft international standard', 'automotive_design', 1998, #335 ) ;
#307 = LINE ( 'NONE', #571, #457 ) ;
#308 = ORIENTED_EDGE ( 'NONE', *, *, #183, .T. ) ;
#309 = LINE ( 'NONE', #128, #182 ) ;
#310 = CARTESIAN_POINT ( 'NONE',  ( 0.3148066317760492283, 53.01320770823510031, 14.90414148690795137 ) ) ;
#311 = EDGE_LOOP ( 'NONE', ( #812, #583, #61, #768 ) ) ;
#312 = CARTESIAN_POINT ( 'NONE',  ( 2.000000000000000000, 48.25000000000001421, 9.000000000000001776 ) ) ;
#313 = AXIS2_PLACEMENT_3D ( 'NONE', #380, #818, #421 ) ;
#314 = ADVANCED_FACE ( 'NONE', ( #154 ), #413, .F. ) ;
#315 = LINE ( 'NONE', #250, #587 ) ;
#316 = VERTEX_POINT ( 'NONE', #107 ) ;
#317 = LINE ( 'NONE', #8, #252 ) ;
#318 = ORIENTED_EDGE ( 'NONE', *, *, #697, .F. ) ;
#319 = LINE ( 'NONE', #663, #662 ) ;
#320 = EDGE_CURVE ( 'NONE', #136, #806, #671, .T. ) ;
#321 = CARTESIAN_POINT ( 'NONE',  ( 0.000000000000000000, 33.01320770823509321, 9.000000000000001776 ) ) ;
#322 = EDGE_LOOP ( 'NONE', ( #325, #470, #736, #111, #219, #142, #785, #386, #653, #539 ) ) ;
#323 = DIRECTION ( 'NONE',  ( -1.000000000000000000, 0.000000000000000000, 0.000000000000000000 ) ) ;
#324 = PRODUCT_DEFINITION ( 'UNKNOWN', '', #248, #45 ) ;
#325 = ORIENTED_EDGE ( 'NONE', *, *, #695, .T. ) ;
#326 = DIRECTION ( 'NONE',  ( -0.000000000000000000, -1.000000000000000000, -0.000000000000000000 ) ) ;
#327 = ORIENTED_EDGE ( 'NONE', *, *, #332, .T. ) ;
#328 = VECTOR ( 'NONE', #31, 1000.000000000000000 ) ;
#329 = EDGE_LOOP ( 'NONE', ( #287, #202, #669, #667 ) ) ;
#330 = AXIS2_PLACEMENT_3D ( 'NONE', #636, #503, #764 ) ;
#331 = ORIENTED_EDGE ( 'NONE', *, *, #541, .F. ) ;
#332 = EDGE_CURVE ( 'NONE', #108, #275, #429, .T. ) ;
#333 = PLANE ( 'NONE',  #158 ) ;
#334 = ORIENTED_EDGE ( 'NONE', *, *, #665, .T. ) ;
#335 = APPLICATION_CONTEXT ( 'automotive_design' ) ;
#336 = CARTESIAN_POINT ( 'NONE',  ( 2.000000000000000000, 2.000000000000000000, 2.000000000000000000 ) ) ;
#337 = ORIENTED_EDGE ( 'NONE', *, *, #59, .F. ) ;
#338 = CARTESIAN_POINT ( 'NONE',  ( 2.750000000000000000, 37.50000000000001421, 7.000000000000000000 ) ) ;
#339 = CARTESIAN_POINT ( 'NONE',  ( 0.000000000000000000, 0.000000000000000000, 0.000000000000000000 ) ) ;
#340 = ORIENTED_EDGE ( 'NONE', *, *, #802, .T. ) ;
#341 = DIRECTION ( 'NONE',  ( 0.000000000000000000, 0.000000000000000000, 1.000000000000000000 ) ) ;
#342 = EDGE_LOOP ( 'NONE', ( #713, #27, #157, #308 ) ) ;
#343 = EDGE_LOOP ( 'NONE', ( #106, #545, #395, #4 ) ) ;
#344 = CARTESIAN_POINT ( 'NONE',  ( 2.749999999999999112, 37.50000000000001421, 9.000000000000001776 ) ) ;
#345 = ORIENTED_EDGE ( 'NONE', *, *, #427, .F. ) ;
#346 = DIRECTION ( 'NONE',  ( 0.000000000000000000, 1.000000000000000000, 0.000000000000000000 ) ) ;
#347 = EDGE_CURVE ( 'NONE', #208, #728, #353, .T. ) ;
#348 = EDGE_LOOP ( 'NONE', ( #777, #581, #423, #656 ) ) ;
#349 = VECTOR ( 'NONE', #760, 1000.000000000000000 ) ;
#350 = AXIS2_PLACEMENT_3D ( 'NONE', #800, #823, #124 ) ;
#351 = DIRECTION ( 'NONE',  ( 0.000000000000000000, -1.000000000000000000, 0.000000000000000000 ) ) ;
#352 = CARTESIAN_POINT ( 'NONE',  ( -1.996604378834679672, 53.01320770823510031, 15.07105976814244386 ) ) ;
#353 = LINE ( 'NONE', #682, #184 ) ;
#354 = VECTOR ( 'NONE', #205, 1000.000000000000000 ) ;
#355 = CARTESIAN_POINT ( 'NONE',  ( 0.000000000000000000, 0.000000000000000000, 7.000000000000000000 ) ) ;
#356 = PLANE ( 'NONE',  #350 ) ;
#357 = B_SPLINE_SURFACE_WITH_KNOTS ( 'NONE', 3, 1, ( 
 ( #170, #561 ),
 ( #757, #618 ),
 ( #547, #101 ),
 ( #605, #811 ) ),
 .UNSPECIFIED., .F., .F., .F.,
 ( 4, 4 ),
 ( 2, 2 ),
 ( 0.000000000000000000, 1.000000000000000000 ),
 ( 0.000000000000000000, 1.000000000000000000 ),
 .UNSPECIFIED. ) ;
#358 = ORIENTED_EDGE ( 'NONE', *, *, #536, .T. ) ;
#359 = CARTESIAN_POINT ( 'NONE',  ( -1.013779451389951181, 33.01320770823509321, 14.32571986627628213 ) ) ;
#360 = DIRECTION ( 'NONE',  ( 0.000000000000000000, -1.000000000000000000, 0.000000000000000000 ) ) ;
#361 = CARTESIAN_POINT ( 'NONE',  ( 0.000000000000000000, 33.01320770823509321, 12.00000000000000000 ) ) ;
#362 = CARTESIAN_POINT ( 'NONE',  ( 2.750000000000000000, 37.50000000000001421, 9.000000000000001776 ) ) ;
#363 = VECTOR ( 'NONE', #422, 1000.000000000000000 ) ;
#364 = CARTESIAN_POINT ( 'NONE',  ( -0.1411927928234234519, 53.01320770823510031, 13.27414044047261399 ) ) ;
#365 = ORIENTED_EDGE ( 'NONE', *, *, #332, .F. ) ;
#366 = SHAPE_DEFINITION_REPRESENTATION ( #131, #455 ) ;
#367 = EDGE_CURVE ( 'NONE', #799, #596, #497, .T. ) ;
#368 = CARTESIAN_POINT ( 'NONE',  ( 3.499999999999998668, 37.50000000000001421, 9.000000000000001776 ) ) ;
#369 = ORIENTED_EDGE ( 'NONE', *, *, #81, .T. ) ;
#370 = CARTESIAN_POINT ( 'NONE',  ( 130.0000000000000000, 0.000000000000000000, 7.000000000000000000 ) ) ;
#371 = ORIENTED_EDGE ( 'NONE', *, *, #385, .T. ) ;
#372 = DIRECTION ( 'NONE',  ( 0.000000000000000000, -0.000000000000000000, -1.000000000000000000 ) ) ;
#373 = AXIS2_PLACEMENT_3D ( 'NONE', #210, #493, #80 ) ;
#374 = DIRECTION ( 'NONE',  ( 0.000000000000000000, 0.000000000000000000, -1.000000000000000000 ) ) ;
#375 = EDGE_CURVE ( 'NONE', #781, #52, #546, .T. ) ;
#376 = CARTESIAN_POINT ( 'NONE',  ( 0.000000000000000000, 53.01320770823508610, 9.000000000000001776 ) ) ;
#377 = CARTESIAN_POINT ( 'NONE',  ( 3.499999999999998668, 37.50000000000001421, 8.250000000000000000 ) ) ;
#378 = ORIENTED_EDGE ( 'NONE', *, *, #50, .T. ) ;
#379 = DIRECTION ( 'NONE',  ( -1.000000000000000000, -0.000000000000000000, -0.000000000000000000 ) ) ;
#380 = CARTESIAN_POINT ( 'NONE',  ( 2.750000000000000000, 36.75000000000001421, 9.000000000000001776 ) ) ;
#381 = EDGE_CURVE ( 'NONE', #168, #206, #169, .T. ) ;
#382 = DIRECTION ( 'NONE',  ( 0.000000000000000000, -1.000000000000000000, 0.000000000000000000 ) ) ;
#383 = DIRECTION ( 'NONE',  ( 0.000000000000000000, -1.000000000000000000, 0.000000000000000000 ) ) ;
#384 = AXIS2_PLACEMENT_3D ( 'NONE', #511, #505, #694 ) ;
#385 = EDGE_CURVE ( 'NONE', #393, #487, #33, .T. ) ;
#386 = ORIENTED_EDGE ( 'NONE', *, *, #243, .T. ) ;
#387 = ORIENTED_EDGE ( 'NONE', *, *, #533, .T. ) ;
#388 = FILL_AREA_STYLE_COLOUR ( '', #552 ) ;
#389 = LINE ( 'NONE', #74, #631 ) ;
#390 = VERTEX_POINT ( 'NONE', #99 ) ;
#391 = PLANE ( 'NONE',  #185 ) ;
#392 = VECTOR ( 'NONE', #449, 1000.000000000000000 ) ;
#393 = VERTEX_POINT ( 'NONE', #817 ) ;
#394 = LINE ( 'NONE', #786, #417 ) ;
#395 = ORIENTED_EDGE ( 'NONE', *, *, #580, .T. ) ;
#396 = EDGE_CURVE ( 'NONE', #453, #82, #809, .T. ) ;
#397 = EDGE_CURVE ( 'NONE', #733, #241, #285, .T. ) ;
#398 = ORIENTED_EDGE ( 'NONE', *, *, #435, .T. ) ;
#399 = VECTOR ( 'NONE', #207, 1000.000000000000000 ) ;
#400 = EDGE_LOOP ( 'NONE', ( #412, #127, #334, #138 ) ) ;
#401 = SURFACE_STYLE_USAGE ( .BOTH. , #149 ) ;
#402 = ORIENTED_EDGE ( 'NONE', *, *, #484, .F. ) ;
#403 = CARTESIAN_POINT ( 'NONE',  ( 128.0000000000000000, 2.000000000000000000, 7.000000000000000000 ) ) ;
#404 = CARTESIAN_POINT ( 'NONE',  ( 0.000000000000000000, 55.01320770823509321, 9.000000000000001776 ) ) ;
#405 = AXIS2_PLACEMENT_3D ( 'NONE', #1, #383, #372 ) ;
#406 = ORIENTED_EDGE ( 'NONE', *, *, #15, .F. ) ;
#407 = VECTOR ( 'NONE', #222, 1000.000000000000000 ) ;
#408 = PRESENTATION_STYLE_ASSIGNMENT (( #401 ) ) ;
#409 = PLANE ( 'NONE',  #673 ) ;
#410 = EDGE_CURVE ( 'NONE', #411, #468, #743, .T. ) ;
#411 = VERTEX_POINT ( 'NONE', #813 ) ;
#412 = ORIENTED_EDGE ( 'NONE', *, *, #187, .F. ) ;
#413 = CYLINDRICAL_SURFACE ( 'NONE', #39, 0.7499999999999997780 ) ;
#414 = CARTESIAN_POINT ( 'NONE',  ( 0.000000000000000000, 0.000000000000000000, 7.000000000000000000 ) ) ;
#415 = PLANE ( 'NONE',  #735 ) ;
#416 = EDGE_CURVE ( 'NONE', #699, #614, #751, .T. ) ;
#417 = VECTOR ( 'NONE', #326, 1000.000000000000000 ) ;
#418 = CARTESIAN_POINT ( 'NONE',  ( 0.000000000000000000, 2.000000000000000000, 7.000000000000000000 ) ) ;
#419 = DIRECTION ( 'NONE',  ( 1.000000000000000000, 0.000000000000000000, 0.000000000000000000 ) ) ;
#420 = CARTESIAN_POINT ( 'NONE',  ( 130.0000000000000000, 0.000000000000000000, 7.000000000000000000 ) ) ;
#421 = DIRECTION ( 'NONE',  ( -1.000000000000000000, 0.000000000000000000, 0.000000000000000000 ) ) ;
#422 = DIRECTION ( 'NONE',  ( -0.000000000000000000, 0.000000000000000000, -1.000000000000000000 ) ) ;
#423 = ORIENTED_EDGE ( 'NONE', *, *, #113, .F. ) ;
#424 = CARTESIAN_POINT ( 'NONE',  ( 0.4999999999999987232, 47.50000000000001421, 9.000000000000001776 ) ) ;
#425 = PLANE ( 'NONE',  #762 ) ;
#426 = CARTESIAN_POINT ( 'NONE',  ( 2.000000000000000000, 36.75000000000001421, 7.000000000000000000 ) ) ;
#427 = EDGE_CURVE ( 'NONE', #487, #168, #655, .T. ) ;
#428 = EDGE_CURVE ( 'NONE', #206, #390, #274, .T. ) ;
#429 = LINE ( 'NONE', #597, #328 ) ;
#430 = DIRECTION ( 'NONE',  ( 0.000000000000000000, 0.000000000000000000, 1.000000000000000000 ) ) ;
#431 = ORIENTED_EDGE ( 'NONE', *, *, #432, .T. ) ;
#432 = EDGE_CURVE ( 'NONE', #176, #296, #305, .T. ) ;
#433 = VECTOR ( 'NONE', #617, 1000.000000000000000 ) ;
#434 = CARTESIAN_POINT ( 'NONE',  ( 0.4999999999999987232, 37.50000000000001421, 7.000000000000000000 ) ) ;
#435 = EDGE_CURVE ( 'NONE', #267, #390, #690, .T. ) ;
#436 = VECTOR ( 'NONE', #672, 1000.000000000000000 ) ;
#437 = CARTESIAN_POINT ( 'NONE',  ( 2.000000000000000000, 0.000000000000000000, 7.000000000000000000 ) ) ;
#438 = DIRECTION ( 'NONE',  ( -1.000000000000000000, 0.000000000000000000, 0.000000000000000000 ) ) ;
#439 = EDGE_CURVE ( 'NONE', #641, #275, #569, .T. ) ;
#440 = CARTESIAN_POINT ( 'NONE',  ( 2.000000000000000000, 55.01320770823509321, 9.000000000000001776 ) ) ;
#441 = CARTESIAN_POINT ( 'NONE',  ( 3.499999999999998668, 47.50000000000001421, 8.250000000000000000 ) ) ;
#442 = VERTEX_POINT ( 'NONE', #376 ) ;
#443 = DIRECTION ( 'NONE',  ( 0.000000000000000000, 1.000000000000000000, 0.000000000000000000 ) ) ;
#444 = PRESENTATION_LAYER_ASSIGNMENT (  '', '', ( #118 ) ) ;
#445 = AXIS2_PLACEMENT_3D ( 'NONE', #703, #245, #125 ) ;
#446 = LINE ( 'NONE', #377, #145 ) ;
#447 = FACE_OUTER_BOUND ( 'NONE', #602, .T. ) ;
#448 = ORIENTED_EDGE ( 'NONE', *, *, #463, .F. ) ;
#449 = DIRECTION ( 'NONE',  ( 0.000000000000000000, 1.000000000000000000, 0.000000000000000000 ) ) ;
#450 = DIRECTION ( 'NONE',  ( 1.000000000000000000, -0.000000000000000000, 0.000000000000000000 ) ) ;
#451 = ADVANCED_FACE ( 'NONE', ( #447 ), #827, .F. ) ;
#452 = CARTESIAN_POINT ( 'NONE',  ( 2.750000000000000000, 48.25000000000001421, 7.000000000000000000 ) ) ;
#453 = VERTEX_POINT ( 'NONE', #441 ) ;
#454 = AXIS2_PLACEMENT_3D ( 'NONE', #112, #566, #634 ) ;
#455 = ADVANCED_BREP_SHAPE_REPRESENTATION ( 'box cap', ( #284, #474 ), #529 ) ;
#456 = VECTOR ( 'NONE', #257, 1000.000000000000000 ) ;
#457 = VECTOR ( 'NONE', #3, 1000.000000000000000 ) ;
#458 = CARTESIAN_POINT ( 'NONE',  ( 0.000000000000000000, 85.00000000000000000, 0.000000000000000000 ) ) ;
#459 = ORIENTED_EDGE ( 'NONE', *, *, #792, .F. ) ;
#460 = VERTEX_POINT ( 'NONE', #177 ) ;
#461 = CARTESIAN_POINT ( 'NONE',  ( 0.000000000000000000, 0.000000000000000000, 7.000000000000000000 ) ) ;
#462 = CARTESIAN_POINT ( 'NONE',  ( 2.000000000000000000, 83.00000000000000000, 2.000000000000000000 ) ) ;
#463 = EDGE_CURVE ( 'NONE', #390, #176, #643, .T. ) ;
#464 = ORIENTED_EDGE ( 'NONE', *, *, #439, .T. ) ;
#465 = ORIENTED_EDGE ( 'NONE', *, *, #714, .F. ) ;
#466 = VERTEX_POINT ( 'NONE', #767 ) ;
#467 = PLANE ( 'NONE',  #16 ) ;
#468 = VERTEX_POINT ( 'NONE', #48 ) ;
#469 = EDGE_LOOP ( 'NONE', ( #28, #63, #76, #79 ) ) ;
#470 = ORIENTED_EDGE ( 'NONE', *, *, #347, .F. ) ;
#471 = LINE ( 'NONE', #538, #260 ) ;
#472 = VERTEX_POINT ( 'NONE', #129 ) ;
#473 = PLANE ( 'NONE',  #298 ) ;
#474 = AXIS2_PLACEMENT_3D ( 'NONE', #102, #291, #554 ) ;
#475 = VECTOR ( 'NONE', #627, 1000.000000000000000 ) ;
#476 = EDGE_CURVE ( 'NONE', #82, #411, #60, .T. ) ;
#477 = CARTESIAN_POINT ( 'NONE',  ( 0.000000000000000000, 53.01320770823510031, 12.00000000000000000 ) ) ;
#478 = ORIENTED_EDGE ( 'NONE', *, *, #665, .F. ) ;
#479 = DIRECTION ( 'NONE',  ( 0.000000000000000000, 0.000000000000000000, -1.000000000000000000 ) ) ;
#480 = FACE_OUTER_BOUND ( 'NONE', #601, .T. ) ;
#481 = DIRECTION ( 'NONE',  ( 1.000000000000000000, 0.000000000000000000, 0.000000000000000000 ) ) ;
#482 = ORIENTED_EDGE ( 'NONE', *, *, #826, .F. ) ;
#483 = DIRECTION ( 'NONE',  ( 0.000000000000000000, 0.000000000000000000, -1.000000000000000000 ) ) ;
#484 = EDGE_CURVE ( 'NONE', #453, #730, #446, .T. ) ;
#485 = CARTESIAN_POINT ( 'NONE',  ( 2.000000000000000000, 2.000000000000000000, 7.000000000000000000 ) ) ;
#486 = FACE_BOUND ( 'NONE', #342, .T. ) ;
#487 = VERTEX_POINT ( 'NONE', #692 ) ;
#488 = DIRECTION ( 'NONE',  ( -0.000000000000000000, -0.000000000000000000, -1.000000000000000000 ) ) ;
#489 = LINE ( 'NONE', #43, #239 ) ;
#490 = DIRECTION ( 'NONE',  ( 1.000000000000000000, 0.000000000000000000, 0.000000000000000000 ) ) ;
#491 = VECTOR ( 'NONE', #22, 1000.000000000000000 ) ;
#492 = VECTOR ( 'NONE', #25, 1000.000000000000000 ) ;
#493 = DIRECTION ( 'NONE',  ( -0.000000000000000000, 1.000000000000000000, -0.000000000000000000 ) ) ;
#494 = ADVANCED_FACE ( 'NONE', ( #9 ), #302, .T. ) ;
#495 = ADVANCED_FACE ( 'NONE', ( #56 ), #517, .F. ) ;
#496 = CARTESIAN_POINT ( 'NONE',  ( 2.000000000000000000, 36.75000000000001421, 9.000000000000001776 ) ) ;
#497 = LINE ( 'NONE', #288, #661 ) ;
#498 = CARTESIAN_POINT ( 'NONE',  ( -1.013779451389951181, 33.01320770823509321, 14.32571986627628213 ) ) ;
#499 = LINE ( 'NONE', #635, #94 ) ;
#500 = EDGE_CURVE ( 'NONE', #623, #781, #78, .T. ) ;
#501 = FACE_OUTER_BOUND ( 'NONE', #37, .T. ) ;
#502 = DIRECTION ( 'NONE',  ( 0.000000000000000000, -1.000000000000000000, 0.000000000000000000 ) ) ;
#503 = DIRECTION ( 'NONE',  ( 0.000000000000000000, 1.000000000000000000, 0.000000000000000000 ) ) ;
#504 = DIRECTION ( 'NONE',  ( 0.000000000000000000, 0.000000000000000000, 1.000000000000000000 ) ) ;
#505 = DIRECTION ( 'NONE',  ( 0.000000000000000000, 0.000000000000000000, 1.000000000000000000 ) ) ;
#506 = VECTOR ( 'NONE', #702, 1000.000000000000000 ) ;
#507 = EDGE_CURVE ( 'NONE', #393, #277, #221, .T. ) ;
#508 = DIRECTION ( 'NONE',  ( -0.000000000000000000, -0.000000000000000000, -1.000000000000000000 ) ) ;
#509 = DIRECTION ( 'NONE',  ( 0.000000000000000000, 0.000000000000000000, -1.000000000000000000 ) ) ;
#510 = ORIENTED_EDGE ( 'NONE', *, *, #251, .T. ) ;
#511 = CARTESIAN_POINT ( 'NONE',  ( 2.750000000000000000, 36.75000000000001421, 7.000000000000000000 ) ) ;
#512 = LINE ( 'NONE', #769, #506 ) ;
#513 = DIRECTION ( 'NONE',  ( -1.000000000000000000, -0.000000000000000000, -0.000000000000000000 ) ) ;
#514 = LINE ( 'NONE', #691, #392 ) ;
#515 = AXIS2_PLACEMENT_3D ( 'NONE', #715, #137, #654 ) ;
#516 = EDGE_CURVE ( 'NONE', #277, #168, #186, .T. ) ;
#517 = CYLINDRICAL_SURFACE ( 'NONE', #445, 2.000000000000000000 ) ;
#518 = EDGE_CURVE ( 'NONE', #176, #136, #175, .T. ) ;
#519 = FACE_OUTER_BOUND ( 'NONE', #565, .T. ) ;
#520 = DIRECTION ( 'NONE',  ( 1.000000000000000000, 0.000000000000000000, 0.000000000000000000 ) ) ;
#521 = ORIENTED_EDGE ( 'NONE', *, *, #518, .T. ) ;
#522 = CARTESIAN_POINT ( 'NONE',  ( 0.000000000000000000, 0.000000000000000000, 7.000000000000000000 ) ) ;
#523 = DIRECTION ( 'NONE',  ( 0.000000000000000000, 1.000000000000000000, 0.000000000000000000 ) ) ;
#524 = ORIENTED_EDGE ( 'NONE', *, *, #707, .T. ) ;
#525 = ORIENTED_EDGE ( 'NONE', *, *, #550, .T. ) ;
#526 = ADVANCED_FACE ( 'NONE', ( #640 ), #630, .F. ) ;
#527 = CIRCLE ( 'NONE', #143, 0.7499999999999997780 ) ;
#528 = DIRECTION ( 'NONE',  ( 0.000000000000000000, 0.000000000000000000, -1.000000000000000000 ) ) ;
#529 =( GEOMETRIC_REPRESENTATION_CONTEXT ( 3 ) GLOBAL_UNCERTAINTY_ASSIGNED_CONTEXT ( ( #300 ) ) GLOBAL_UNIT_ASSIGNED_CONTEXT ( ( #734, #151, #815 ) ) REPRESENTATION_CONTEXT ( 'NONE', 'WORKASPACE' ) );
#530 = VECTOR ( 'NONE', #548, 1000.000000000000000 ) ;
#531 = DIRECTION ( 'NONE',  ( 0.000000000000000000, 0.000000000000000000, -1.000000000000000000 ) ) ;
#532 = EDGE_LOOP ( 'NONE', ( #29, #524, #331, #808, #543, #70 ) ) ;
#533 = EDGE_CURVE ( 'NONE', #728, #472, #315, .T. ) ;
#534 = DIRECTION ( 'NONE',  ( 1.000000000000000000, 0.000000000000000000, 0.000000000000000000 ) ) ;
#535 = LINE ( 'NONE', #687, #436 ) ;
#536 = EDGE_CURVE ( 'NONE', #596, #411, #120, .T. ) ;
#537 = DIRECTION ( 'NONE',  ( 0.000000000000000000, 0.000000000000000000, -1.000000000000000000 ) ) ;
#538 = CARTESIAN_POINT ( 'NONE',  ( 0.000000000000000000, 53.01320770823508610, 9.000000000000001776 ) ) ;
#539 = ORIENTED_EDGE ( 'NONE', *, *, #697, .T. ) ;
#540 = ORIENTED_EDGE ( 'NONE', *, *, #69, .F. ) ;
#541 = EDGE_CURVE ( 'NONE', #277, #442, #180, .T. ) ;
#542 = DIRECTION ( 'NONE',  ( 1.000000000000000000, -0.000000000000000000, 0.000000000000000000 ) ) ;
#543 = ORIENTED_EDGE ( 'NONE', *, *, #126, .F. ) ;
#544 = PLANE ( 'NONE',  #40 ) ;
#545 = ORIENTED_EDGE ( 'NONE', *, *, #266, .T. ) ;
#546 = LINE ( 'NONE', #227, #615 ) ;
#547 = CARTESIAN_POINT ( 'NONE',  ( 0.3148066317760492283, 53.01320770823510031, 14.90414148690795137 ) ) ;
#548 = DIRECTION ( 'NONE',  ( 0.000000000000000000, 0.000000000000000000, -1.000000000000000000 ) ) ;
#549 = CARTESIAN_POINT ( 'NONE',  ( 2.750000000000000000, 47.50000000000001421, 9.000000000000001776 ) ) ;
#550 = EDGE_CURVE ( 'NONE', #275, #278, #787, .T. ) ;
#551 = CARTESIAN_POINT ( 'NONE',  ( 0.000000000000000000, 0.000000000000000000, 2.000000000000000000 ) ) ;
#552 = COLOUR_RGB ( '',0.7921568627450980005, 0.8196078431372548767, 0.9333333333333333481 ) ;
#553 = CIRCLE ( 'NONE', #675, 2.000000000000000000 ) ;
#554 = DIRECTION ( 'NONE',  ( 1.000000000000000000, 0.000000000000000000, 0.000000000000000000 ) ) ;
#555 = CARTESIAN_POINT ( 'NONE',  ( 0.000000000000000000, 55.01320770823509321, 7.000000000000000000 ) ) ;
#556 = CARTESIAN_POINT ( 'NONE',  ( 0.000000000000000000, 33.01320770823509321, 12.00000000000000000 ) ) ;
#557 = FACE_OUTER_BOUND ( 'NONE', #469, .T. ) ;
#558 = CARTESIAN_POINT ( 'NONE',  ( 128.0000000000000000, 83.00000000000000000, 7.000000000000000000 ) ) ;
#559 = EDGE_CURVE ( 'NONE', #623, #278, #307, .T. ) ;
#560 = CARTESIAN_POINT ( 'NONE',  ( 2.000000000000000000, 33.01320770823509321, 12.00000000000000000 ) ) ;
#561 = CARTESIAN_POINT ( 'NONE',  ( 2.000000000000000000, 33.01320770823509321, 12.00000000000000000 ) ) ;
#562 = CARTESIAN_POINT ( 'NONE',  ( -1.996604378834679672, 53.01320770823510031, 15.07105976814244386 ) ) ;
#563 = EDGE_CURVE ( 'NONE', #296, #206, #553, .T. ) ;
#564 = VECTOR ( 'NONE', #798, 1000.000000000000000 ) ;
#565 = EDGE_LOOP ( 'NONE', ( #44, #318, #459, #269 ) ) ;
#566 = DIRECTION ( 'NONE',  ( -0.6604711553388665779, 0.000000000000000000, 0.7508514187010255636 ) ) ;
#567 = VECTOR ( 'NONE', #706, 1000.000000000000000 ) ;
#568 = CARTESIAN_POINT ( 'NONE',  ( 2.000000000000000000, 53.01320770823508610, 12.00000000000000000 ) ) ;
#569 = LINE ( 'NONE', #231, #575 ) ;
#570 = CARTESIAN_POINT ( 'NONE',  ( 2.000000000000000000, 83.00000000000000000, 7.000000000000000000 ) ) ;
#571 = CARTESIAN_POINT ( 'NONE',  ( 2.000000000000000000, 53.01320770823508610, 12.00000000000000000 ) ) ;
#572 = EDGE_CURVE ( 'NONE', #316, #726, #719, .T. ) ;
#573 = CARTESIAN_POINT ( 'NONE',  ( -1.013779451389951181, 53.01320770823510031, 14.32571986627628213 ) ) ;
#574 = ORIENTED_EDGE ( 'NONE', *, *, #432, .F. ) ;
#575 = VECTOR ( 'NONE', #299, 1000.000000000000000 ) ;
#576 = ADVANCED_FACE ( 'NONE', ( #14 ), #270, .F. ) ;
#577 = CARTESIAN_POINT ( 'NONE',  ( 2.000000000000000000, 0.000000000000000000, 7.000000000000000000 ) ) ;
#578 = ORIENTED_EDGE ( 'NONE', *, *, #50, .F. ) ;
#579 = VECTOR ( 'NONE', #740, 1000.000000000000000 ) ;
#580 = EDGE_CURVE ( 'NONE', #460, #121, #650, .T. ) ;
#581 = ORIENTED_EDGE ( 'NONE', *, *, #572, .F. ) ;
#582 = ORIENTED_EDGE ( 'NONE', *, *, #256, .T. ) ;
#583 = ORIENTED_EDGE ( 'NONE', *, *, #410, .T. ) ;
#584 = CYLINDRICAL_SURFACE ( 'NONE', #292, 2.000000000000000000 ) ;
#585 = ADVANCED_FACE ( 'NONE', ( #83 ), #391, .T. ) ;
#586 = LINE ( 'NONE', #20, #600 ) ;
#587 = VECTOR ( 'NONE', #520, 1000.000000000000000 ) ;
#588 = ORIENTED_EDGE ( 'NONE', *, *, #2, .T. ) ;
#589 = CARTESIAN_POINT ( 'NONE',  ( 0.000000000000000000, 0.000000000000000000, 0.000000000000000000 ) ) ;
#590 = LINE ( 'NONE', #797, #624 ) ;
#591 = ORIENTED_EDGE ( 'NONE', *, *, #507, .T. ) ;
#592 = LINE ( 'NONE', #727, #456 ) ;
#593 = CARTESIAN_POINT ( 'NONE',  ( 3.499999999999998668, 37.50000000000001421, 8.250000000000000000 ) ) ;
#594 = PLANE ( 'NONE',  #784 ) ;
#595 = ADVANCED_FACE ( 'NONE', ( #259 ), #584, .F. ) ;
#596 = VERTEX_POINT ( 'NONE', #65 ) ;
#597 = CARTESIAN_POINT ( 'NONE',  ( 2.000000000000000000, 0.000000000000000000, 7.000000000000000000 ) ) ;
#598 = AXIS2_PLACEMENT_3D ( 'NONE', #424, #351, #680 ) ;
#599 = ORIENTED_EDGE ( 'NONE', *, *, #500, .T. ) ;
#600 = VECTOR ( 'NONE', #528, 1000.000000000000000 ) ;
#601 = EDGE_LOOP ( 'NONE', ( #642, #464, #365, #478, #191, #72, #197, #431, #724, #147, #670, #721 ) ) ;
#602 = EDGE_LOOP ( 'NONE', ( #146, #807, #406, #582 ) ) ;
#603 = CARTESIAN_POINT ( 'NONE',  ( 0.000000000000000000, 33.01320770823509321, 12.00000000000000000 ) ) ;
#604 = CYLINDRICAL_SURFACE ( 'NONE', #384, 0.7499999999999997780 ) ;
#605 = CARTESIAN_POINT ( 'NONE',  ( -0.8726226608988807421, 53.01320770823510031, 16.05974739040078703 ) ) ;
#606 = LINE ( 'NONE', #426, #271 ) ;
#607 = EDGE_CURVE ( 'NONE', #208, #637, #319, .T. ) ;
#608 = VECTOR ( 'NONE', #502, 1000.000000000000000 ) ;
#609 = DIRECTION ( 'NONE',  ( -0.000000000000000000, -0.000000000000000000, -1.000000000000000000 ) ) ;
#610 = DIRECTION ( 'NONE',  ( -1.000000000000000000, 0.000000000000000000, -0.000000000000000000 ) ) ;
#611 = CARTESIAN_POINT ( 'NONE',  ( 2.750000000000000000, 48.25000000000001421, 9.000000000000001776 ) ) ;
#612 = CARTESIAN_POINT ( 'NONE',  ( -1.996604378834679672, 53.01320770823510031, 15.07105976814244386 ) ) ;
#613 = FACE_OUTER_BOUND ( 'NONE', #150, .T. ) ;
#614 = VERTEX_POINT ( 'NONE', #336 ) ;
#615 = VECTOR ( 'NONE', #90, 1000.000000000000000 ) ;
#616 = VECTOR ( 'NONE', #816, 1000.000000000000000 ) ;
#617 = DIRECTION ( 'NONE',  ( -0.000000000000000000, -0.000000000000000000, 1.000000000000000000 ) ) ;
#618 = CARTESIAN_POINT ( 'NONE',  ( 1.512422913767542676, 33.01320770823509321, 13.63560506839216480 ) ) ;
#619 = ADVANCED_FACE ( 'NONE', ( #708 ), #544, .F. ) ;
#620 = CARTESIAN_POINT ( 'NONE',  ( 0.000000000000000000, 0.000000000000000000, 9.000000000000001776 ) ) ;
#621 = VECTOR ( 'NONE', #64, 1000.000000000000000 ) ;
#622 = CARTESIAN_POINT ( 'NONE',  ( 0.000000000000000000, 31.01320770823508965, 7.000000000000000000 ) ) ;
#623 = VERTEX_POINT ( 'NONE', #93 ) ;
#624 = VECTOR ( 'NONE', #648, 1000.000000000000000 ) ;
#625 = CARTESIAN_POINT ( 'NONE',  ( 0.000000000000000000, 33.01320770823509321, 12.00000000000000000 ) ) ;
#626 = CARTESIAN_POINT ( 'NONE',  ( 0.4999999999999987232, 47.50000000000001421, 7.000000000000000000 ) ) ;
#627 = DIRECTION ( 'NONE',  ( -0.000000000000000000, -0.000000000000000000, -1.000000000000000000 ) ) ;
#628 = PLANE ( 'NONE',  #454 ) ;
#629 = LINE ( 'NONE', #434, #778 ) ;
#630 = PLANE ( 'NONE',  #225 ) ;
#631 = VECTOR ( 'NONE', #647, 1000.000000000000000 ) ;
#632 = CARTESIAN_POINT ( 'NONE',  ( 1.512422913767542676, 53.01320770823510031, 13.63560506839216480 ) ) ;
#633 = EDGE_CURVE ( 'NONE', #733, #468, #741, .T. ) ;
#634 = DIRECTION ( 'NONE',  ( 0.7508514187010255636, 0.000000000000000000, 0.6604711553388665779 ) ) ;
#635 = CARTESIAN_POINT ( 'NONE',  ( 0.000000000000000000, 83.00000000000000000, 7.000000000000000000 ) ) ;
#636 = CARTESIAN_POINT ( 'NONE',  ( 2.749999999999999112, 0.000000000000000000, 8.250000000000000000 ) ) ;
#637 = VERTEX_POINT ( 'NONE', #104 ) ;
#638 = ORIENTED_EDGE ( 'NONE', *, *, #707, .F. ) ;
#639 = EDGE_CURVE ( 'NONE', #806, #460, #283, .T. ) ;
#640 = FACE_OUTER_BOUND ( 'NONE', #258, .T. ) ;
#641 = VERTEX_POINT ( 'NONE', #555 ) ;
#642 = ORIENTED_EDGE ( 'NONE', *, *, #276, .T. ) ;
#643 = CIRCLE ( 'NONE', #711, 2.000000000000000000 ) ;
#644 = ADVANCED_FACE ( 'NONE', ( #480 ), #356, .F. ) ;
#645 = ORIENTED_EDGE ( 'NONE', *, *, #2, .F. ) ;
#646 = FILL_AREA_STYLE ('',( #388 ) ) ;
#647 = DIRECTION ( 'NONE',  ( -0.000000000000000000, -0.000000000000000000, -1.000000000000000000 ) ) ;
#648 = DIRECTION ( 'NONE',  ( -0.7508514187010255636, -0.000000000000000000, -0.6604711553388666889 ) ) ;
#649 = CLOSED_SHELL ( 'NONE', ( #644, #739, #755, #678, #725, #576, #451, #135, #294, #820, #689, #585, #98, #97, #89, #526, #619, #819, #746, #314, #494, #595, #495, #30, #775, #46 ) ) ;
#650 = LINE ( 'NONE', #213, #399 ) ;
#651 = ORIENTED_EDGE ( 'NONE', *, *, #563, .F. ) ;
#652 = LINE ( 'NONE', #722, #491 ) ;
#653 = ORIENTED_EDGE ( 'NONE', *, *, #276, .F. ) ;
#654 = DIRECTION ( 'NONE',  ( 0.000000000000000000, -0.000000000000000000, 1.000000000000000000 ) ) ;
#655 = B_SPLINE_CURVE_WITH_KNOTS ( 'NONE', 3,
 ( #165, #359, #36, #556 ),
 .UNSPECIFIED., .F., .F.,
 ( 4, 4 ),
 ( 0.000000000000000000, 1.000000000000000000 ),
 .UNSPECIFIED. ) ;
#656 = ORIENTED_EDGE ( 'NONE', *, *, #533, .F. ) ;
#657 = ORIENTED_EDGE ( 'NONE', *, *, #256, .F. ) ;
#658 =( LENGTH_UNIT ( ) NAMED_UNIT ( * ) SI_UNIT ( .MILLI., .METRE. ) );
#659 = LINE ( 'NONE', #796, #160 ) ;
#660 = ORIENTED_EDGE ( 'NONE', *, *, #639, .F. ) ;
#661 = VECTOR ( 'NONE', #279, 1000.000000000000000 ) ;
#662 = VECTOR ( 'NONE', #77, 1000.000000000000000 ) ;
#663 = CARTESIAN_POINT ( 'NONE',  ( 0.000000000000000000, 0.000000000000000000, 7.000000000000000000 ) ) ;
#664 = VERTEX_POINT ( 'NONE', #244 ) ;
#665 = EDGE_CURVE ( 'NONE', #693, #108, #499, .T. ) ;
#666 = ORIENTED_EDGE ( 'NONE', *, *, #580, .F. ) ;
#667 = ORIENTED_EDGE ( 'NONE', *, *, #810, .F. ) ;
#668 = B_SPLINE_SURFACE_WITH_KNOTS ( 'NONE', 3, 1, ( 
 ( #352, #159 ),
 ( #281, #498 ),
 ( #364, #228 ),
 ( #753, #625 ) ),
 .UNSPECIFIED., .F., .F., .F.,
 ( 4, 4 ),
 ( 2, 2 ),
 ( 0.000000000000000000, 1.000000000000000000 ),
 ( 0.000000000000000000, 1.000000000000000000 ),
 .UNSPECIFIED. ) ;
#669 = ORIENTED_EDGE ( 'NONE', *, *, #802, .F. ) ;
#670 = ORIENTED_EDGE ( 'NONE', *, *, #15, .T. ) ;
#671 = LINE ( 'NONE', #418, #771 ) ;
#672 = DIRECTION ( 'NONE',  ( 0.000000000000000000, 1.000000000000000000, 0.000000000000000000 ) ) ;
#673 = AXIS2_PLACEMENT_3D ( 'NONE', #414, #419, #289 ) ;
#674 = EDGE_CURVE ( 'NONE', #71, #82, #773, .T. ) ;
#675 = AXIS2_PLACEMENT_3D ( 'NONE', #68, #262, #193 ) ;
#676 = DIRECTION ( 'NONE',  ( 0.000000000000000000, 0.000000000000000000, -1.000000000000000000 ) ) ;
#677 = DIRECTION ( 'NONE',  ( 0.000000000000000000, -0.000000000000000000, -1.000000000000000000 ) ) ;
#678 = ADVANCED_FACE ( 'NONE', ( #171 ), #688, .F. ) ;
#679 = DIRECTION ( 'NONE',  ( 0.000000000000000000, -1.000000000000000000, 0.000000000000000000 ) ) ;
#680 = DIRECTION ( 'NONE',  ( 0.000000000000000000, -0.000000000000000000, -1.000000000000000000 ) ) ;
#681 = CARTESIAN_POINT ( 'NONE',  ( 0.000000000000000000, 83.00000000000000000, 7.000000000000000000 ) ) ;
#682 = CARTESIAN_POINT ( 'NONE',  ( 0.000000000000000000, 0.000000000000000000, 7.000000000000000000 ) ) ;
#683 = CARTESIAN_POINT ( 'NONE',  ( -0.8726226608988807421, 53.01320770823510031, 16.05974739040078703 ) ) ;
#684 = FACE_OUTER_BOUND ( 'NONE', #173, .T. ) ;
#685 = VERTEX_POINT ( 'NONE', #201 ) ;
#686 = MECHANICAL_DESIGN_GEOMETRIC_PRESENTATION_REPRESENTATION (  '', ( #118 ), #194 ) ;
#687 = CARTESIAN_POINT ( 'NONE',  ( 128.0000000000000000, 0.000000000000000000, 7.000000000000000000 ) ) ;
#688 = PLANE ( 'NONE',  #825 ) ;
#689 = ADVANCED_FACE ( 'NONE', ( #189 ), #467, .T. ) ;
#690 = LINE ( 'NONE', #560, #475 ) ;
#691 = CARTESIAN_POINT ( 'NONE',  ( 130.0000000000000000, 0.000000000000000000, 0.000000000000000000 ) ) ;
#692 = CARTESIAN_POINT ( 'NONE',  ( -1.996604378834679672, 33.01320770823509321, 15.07105976814244386 ) ) ;
#693 = VERTEX_POINT ( 'NONE', #134 ) ;
#694 = DIRECTION ( 'NONE',  ( 1.000000000000000000, 0.000000000000000000, 0.000000000000000000 ) ) ;
#695 = EDGE_CURVE ( 'NONE', #726, #728, #659, .T. ) ;
#696 = AXIS2_PLACEMENT_3D ( 'NONE', #42, #700, #122 ) ;
#697 = EDGE_CURVE ( 'NONE', #664, #726, #389, .T. ) ;
#698 = AXIS2_PLACEMENT_3D ( 'NONE', #748, #103, #95 ) ;
#699 = VERTEX_POINT ( 'NONE', #462 ) ;
#700 = DIRECTION ( 'NONE',  ( 0.000000000000000000, 1.000000000000000000, 0.000000000000000000 ) ) ;
#701 = VECTOR ( 'NONE', #382, 1000.000000000000000 ) ;
#702 = DIRECTION ( 'NONE',  ( -0.000000000000000000, -0.000000000000000000, -1.000000000000000000 ) ) ;
#703 = CARTESIAN_POINT ( 'NONE',  ( 0.000000000000000000, 31.01320770823508965, 9.000000000000001776 ) ) ;
#704 = ORIENTED_EDGE ( 'NONE', *, *, #559, .F. ) ;
#705 = CARTESIAN_POINT ( 'NONE',  ( -0.8726226608988807421, 33.01320770823509321, 16.05974739040078703 ) ) ;
#706 = DIRECTION ( 'NONE',  ( 0.000000000000000000, -1.000000000000000000, 0.000000000000000000 ) ) ;
#707 = EDGE_CURVE ( 'NONE', #278, #442, #471, .T. ) ;
#708 = FACE_OUTER_BOUND ( 'NONE', #776, .T. ) ;
#709 = DIRECTION ( 'NONE',  ( -0.000000000000000000, -0.000000000000000000, 1.000000000000000000 ) ) ;
#710 = ORIENTED_EDGE ( 'NONE', *, *, #674, .T. ) ;
#711 = AXIS2_PLACEMENT_3D ( 'NONE', #51, #379, #509 ) ;
#712 = CIRCLE ( 'NONE', #801, 2.000000000000000000 ) ;
#713 = ORIENTED_EDGE ( 'NONE', *, *, #810, .T. ) ;
#714 = EDGE_CURVE ( 'NONE', #468, #453, #747, .T. ) ;
#715 = CARTESIAN_POINT ( 'NONE',  ( 0.000000000000000000, 0.000000000000000000, 7.000000000000000000 ) ) ;
#716 = ORIENTED_EDGE ( 'NONE', *, *, #226, .F. ) ;
#717 =( NAMED_UNIT ( * ) SI_UNIT ( $, .STERADIAN. ) SOLID_ANGLE_UNIT ( ) );
#718 = ORIENTED_EDGE ( 'NONE', *, *, #550, .F. ) ;
#719 = LINE ( 'NONE', #458, #492 ) ;
#720 = EDGE_LOOP ( 'NONE', ( #337, #402, #465, #84 ) ) ;
#721 = ORIENTED_EDGE ( 'NONE', *, *, #792, .T. ) ;
#722 = CARTESIAN_POINT ( 'NONE',  ( 0.000000000000000000, 2.000000000000000000, 2.000000000000000000 ) ) ;
#723 = CARTESIAN_POINT ( 'NONE',  ( 0.000000000000000000, 2.000000000000000000, 7.000000000000000000 ) ) ;
#724 = ORIENTED_EDGE ( 'NONE', *, *, #264, .T. ) ;
#725 = ADVANCED_FACE ( 'NONE', ( #732 ), #409, .F. ) ;
#726 = VERTEX_POINT ( 'NONE', #34 ) ;
#727 = CARTESIAN_POINT ( 'NONE',  ( 130.0000000000000000, 0.000000000000000000, 7.000000000000000000 ) ) ;
#728 = VERTEX_POINT ( 'NONE', #339 ) ;
#729 = VECTOR ( 'NONE', #488, 1000.000000000000000 ) ;
#730 = VERTEX_POINT ( 'NONE', #593 ) ;
#731 = CARTESIAN_POINT ( 'NONE',  ( 2.000000000000000000, 53.01320770823508610, 9.000000000000001776 ) ) ;
#732 = FACE_OUTER_BOUND ( 'NONE', #322, .T. ) ;
#733 = VERTEX_POINT ( 'NONE', #344 ) ;
#734 =( LENGTH_UNIT ( ) NAMED_UNIT ( * ) SI_UNIT ( .MILLI., .METRE. ) );
#735 = AXIS2_PLACEMENT_3D ( 'NONE', #355, #676, #610 ) ;
#736 = ORIENTED_EDGE ( 'NONE', *, *, #264, .F. ) ;
#737 = ORIENTED_EDGE ( 'NONE', *, *, #435, .F. ) ;
#738 = DIRECTION ( 'NONE',  ( -1.000000000000000000, 0.000000000000000000, 0.000000000000000000 ) ) ;
#739 = ADVANCED_FACE ( 'NONE', ( #163 ), #804, .F. ) ;
#740 = DIRECTION ( 'NONE',  ( 0.000000000000000000, 0.000000000000000000, -1.000000000000000000 ) ) ;
#741 = LINE ( 'NONE', #754, #616 ) ;
#742 = ORIENTED_EDGE ( 'NONE', *, *, #826, .T. ) ;
#743 = LINE ( 'NONE', #549, #433 ) ;
#744 = DIRECTION ( 'NONE',  ( -1.000000000000000000, 0.000000000000000000, 0.000000000000000000 ) ) ;
#745 = FACE_OUTER_BOUND ( 'NONE', #87, .T. ) ;
#746 = ADVANCED_FACE ( 'NONE', ( #100 ), #604, .F. ) ;
#747 = CIRCLE ( 'NONE', #373, 0.7499999999999997780 ) ;
#748 = CARTESIAN_POINT ( 'NONE',  ( 2.750000000000000000, 36.75000000000001421, 7.000000000000000000 ) ) ;
#749 = DIRECTION ( 'NONE',  ( 0.000000000000000000, 1.000000000000000000, 0.000000000000000000 ) ) ;
#750 = APPLICATION_PROTOCOL_DEFINITION ( 'draft international standard', 'automotive_design', 1998, #230 ) ;
#751 = LINE ( 'NONE', #41, #62 ) ;
#752 = CARTESIAN_POINT ( 'NONE',  ( 2.000000000000000000, 33.01320770823509321, 12.00000000000000000 ) ) ;
#753 = CARTESIAN_POINT ( 'NONE',  ( 0.000000000000000000, 53.01320770823510031, 12.00000000000000000 ) ) ;
#754 = CARTESIAN_POINT ( 'NONE',  ( 2.749999999999999112, 0.000000000000000000, 9.000000000000001776 ) ) ;
#755 = ADVANCED_FACE ( 'NONE', ( #557 ), #116, .F. ) ;
#756 = CARTESIAN_POINT ( 'NONE',  ( 0.000000000000000000, 31.01320770823508965, 7.000000000000000000 ) ) ;
#757 = CARTESIAN_POINT ( 'NONE',  ( 1.512422913767542676, 53.01320770823510031, 13.63560506839216480 ) ) ;
#758 = CARTESIAN_POINT ( 'NONE',  ( 3.499999999999998668, 37.50000000000001421, 7.000000000000000000 ) ) ;
#759 = LINE ( 'NONE', #174, #354 ) ;
#760 = DIRECTION ( 'NONE',  ( -1.000000000000000000, -0.000000000000000000, -0.000000000000000000 ) ) ;
#761 = CARTESIAN_POINT ( 'NONE',  ( 2.000000000000000000, 33.01320770823509321, 9.000000000000001776 ) ) ;
#762 = AXIS2_PLACEMENT_3D ( 'NONE', #681, #360, #178 ) ;
#763 = LINE ( 'NONE', #238, #621 ) ;
#764 = DIRECTION ( 'NONE',  ( 0.000000000000000000, 0.000000000000000000, 1.000000000000000000 ) ) ;
#765 = ORIENTED_EDGE ( 'NONE', *, *, #463, .T. ) ;
#766 = B_SPLINE_CURVE_WITH_KNOTS ( 'NONE', 3,
 ( #752, #166, #772, #705 ),
 .UNSPECIFIED., .F., .F.,
 ( 4, 4 ),
 ( 0.000000000000000000, 1.000000000000000000 ),
 .UNSPECIFIED. ) ;
#767 = CARTESIAN_POINT ( 'NONE',  ( 2.000000000000000000, 36.75000000000001421, 7.000000000000000000 ) ) ;
#768 = ORIENTED_EDGE ( 'NONE', *, *, #396, .T. ) ;
#769 = CARTESIAN_POINT ( 'NONE',  ( 130.0000000000000000, 85.00000000000000000, 7.000000000000000000 ) ) ;
#770 = CIRCLE ( 'NONE', #313, 0.7499999999999997780 ) ;
#771 = VECTOR ( 'NONE', #542, 1000.000000000000000 ) ;
#772 = CARTESIAN_POINT ( 'NONE',  ( 0.3148066317760492283, 33.01320770823509321, 14.90414148690795137 ) ) ;
#773 = LINE ( 'NONE', #758, #49 ) ;
#774 = CARTESIAN_POINT ( 'NONE',  ( 0.000000000000000000, 53.01320770823510031, 12.00000000000000000 ) ) ;
#775 = ADVANCED_FACE ( 'NONE', ( #501 ), #628, .T. ) ;
#776 = EDGE_LOOP ( 'NONE', ( #232, #214, #737, #153, #588, #195 ) ) ;
#777 = ORIENTED_EDGE ( 'NONE', *, *, #695, .F. ) ;
#778 = VECTOR ( 'NONE', #247, 1000.000000000000000 ) ;
#779 = CARTESIAN_POINT ( 'NONE',  ( 0.000000000000000000, 33.01320770823509321, 12.00000000000000000 ) ) ;
#780 = DIRECTION ( 'NONE',  ( -1.000000000000000000, 0.000000000000000000, -0.000000000000000000 ) ) ;
#781 = VERTEX_POINT ( 'NONE', #683 ) ;
#782 = EDGE_CURVE ( 'NONE', #267, #52, #766, .T. ) ;
#783 = DIRECTION ( 'NONE',  ( 0.000000000000000000, 0.000000000000000000, -1.000000000000000000 ) ) ;
#784 = AXIS2_PLACEMENT_3D ( 'NONE', #282, #490, #479 ) ;
#785 = ORIENTED_EDGE ( 'NONE', *, *, #541, .T. ) ;
#786 = CARTESIAN_POINT ( 'NONE',  ( 0.000000000000000000, 0.000000000000000000, 7.000000000000000000 ) ) ;
#787 = CIRCLE ( 'NONE', #75, 2.000000000000000000 ) ;
#788 = ORIENTED_EDGE ( 'NONE', *, *, #126, .T. ) ;
#789 = ORIENTED_EDGE ( 'NONE', *, *, #607, .F. ) ;
#790 = ORIENTED_EDGE ( 'NONE', *, *, #639, .T. ) ;
#791 = CARTESIAN_POINT ( 'NONE',  ( 3.499999999999998668, 37.50000000000001421, 9.000000000000001776 ) ) ;
#792 = EDGE_CURVE ( 'NONE', #685, #664, #309, .T. ) ;
#793 = ORIENTED_EDGE ( 'NONE', *, *, #782, .F. ) ;
#794 = CARTESIAN_POINT ( 'NONE',  ( 128.0000000000000000, 0.000000000000000000, 7.000000000000000000 ) ) ;
#795 = ORIENTED_EDGE ( 'NONE', *, *, #367, .F. ) ;
#796 = CARTESIAN_POINT ( 'NONE',  ( 0.000000000000000000, 0.000000000000000000, 0.000000000000000000 ) ) ;
#797 = CARTESIAN_POINT ( 'NONE',  ( -1.996604378834679672, 33.01320770823509321, 15.07105976814244386 ) ) ;
#798 = DIRECTION ( 'NONE',  ( -0.000000000000000000, -1.000000000000000000, -0.000000000000000000 ) ) ;
#799 = VERTEX_POINT ( 'NONE', #312 ) ;
#800 = CARTESIAN_POINT ( 'NONE',  ( 0.000000000000000000, 0.000000000000000000, 7.000000000000000000 ) ) ;
#801 = AXIS2_PLACEMENT_3D ( 'NONE', #263, #534, #537 ) ;
#802 = EDGE_CURVE ( 'NONE', #13, #733, #770, .T. ) ;
#803 = ORIENTED_EDGE ( 'NONE', *, *, #396, .F. ) ;
#804 = PLANE ( 'NONE',  #598 ) ;
#805 = EDGE_LOOP ( 'NONE', ( #793, #272, #599, #204 ) ) ;
#806 = VERTEX_POINT ( 'NONE', #403 ) ;
#807 = ORIENTED_EDGE ( 'NONE', *, *, #161, .F. ) ;
#808 = ORIENTED_EDGE ( 'NONE', *, *, #507, .F. ) ;
#809 = LINE ( 'NONE', #220, #729 ) ;
#810 = EDGE_CURVE ( 'NONE', #466, #13, #606, .T. ) ;
#811 = CARTESIAN_POINT ( 'NONE',  ( -0.8726226608988807421, 33.01320770823509321, 16.05974739040078703 ) ) ;
#812 = ORIENTED_EDGE ( 'NONE', *, *, #476, .T. ) ;
#813 = CARTESIAN_POINT ( 'NONE',  ( 2.750000000000000000, 47.50000000000001421, 7.000000000000000000 ) ) ;
#814 = DIRECTION ( 'NONE',  ( 0.000000000000000000, 0.000000000000000000, -1.000000000000000000 ) ) ;
#815 =( NAMED_UNIT ( * ) SI_UNIT ( $, .STERADIAN. ) SOLID_ANGLE_UNIT ( ) );
#816 = DIRECTION ( 'NONE',  ( 0.000000000000000000, 1.000000000000000000, 0.000000000000000000 ) ) ;
#817 = CARTESIAN_POINT ( 'NONE',  ( -1.996604378834679672, 53.01320770823510031, 15.07105976814244386 ) ) ;
#818 = DIRECTION ( 'NONE',  ( 0.000000000000000000, 0.000000000000000000, -1.000000000000000000 ) ) ;
#819 = ADVANCED_FACE ( 'NONE', ( #212 ), #473, .F. ) ;
#820 = ADVANCED_FACE ( 'NONE', ( #613, #486 ), #594, .T. ) ;
#821 = EDGE_LOOP ( 'NONE', ( #651, #574, #448, #148 ) ) ;
#822 = LINE ( 'NONE', #485, #579 ) ;
#823 = DIRECTION ( 'NONE',  ( 0.000000000000000000, 0.000000000000000000, -1.000000000000000000 ) ) ;
#824 = DIRECTION ( 'NONE',  ( -0.000000000000000000, -1.000000000000000000, -0.000000000000000000 ) ) ;
#825 = AXIS2_PLACEMENT_3D ( 'NONE', #620, #130, #780 ) ;
#826 = EDGE_CURVE ( 'NONE', #468, #799, #527, .T. ) ;
#827 = PLANE ( 'NONE',  #172 ) ;
#828 = DIRECTION ( 'NONE',  ( -1.000000000000000000, 0.000000000000000000, 0.000000000000000000 ) ) ;
ENDSEC;
END-ISO-10303-21;
